<?xml version="1.0" encoding="UTF-8"?>
<!--Generator: Apple Native CoreSVG 129-->
<!DOCTYPE svg
PUBLIC "-//W3C//DTD SVG 1.1//EN"
       "http://www.w3.org/Graphics/SVG/1.1/DTD/svg11.dtd">
<svg version="1.1" xmlns="http://www.w3.org/2000/svg" xmlns:xlink="http://www.w3.org/1999/xlink" width="3300" height="2200">
 <!--glyph: "uni100306.medium", point size: 100.000000, font version: "Version 16.0d9e1", template writer version: "8"-->
 <g id="Notes">
  <rect height="2200" id="artboard" style="fill:white;opacity:1" width="3300" x="0" y="0"/>
  <line id="" style="fill:none;stroke:black;opacity:1;stroke-width:0.5;" x1="263" x2="3036" y1="292" y2="292"/>
  <text style="stroke:none;fill:black;font-family:-apple-system,&quot;SF Pro Display&quot;,&quot;SF Pro Text&quot;,Helvetica,sans-serif;font-weight:bold;" transform="matrix(1 0 0 1 263 322)">Weight/Scale Variations</text>
  <text style="stroke:none;fill:black;font-family:-apple-system,&quot;SF Pro Display&quot;,&quot;SF Pro Text&quot;,Helvetica,sans-serif;text-anchor:middle;" transform="matrix(1 0 0 1 559.711 322)">Ultralight</text>
  <text style="stroke:none;fill:black;font-family:-apple-system,&quot;SF Pro Display&quot;,&quot;SF Pro Text&quot;,Helvetica,sans-serif;text-anchor:middle;" transform="matrix(1 0 0 1 856.422 322)">Thin</text>
  <text style="stroke:none;fill:black;font-family:-apple-system,&quot;SF Pro Display&quot;,&quot;SF Pro Text&quot;,Helvetica,sans-serif;text-anchor:middle;" transform="matrix(1 0 0 1 1153.13 322)">Light</text>
  <text style="stroke:none;fill:black;font-family:-apple-system,&quot;SF Pro Display&quot;,&quot;SF Pro Text&quot;,Helvetica,sans-serif;text-anchor:middle;" transform="matrix(1 0 0 1 1449.84 322)">Regular</text>
  <text style="stroke:none;fill:black;font-family:-apple-system,&quot;SF Pro Display&quot;,&quot;SF Pro Text&quot;,Helvetica,sans-serif;text-anchor:middle;" transform="matrix(1 0 0 1 1746.56 322)">Medium</text>
  <text style="stroke:none;fill:black;font-family:-apple-system,&quot;SF Pro Display&quot;,&quot;SF Pro Text&quot;,Helvetica,sans-serif;text-anchor:middle;" transform="matrix(1 0 0 1 2043.27 322)">Semibold</text>
  <text style="stroke:none;fill:black;font-family:-apple-system,&quot;SF Pro Display&quot;,&quot;SF Pro Text&quot;,Helvetica,sans-serif;text-anchor:middle;" transform="matrix(1 0 0 1 2339.98 322)">Bold</text>
  <text style="stroke:none;fill:black;font-family:-apple-system,&quot;SF Pro Display&quot;,&quot;SF Pro Text&quot;,Helvetica,sans-serif;text-anchor:middle;" transform="matrix(1 0 0 1 2636.69 322)">Heavy</text>
  <text style="stroke:none;fill:black;font-family:-apple-system,&quot;SF Pro Display&quot;,&quot;SF Pro Text&quot;,Helvetica,sans-serif;text-anchor:middle;" transform="matrix(1 0 0 1 2933.4 322)">Black</text>
  <line id="" style="fill:none;stroke:black;opacity:1;stroke-width:0.5;" x1="263" x2="3036" y1="1903" y2="1903"/>
  <g id="" transform="matrix(1 0 0 1 263 1933)">
   <path d="M 9.24805 0.830078 C 13.5547 0.830078 17.1387 -2.74414 17.1387 -7.05078 C 17.1387 -11.3574 13.5449 -14.9316 9.23828 -14.9316 C 4.94141 -14.9316 1.36719 -11.3574 1.36719 -7.05078 C 1.36719 -2.74414 4.95117 0.830078 9.24805 0.830078 Z M 9.24805 -0.654297 C 5.70312 -0.654297 2.87109 -3.49609 2.87109 -7.05078 C 2.87109 -10.6055 5.69336 -13.4473 9.23828 -13.4473 C 12.793 -13.4473 15.6348 -10.6055 15.6445 -7.05078 C 15.6543 -3.49609 12.8027 -0.654297 9.24805 -0.654297 Z M 9.22852 -3.62305 C 9.69727 -3.62305 9.9707 -3.93555 9.9707 -4.45312 L 9.9707 -6.31836 L 12.002 -6.31836 C 12.5 -6.31836 12.832 -6.57227 12.832 -7.04102 C 12.832 -7.51953 12.5195 -7.7832 12.002 -7.7832 L 9.9707 -7.7832 L 9.9707 -9.81445 C 9.9707 -10.332 9.69727 -10.6543 9.22852 -10.6543 C 8.75977 -10.6543 8.50586 -10.3125 8.50586 -9.81445 L 8.50586 -7.7832 L 6.49414 -7.7832 C 5.97656 -7.7832 5.64453 -7.51953 5.64453 -7.04102 C 5.64453 -6.57227 5.99609 -6.31836 6.49414 -6.31836 L 8.50586 -6.31836 L 8.50586 -4.45312 C 8.50586 -3.95508 8.75977 -3.62305 9.22852 -3.62305 Z"/>
  </g>
  <g id="" transform="matrix(1 0 0 1 281.506 1933)">
   <path d="M 11.709 2.91016 C 17.1582 2.91016 21.6699 -1.61133 21.6699 -7.05078 C 21.6699 -12.5 17.1484 -17.0117 11.6992 -17.0117 C 6.25977 -17.0117 1.74805 -12.5 1.74805 -7.05078 C 1.74805 -1.61133 6.26953 2.91016 11.709 2.91016 Z M 11.709 1.25 C 7.09961 1.25 3.41797 -2.44141 3.41797 -7.05078 C 3.41797 -11.6602 7.08984 -15.3516 11.6992 -15.3516 C 16.3086 -15.3516 20 -11.6602 20.0098 -7.05078 C 20.0195 -2.44141 16.3184 1.25 11.709 1.25 Z M 11.6797 -2.66602 C 12.207 -2.66602 12.5098 -3.01758 12.5098 -3.59375 L 12.5098 -6.23047 L 15.3223 -6.23047 C 15.8691 -6.23047 16.25 -6.51367 16.25 -7.03125 C 16.25 -7.55859 15.8887 -7.86133 15.3223 -7.86133 L 12.5098 -7.86133 L 12.5098 -10.6836 C 12.5098 -11.25 12.207 -11.6113 11.6797 -11.6113 C 11.1621 -11.6113 10.8789 -11.2305 10.8789 -10.6836 L 10.8789 -7.86133 L 8.07617 -7.86133 C 7.50977 -7.86133 7.13867 -7.55859 7.13867 -7.03125 C 7.13867 -6.51367 7.5293 -6.23047 8.07617 -6.23047 L 10.8789 -6.23047 L 10.8789 -3.59375 C 10.8789 -3.03711 11.1621 -2.66602 11.6797 -2.66602 Z"/>
  </g>
  <g id="" transform="matrix(1 0 0 1 304.924 1933)">
   <path d="M 14.9707 5.66406 C 21.9336 5.66406 27.6953 -0.0976562 27.6953 -7.05078 C 27.6953 -14.0137 21.9238 -19.7754 14.9609 -19.7754 C 8.00781 -19.7754 2.25586 -14.0137 2.25586 -7.05078 C 2.25586 -0.0976562 8.01758 5.66406 14.9707 5.66406 Z M 14.9707 3.84766 C 8.93555 3.84766 4.08203 -1.01562 4.08203 -7.05078 C 4.08203 -13.0957 8.92578 -17.9492 14.9609 -17.9492 C 21.0059 -17.9492 25.8594 -13.0957 25.8691 -7.05078 C 25.8789 -1.01562 21.0156 3.84766 14.9707 3.84766 Z M 14.9414 -1.38672 C 15.5176 -1.38672 15.8594 -1.77734 15.8594 -2.38281 L 15.8594 -6.13281 L 19.7754 -6.13281 C 20.3711 -6.13281 20.7812 -6.46484 20.7812 -7.02148 C 20.7812 -7.59766 20.3906 -7.93945 19.7754 -7.93945 L 15.8594 -7.93945 L 15.8594 -11.8652 C 15.8594 -12.4805 15.5176 -12.8711 14.9414 -12.8711 C 14.375 -12.8711 14.0527 -12.4609 14.0527 -11.8652 L 14.0527 -7.93945 L 10.1465 -7.93945 C 9.53125 -7.93945 9.13086 -7.59766 9.13086 -7.02148 C 9.13086 -6.46484 9.55078 -6.13281 10.1465 -6.13281 L 14.0527 -6.13281 L 14.0527 -2.38281 C 14.0527 -1.79688 14.375 -1.38672 14.9414 -1.38672 Z"/>
  </g>
  <text style="stroke:none;fill:black;font-family:-apple-system,&quot;SF Pro Display&quot;,&quot;SF Pro Text&quot;,Helvetica,sans-serif;font-weight:bold;" transform="matrix(1 0 0 1 263 1953)">Design Variations</text>
  <text style="stroke:none;fill:black;font-family:-apple-system,&quot;SF Pro Display&quot;,&quot;SF Pro Text&quot;,Helvetica,sans-serif;" transform="matrix(1 0 0 1 263 1971)">Symbols are supported in up to nine weights and three scales.</text>
  <text style="stroke:none;fill:black;font-family:-apple-system,&quot;SF Pro Display&quot;,&quot;SF Pro Text&quot;,Helvetica,sans-serif;" transform="matrix(1 0 0 1 263 1989)">For optimal layout with text and other symbols, vertically align</text>
  <text style="stroke:none;fill:black;font-family:-apple-system,&quot;SF Pro Display&quot;,&quot;SF Pro Text&quot;,Helvetica,sans-serif;" transform="matrix(1 0 0 1 263 2007)">symbols with the adjacent text.</text>
  <line id="" style="fill:none;stroke:#00AEEF;stroke-width:0.5;opacity:1.0;" x1="776" x2="776" y1="1919" y2="1933"/>
  <g id="" transform="matrix(1 0 0 1 776 1933)">
   <path d="M 3.31055 0.126953 C 3.82812 0.126953 4.08203 -0.0683594 4.26758 -0.605469 L 5.52734 -4.0625 L 11.2891 -4.0625 L 12.5488 -0.605469 C 12.7344 -0.0683594 12.9883 0.126953 13.4961 0.126953 C 14.0137 0.126953 14.3457 -0.185547 14.3457 -0.673828 C 14.3457 -0.839844 14.3164 -0.986328 14.2383 -1.20117 L 9.6582 -13.3887 C 9.43359 -13.9941 9.0332 -14.2871 8.4082 -14.2871 C 7.80273 -14.2871 7.39258 -13.9941 7.17773 -13.3984 L 2.59766 -1.19141 C 2.51953 -0.976562 2.49023 -0.830078 2.49023 -0.664062 C 2.49023 -0.175781 2.80273 0.126953 3.31055 0.126953 Z M 6.00586 -5.53711 L 8.37891 -12.1094 L 8.42773 -12.1094 L 10.8008 -5.53711 Z"/>
  </g>
  <line id="" style="fill:none;stroke:#00AEEF;stroke-width:0.5;opacity:1.0;" x1="792.836" x2="792.836" y1="1919" y2="1933"/>
  <text style="stroke:none;fill:black;font-family:-apple-system,&quot;SF Pro Display&quot;,&quot;SF Pro Text&quot;,Helvetica,sans-serif;font-weight:bold;" transform="matrix(1 0 0 1 776 1953)">Margins</text>
  <text style="stroke:none;fill:black;font-family:-apple-system,&quot;SF Pro Display&quot;,&quot;SF Pro Text&quot;,Helvetica,sans-serif;" transform="matrix(1 0 0 1 776 1971)">Leading and trailing margins on the left and right side of each symbol</text>
  <text style="stroke:none;fill:black;font-family:-apple-system,&quot;SF Pro Display&quot;,&quot;SF Pro Text&quot;,Helvetica,sans-serif;" transform="matrix(1 0 0 1 776 1989)">can be adjusted by modifying the x-location of the margin guidelines.</text>
  <text style="stroke:none;fill:black;font-family:-apple-system,&quot;SF Pro Display&quot;,&quot;SF Pro Text&quot;,Helvetica,sans-serif;" transform="matrix(1 0 0 1 776 2007)">Modifications are automatically applied proportionally to all</text>
  <text style="stroke:none;fill:black;font-family:-apple-system,&quot;SF Pro Display&quot;,&quot;SF Pro Text&quot;,Helvetica,sans-serif;" transform="matrix(1 0 0 1 776 2025)">scales and weights.</text>
  <g id="" transform="matrix(1 0 0 1 1289 1933)">
   <path d="M 2.8418 1.86523 L 4.54102 3.57422 C 5.40039 4.44336 6.38672 4.38477 7.31445 3.35938 L 17.4902 -7.85156 C 17.7539 -7.76367 18.0273 -7.7832 18.3398 -7.8418 L 19.4043 -8.03711 L 20.0684 -7.36328 L 20.0293 -6.80664 C 19.9902 -6.30859 20.1172 -5.92773 20.6055 -5.44922 L 21.3672 -4.70703 C 21.8457 -4.22852 22.4609 -4.19922 22.9297 -4.66797 L 25.8398 -7.58789 C 26.3086 -8.05664 26.2891 -8.65234 25.8105 -9.13086 L 25.0391 -9.89258 C 24.5605 -10.3711 24.1895 -10.5273 23.7109 -10.4883 L 23.1348 -10.4395 L 22.4902 -11.0742 L 22.7344 -12.1973 C 22.8613 -12.7637 22.7051 -13.2031 22.1191 -13.7891 L 19.9219 -15.9766 C 16.582 -19.2969 12.1484 -19.2188 9.25781 -16.3281 C 8.83789 -15.918 8.80859 -15.3418 9.04297 -14.9512 C 9.27734 -14.5898 9.73633 -14.3555 10.3809 -14.5215 C 11.8457 -14.8633 13.3691 -14.9219 14.7949 -13.9844 L 14.209 -12.5293 C 14.0137 -12.0508 13.9844 -11.6504 14.1113 -11.2891 L 3.04688 -0.898438 C 2.06055 0.0195312 1.98242 0.996094 2.8418 1.86523 Z M 10.752 -15.957 C 13.1836 -17.7344 16.4746 -17.4316 18.7012 -15.2051 L 21.1328 -12.793 C 21.3672 -12.5586 21.4062 -12.373 21.3379 -12.0312 L 21.0156 -10.5469 L 22.5195 -9.0625 L 23.5059 -9.12109 C 23.7598 -9.13086 23.8379 -9.11133 24.0332 -8.91602 L 24.6094 -8.33984 L 22.168 -5.89844 L 21.5918 -6.47461 C 21.3965 -6.66992 21.3672 -6.74805 21.377 -7.01172 L 21.4453 -7.98828 L 19.9512 -9.47266 L 18.4277 -9.21875 C 18.1055 -9.15039 17.959 -9.17969 17.7148 -9.41406 L 15.7129 -11.416 C 15.459 -11.6504 15.4297 -11.8164 15.5859 -12.1875 L 16.4648 -14.2773 C 14.9023 -15.7324 12.8711 -16.3574 10.8398 -15.7617 C 10.6836 -15.7227 10.625 -15.8496 10.752 -15.957 Z M 5.27344 2.30469 L 4.10156 1.14258 C 3.63281 0.683594 3.74023 0.341797 4.14062 -0.0195312 L 14.9512 -10.1953 L 16.416 -8.71094 L 6.42578 2.27539 C 6.07422 2.67578 5.74219 2.77344 5.27344 2.30469 Z"/>
  </g>
  <text style="stroke:none;fill:black;font-family:-apple-system,&quot;SF Pro Display&quot;,&quot;SF Pro Text&quot;,Helvetica,sans-serif;font-weight:bold;" transform="matrix(1 0 0 1 1289 1953)">Exporting</text>
  <text style="stroke:none;fill:black;font-family:-apple-system,&quot;SF Pro Display&quot;,&quot;SF Pro Text&quot;,Helvetica,sans-serif;" transform="matrix(1 0 0 1 1289 1971)">Symbols should be outlined when exporting to ensure the</text>
  <text style="stroke:none;fill:black;font-family:-apple-system,&quot;SF Pro Display&quot;,&quot;SF Pro Text&quot;,Helvetica,sans-serif;" transform="matrix(1 0 0 1 1289 1989)">design is preserved when submitting to Xcode.</text>
  <text id="template-version" style="stroke:none;fill:black;font-family:-apple-system,&quot;SF Pro Display&quot;,&quot;SF Pro Text&quot;,Helvetica,sans-serif;text-anchor:end;" transform="matrix(1 0 0 1 3036 1933)">Template v.2.0</text>
  <text style="stroke:none;fill:black;font-family:-apple-system,&quot;SF Pro Display&quot;,&quot;SF Pro Text&quot;,Helvetica,sans-serif;text-anchor:end;" transform="matrix(1 0 0 1 3036 1951)">Requires Xcode 12 or greater</text>
  <text style="stroke:none;fill:black;font-family:-apple-system,&quot;SF Pro Display&quot;,&quot;SF Pro Text&quot;,Helvetica,sans-serif;text-anchor:end;" transform="matrix(1 0 0 1 3036 1969)">Generated from slider.horizontal.3</text>
  <text style="stroke:none;fill:black;font-family:-apple-system,&quot;SF Pro Display&quot;,&quot;SF Pro Text&quot;,Helvetica,sans-serif;text-anchor:end;" transform="matrix(1 0 0 1 3036 1987)">Typeset at 100 points</text>
  <text style="stroke:none;fill:black;font-family:-apple-system,&quot;SF Pro Display&quot;,&quot;SF Pro Text&quot;,Helvetica,sans-serif;" transform="matrix(1 0 0 1 263 726)">Small</text>
  <text style="stroke:none;fill:black;font-family:-apple-system,&quot;SF Pro Display&quot;,&quot;SF Pro Text&quot;,Helvetica,sans-serif;" transform="matrix(1 0 0 1 263 1156)">Medium</text>
  <text style="stroke:none;fill:black;font-family:-apple-system,&quot;SF Pro Display&quot;,&quot;SF Pro Text&quot;,Helvetica,sans-serif;" transform="matrix(1 0 0 1 263 1586)">Large</text>
 </g>
 <g id="Guides">
  <g id="H-reference" style="fill:#27AAE1;stroke:none;" transform="matrix(1 0 0 1 339 696)">
   <path d="M 0.976562 0 L 3.66211 0 L 12.9883 -24.4629 L 45.7031 -24.4629 L 55.0781 0 L 57.7148 0 L 30.6152 -70.459 L 28.125 -70.459 Z M 29.2969 -67.1387 L 29.3945 -67.1387 L 44.873 -26.709 L 13.8672 -26.709 Z"/>
  </g>
  <line id="Baseline-S" style="fill:none;stroke:#27AAE1;opacity:1;stroke-width:0.5;" x1="263" x2="3036" y1="696" y2="696"/>
  <line id="Capline-S" style="fill:none;stroke:#27AAE1;opacity:1;stroke-width:0.5;" x1="263" x2="3036" y1="625.541" y2="625.541"/>
  <g id="H-reference" style="fill:#27AAE1;stroke:none;" transform="matrix(1 0 0 1 339 1126)">
   <path d="M 0.976562 0 L 3.66211 0 L 12.9883 -24.4629 L 45.7031 -24.4629 L 55.0781 0 L 57.7148 0 L 30.6152 -70.459 L 28.125 -70.459 Z M 29.2969 -67.1387 L 29.3945 -67.1387 L 44.873 -26.709 L 13.8672 -26.709 Z"/>
  </g>
  <line id="Baseline-M" style="fill:none;stroke:#27AAE1;opacity:1;stroke-width:0.5;" x1="263" x2="3036" y1="1126" y2="1126"/>
  <line id="Capline-M" style="fill:none;stroke:#27AAE1;opacity:1;stroke-width:0.5;" x1="263" x2="3036" y1="1055.54" y2="1055.54"/>
  <g id="H-reference" style="fill:#27AAE1;stroke:none;" transform="matrix(1 0 0 1 339 1556)">
   <path d="M 0.976562 0 L 3.66211 0 L 12.9883 -24.4629 L 45.7031 -24.4629 L 55.0781 0 L 57.7148 0 L 30.6152 -70.459 L 28.125 -70.459 Z M 29.2969 -67.1387 L 29.3945 -67.1387 L 44.873 -26.709 L 13.8672 -26.709 Z"/>
  </g>
  <line id="Baseline-L" style="fill:none;stroke:#27AAE1;opacity:1;stroke-width:0.5;" x1="263" x2="3036" y1="1556" y2="1556"/>
  <line id="Capline-L" style="fill:none;stroke:#27AAE1;opacity:1;stroke-width:0.5;" x1="263" x2="3036" y1="1485.54" y2="1485.54"/>
  <line id="left-margin" style="fill:none;stroke:#00AEEF;stroke-width:0.5;opacity:1.0;" x1="1388.2" x2="1388.2" y1="1030.79" y2="1150.12"/>
  <line id="right-margin" style="fill:none;stroke:#00AEEF;stroke-width:0.5;opacity:1.0;" x1="1511.49" x2="1511.49" y1="1030.79" y2="1150.12"/>
 </g>
 <g id="Symbols">
  <g id="Black-L" transform="matrix(1 0 0 1 2847.17 1556)">
   <path d="M 112.109 -58.1055 C 119.775 -58.1055 126.416 -62.4512 129.785 -68.8477 L 147.559 -68.8477 C 152.49 -68.8477 156.396 -73.1934 156.396 -78.0762 C 156.396 -83.1543 152.539 -87.3047 147.559 -87.3047 L 129.785 -87.3047 C 126.416 -93.6523 119.775 -97.998 112.109 -97.998 C 104.443 -97.998 97.7539 -93.6523 94.4336 -87.3047 L 25 -87.3047 C 20.0195 -87.3047 16.0645 -83.0078 16.0645 -78.0762 C 16.0645 -73.291 20.0684 -68.8477 25 -68.8477 L 94.4336 -68.8477 C 97.7539 -62.4512 104.443 -58.1055 112.109 -58.1055 Z M 112.109 -69.2383 C 107.227 -69.2383 103.271 -73.1934 103.271 -78.0762 C 103.271 -83.1055 107.227 -86.9141 112.109 -86.9141 C 117.139 -86.9141 120.947 -83.1055 120.947 -78.0762 C 120.947 -73.1934 117.139 -69.2383 112.109 -69.2383 Z M 24.9512 -45.6055 C 20.0195 -45.6055 16.0645 -41.3086 16.0645 -36.377 C 16.0645 -31.5918 20.0684 -27.0996 24.9512 -27.0996 L 43.3594 -27.0996 C 46.6797 -20.752 53.3691 -16.4062 61.0352 -16.4062 C 68.6035 -16.4062 75.293 -20.752 78.6621 -27.0996 L 147.461 -27.0996 C 152.49 -27.0996 156.396 -31.4453 156.396 -36.377 C 156.396 -41.4062 152.539 -45.6055 147.461 -45.6055 L 78.7109 -45.6055 C 75.3418 -51.9531 68.6523 -56.2988 61.0352 -56.2988 C 53.3691 -56.2988 46.6797 -51.9531 43.3594 -45.6055 Z M 61.0352 -27.5391 C 56.1523 -27.5391 52.1973 -31.4941 52.1973 -36.377 C 52.1973 -41.3574 56.1523 -45.166 61.0352 -45.166 C 66.0156 -45.166 69.873 -41.3574 69.873 -36.377 C 69.873 -31.4941 66.0156 -27.5391 61.0352 -27.5391 Z M 112.109 25.293 C 119.775 25.293 126.416 20.9473 129.785 14.5996 L 147.559 14.5996 C 152.49 14.5996 156.396 10.2539 156.396 5.37109 C 156.396 0.292969 152.539 -3.90625 147.559 -3.90625 L 129.785 -3.90625 C 126.465 -10.2539 119.775 -14.5996 112.109 -14.5996 C 104.443 -14.5996 97.7539 -10.2539 94.4336 -3.90625 L 25 -3.90625 C 20.0195 -3.90625 16.0645 0.390625 16.0645 5.37109 C 16.0645 10.1562 20.0684 14.5996 25 14.5996 L 94.4336 14.5996 C 97.7539 20.9473 104.443 25.293 112.109 25.293 Z M 112.109 14.1602 C 107.227 14.1602 103.271 10.2051 103.271 5.37109 C 103.271 0.341797 107.227 -3.4668 112.109 -3.4668 C 117.139 -3.4668 120.947 0.341797 120.947 5.37109 C 120.947 10.2051 117.139 14.1602 112.109 14.1602 Z"/>
  </g>
  <g id="Heavy-L" transform="matrix(1 0 0 1 2552.19 1556)">
   <path d="M 109.766 -58.3496 C 117.139 -58.3496 123.535 -62.6953 126.562 -68.9453 L 145.166 -68.9453 C 149.463 -68.9453 152.93 -72.7051 152.93 -77.002 C 152.93 -81.4453 149.512 -85.1074 145.166 -85.1074 L 126.562 -85.1074 C 123.535 -91.3574 117.139 -95.7031 109.766 -95.7031 C 102.344 -95.7031 95.9473 -91.3574 92.9199 -85.1074 L 23.9258 -85.1074 C 19.5312 -85.1074 16.0645 -81.3477 16.0645 -77.002 C 16.0645 -72.8027 19.5801 -68.9453 23.9258 -68.9453 L 92.9199 -68.9453 C 95.9473 -62.6953 102.344 -58.3496 109.766 -58.3496 Z M 109.766 -68.5059 C 105.029 -68.5059 101.221 -72.3145 101.221 -77.0508 C 101.221 -81.8848 105.029 -85.5957 109.766 -85.5957 C 114.6 -85.5957 118.262 -81.8848 118.262 -77.0508 C 118.262 -72.3145 114.6 -68.5059 109.766 -68.5059 Z M 23.8281 -44.1406 C 19.5312 -44.1406 16.0645 -40.4297 16.0645 -36.084 C 16.0645 -31.8359 19.5801 -27.9785 23.8281 -27.9785 L 43.2129 -27.9785 C 46.2402 -21.7285 52.6367 -17.3828 60.0586 -17.3828 C 67.3828 -17.3828 73.8281 -21.7285 76.8555 -27.9785 L 145.068 -27.9785 C 149.463 -27.9785 152.93 -31.7383 152.93 -36.084 C 152.93 -40.5273 149.512 -44.1406 145.068 -44.1406 L 76.8555 -44.1406 C 73.8281 -50.3906 67.4316 -54.7363 60.0586 -54.7363 C 52.6367 -54.7363 46.2402 -50.3906 43.2129 -44.1406 Z M 60.0586 -27.4902 C 55.3223 -27.4902 51.5137 -31.3477 51.5137 -36.084 C 51.5137 -40.918 55.3223 -44.5801 60.0586 -44.5801 C 64.8926 -44.5801 68.6035 -40.918 68.6035 -36.084 C 68.6035 -31.3477 64.8926 -27.4902 60.0586 -27.4902 Z M 109.766 23.584 C 117.139 23.584 123.535 19.2383 126.562 12.9883 L 145.166 12.9883 C 149.463 12.9883 152.93 9.22852 152.93 4.88281 C 152.93 0.439453 149.512 -3.17383 145.166 -3.17383 L 126.562 -3.17383 C 123.535 -9.42383 117.139 -13.7695 109.766 -13.7695 C 102.344 -13.7695 95.9473 -9.42383 92.9199 -3.17383 L 23.9258 -3.17383 C 19.5312 -3.17383 16.0645 0.537109 16.0645 4.88281 C 16.0645 9.13086 19.5801 12.9883 23.9258 12.9883 L 92.9199 12.9883 C 95.9473 19.2383 102.344 23.584 109.766 23.584 Z M 109.766 13.4277 C 105.029 13.4277 101.221 9.61914 101.221 4.88281 C 101.221 0.0488281 105.029 -3.66211 109.766 -3.66211 C 114.6 -3.66211 118.262 0.0488281 118.262 4.88281 C 118.262 9.61914 114.6 13.4277 109.766 13.4277 Z"/>
  </g>
  <g id="Bold-L" transform="matrix(1 0 0 1 2257.43 1556)">
   <path d="M 107.129 -58.6426 C 114.16 -58.6426 120.264 -62.9395 122.949 -69.043 L 142.529 -69.043 C 146.094 -69.043 149.023 -72.168 149.023 -75.8301 C 149.023 -79.5898 146.143 -82.6172 142.529 -82.6172 L 122.949 -82.6172 C 120.312 -88.7695 114.209 -93.1152 107.129 -93.1152 C 100 -93.1152 93.8965 -88.7695 91.2598 -82.6172 L 22.7051 -82.6172 C 18.9941 -82.6172 16.0645 -79.541 16.0645 -75.8301 C 16.0645 -72.2168 18.9941 -69.043 22.7051 -69.043 L 91.2598 -69.043 C 93.9453 -62.9395 100.049 -58.6426 107.129 -58.6426 Z M 107.129 -67.627 C 102.539 -67.627 98.877 -71.3379 98.877 -75.8789 C 98.877 -80.5176 102.539 -84.082 107.129 -84.082 C 111.768 -84.082 115.332 -80.5176 115.332 -75.8789 C 115.332 -71.3379 111.768 -67.627 107.129 -67.627 Z M 22.5586 -42.5293 C 18.9941 -42.5293 16.0645 -39.4043 16.0645 -35.7422 C 16.0645 -32.1289 18.9941 -28.9551 22.5586 -28.9551 L 43.1152 -28.9551 C 45.752 -22.8027 51.8555 -18.457 58.9355 -18.457 C 65.9668 -18.457 72.1191 -22.8027 74.8047 -28.9551 L 142.383 -28.9551 C 146.094 -28.9551 149.023 -32.0801 149.023 -35.7422 C 149.023 -39.4531 146.143 -42.5293 142.383 -42.5293 L 74.7559 -42.5293 C 72.1191 -48.6328 66.0156 -52.9297 58.9355 -52.9297 C 51.8555 -52.9297 45.752 -48.6328 43.1152 -42.5293 Z M 58.9355 -27.4902 C 54.3945 -27.4902 50.7324 -31.1523 50.7324 -35.7422 C 50.7324 -40.3809 54.3945 -43.9453 58.9355 -43.9453 C 63.5742 -43.9453 67.1387 -40.3809 67.1387 -35.7422 C 67.1387 -31.1523 63.5742 -27.4902 58.9355 -27.4902 Z M 107.129 21.6309 C 114.209 21.6309 120.312 17.334 122.949 11.1816 L 142.529 11.1816 C 146.094 11.1816 149.023 8.05664 149.023 4.39453 C 149.023 0.634766 146.143 -2.39258 142.529 -2.39258 L 122.949 -2.39258 C 120.312 -8.54492 114.209 -12.8418 107.129 -12.8418 C 100.049 -12.8418 93.9453 -8.54492 91.2598 -2.39258 L 22.7051 -2.39258 C 18.9941 -2.39258 16.0645 0.683594 16.0645 4.39453 C 16.0645 7.95898 18.9941 11.1816 22.7051 11.1816 L 91.2598 11.1816 C 93.8965 17.334 100 21.6309 107.129 21.6309 Z M 107.129 12.5977 C 102.539 12.5977 98.877 8.93555 98.877 4.39453 C 98.877 -0.292969 102.539 -3.85742 107.129 -3.85742 C 111.768 -3.85742 115.332 -0.292969 115.332 4.39453 C 115.332 8.93555 111.768 12.5977 107.129 12.5977 Z"/>
  </g>
  <g id="Semibold-L" transform="matrix(1 0 0 1 1962.07 1556)">
   <path d="M 105.273 -58.7891 C 112.158 -58.7891 118.018 -63.0859 120.41 -69.1406 L 140.723 -69.1406 C 143.799 -69.1406 146.338 -71.8262 146.338 -75 C 146.338 -78.2715 143.799 -80.9082 140.723 -80.9082 L 120.459 -80.9082 C 118.066 -86.9629 112.158 -91.3086 105.273 -91.3086 C 98.3887 -91.3086 92.4805 -86.9629 90.1367 -80.9082 L 21.875 -80.9082 C 18.6035 -80.9082 16.0645 -78.2227 16.0645 -75 C 16.0645 -71.875 18.6523 -69.1406 21.875 -69.1406 L 90.1855 -69.1406 C 92.5293 -63.0859 98.4375 -58.7891 105.273 -58.7891 Z M 105.273 -67.0898 C 100.83 -67.0898 97.3145 -70.6543 97.3145 -75.0977 C 97.3145 -79.5898 100.83 -83.0566 105.273 -83.0566 C 109.814 -83.0566 113.281 -79.5898 113.281 -75.0977 C 113.281 -70.6543 109.814 -67.0898 105.273 -67.0898 Z M 21.6797 -41.4062 C 18.6035 -41.4062 16.0645 -38.7207 16.0645 -35.498 C 16.0645 -32.3242 18.6523 -29.5898 21.6797 -29.5898 L 43.0176 -29.5898 C 45.4102 -23.5352 51.3184 -19.2383 58.2031 -19.2383 C 65.0391 -19.2383 70.9473 -23.5352 73.3398 -29.5898 L 140.527 -29.5898 C 143.799 -29.5898 146.338 -32.2754 146.338 -35.498 C 146.338 -38.7695 143.799 -41.4062 140.527 -41.4062 L 73.3398 -41.4062 C 70.9473 -47.4121 65.0391 -51.709 58.2031 -51.709 C 51.3184 -51.709 45.4102 -47.4121 43.0664 -41.4062 Z M 58.2031 -27.4902 C 53.7109 -27.4902 50.1953 -31.0547 50.1953 -35.498 C 50.1953 -40.0391 53.7109 -43.5059 58.2031 -43.5059 C 62.6953 -43.5059 66.1621 -40.0391 66.1621 -35.498 C 66.1621 -31.0547 62.6953 -27.4902 58.2031 -27.4902 Z M 105.273 20.3125 C 112.158 20.3125 118.066 15.9668 120.459 9.91211 L 140.723 9.91211 C 143.799 9.91211 146.338 7.22656 146.338 4.00391 C 146.338 0.78125 143.799 -1.85547 140.723 -1.85547 L 120.41 -1.85547 C 118.066 -7.91016 112.158 -12.207 105.273 -12.207 C 98.4375 -12.207 92.5293 -7.91016 90.1367 -1.85547 L 21.875 -1.85547 C 18.6035 -1.85547 16.0645 0.78125 16.0645 4.00391 C 16.0645 7.17773 18.6523 9.91211 21.875 9.91211 L 90.1367 9.91211 C 92.4805 15.9668 98.4375 20.3125 105.273 20.3125 Z M 105.273 12.0605 C 100.83 12.0605 97.3145 8.49609 97.3145 4.00391 C 97.3145 -0.488281 100.83 -3.95508 105.273 -3.95508 C 109.814 -3.95508 113.281 -0.488281 113.281 4.00391 C 113.281 8.49609 109.814 12.0605 105.273 12.0605 Z"/>
  </g>
  <g id="Medium-L" transform="matrix(1 0 0 1 1666.38 1556)">
   <path d="M 103.906 -58.9355 C 110.596 -58.9355 116.309 -63.2324 118.506 -69.1895 L 139.307 -69.1895 C 142.041 -69.1895 144.287 -71.5332 144.287 -74.4141 C 144.287 -77.2949 142.041 -79.6387 139.307 -79.6387 L 118.506 -79.6387 C 116.406 -85.6445 110.645 -89.9414 103.906 -89.9414 C 97.168 -89.9414 91.4551 -85.6445 89.3066 -79.6387 L 21.2402 -79.6387 C 18.3594 -79.6387 16.0645 -77.2949 16.0645 -74.4141 C 16.0645 -71.582 18.3594 -69.1895 21.2402 -69.1895 L 89.3555 -69.1895 C 91.5039 -63.2324 97.2168 -58.9355 103.906 -58.9355 Z M 103.906 -66.6504 C 99.5605 -66.6504 96.0938 -70.1172 96.0938 -74.4629 C 96.0938 -78.9062 99.5605 -82.3242 103.906 -82.3242 C 108.35 -82.3242 111.719 -78.9062 111.719 -74.4629 C 111.719 -70.1172 108.35 -66.6504 103.906 -66.6504 Z M 21.0449 -40.5273 C 18.3594 -40.5273 16.0645 -38.1836 16.0645 -35.3027 C 16.0645 -32.4707 18.3594 -30.127 21.0449 -30.127 L 43.0176 -30.127 C 45.166 -24.1211 50.8789 -19.7754 57.6172 -19.7754 C 64.3066 -19.7754 70.0684 -24.1211 72.2168 -30.127 L 139.16 -30.127 C 142.041 -30.127 144.287 -32.4707 144.287 -35.3027 C 144.287 -38.2324 142.041 -40.5273 139.16 -40.5273 L 72.2168 -40.5273 C 70.0195 -46.4844 64.3066 -50.7812 57.6172 -50.7812 C 50.9277 -50.7812 45.166 -46.4844 43.0176 -40.5273 Z M 57.6172 -27.4902 C 53.2227 -27.4902 49.8047 -30.957 49.8047 -35.3027 C 49.8047 -39.7461 53.2227 -43.1641 57.6172 -43.1641 C 62.0117 -43.1641 65.4297 -39.7461 65.4297 -35.3027 C 65.4297 -30.957 62.0117 -27.4902 57.6172 -27.4902 Z M 103.906 19.2871 C 110.645 19.2871 116.357 14.9902 118.506 8.98438 L 139.307 8.98438 C 142.041 8.98438 144.287 6.64062 144.287 3.75977 C 144.287 0.878906 142.041 -1.46484 139.307 -1.46484 L 118.506 -1.46484 C 116.357 -7.42188 110.596 -11.7188 103.906 -11.7188 C 97.2168 -11.7188 91.5039 -7.42188 89.3066 -1.46484 L 21.2402 -1.46484 C 18.3594 -1.46484 16.0645 0.878906 16.0645 3.75977 C 16.0645 6.5918 18.3594 8.98438 21.2402 8.98438 L 89.3066 8.98438 C 91.4551 14.9902 97.2168 19.2871 103.906 19.2871 Z M 103.906 11.6211 C 99.5605 11.6211 96.0938 8.10547 96.0938 3.75977 C 96.0938 -0.683594 99.5605 -4.05273 103.906 -4.05273 C 108.35 -4.05273 111.719 -0.683594 111.719 3.75977 C 111.719 8.10547 108.35 11.6211 103.906 11.6211 Z"/>
  </g>
  <g id="Regular-L" transform="matrix(1 0 0 1 1370.99 1556)">
   <path d="M 102.1 -59.1309 C 108.594 -59.1309 114.111 -63.4277 115.967 -69.2871 L 137.5 -69.2871 C 139.746 -69.2871 141.65 -71.1914 141.65 -73.584 C 141.65 -76.0254 139.746 -77.9297 137.5 -77.9297 L 116.016 -77.9297 C 114.16 -83.8379 108.643 -88.1836 102.1 -88.1836 C 95.6055 -88.1836 90.0391 -83.8379 88.2324 -77.9297 L 20.4102 -77.9297 C 17.9688 -77.9297 16.0645 -76.0254 16.0645 -73.584 C 16.0645 -71.1914 17.9688 -69.2871 20.4102 -69.2871 L 88.2812 -69.2871 C 90.1367 -63.4277 95.6543 -59.1309 102.1 -59.1309 Z M 102.1 -66.0645 C 97.8516 -66.0645 94.5312 -69.4336 94.5312 -73.6816 C 94.5312 -77.9785 97.8516 -81.2988 102.1 -81.2988 C 106.396 -81.2988 109.717 -77.9785 109.717 -73.6816 C 109.717 -69.4336 106.396 -66.0645 102.1 -66.0645 Z M 20.2148 -39.4043 C 17.9688 -39.4043 16.0645 -37.5 16.0645 -35.1074 C 16.0645 -32.666 17.9688 -30.7617 20.2148 -30.7617 L 42.9688 -30.7617 C 44.8242 -24.8535 50.3418 -20.5566 56.8359 -20.5566 C 63.3301 -20.5566 68.8965 -24.8535 70.752 -30.7617 L 137.305 -30.7617 C 139.746 -30.7617 141.65 -32.666 141.65 -35.1074 C 141.65 -37.5 139.746 -39.4043 137.305 -39.4043 L 70.7031 -39.4043 C 68.8477 -45.3125 63.3301 -49.6094 56.8359 -49.6094 C 50.3906 -49.6094 44.873 -45.3125 43.0176 -39.4043 Z M 56.8359 -27.4414 C 52.5879 -27.4414 49.2676 -30.8594 49.2676 -35.1074 C 49.2676 -39.4043 52.5879 -42.7246 56.8359 -42.7246 C 61.1328 -42.7246 64.4531 -39.4043 64.4531 -35.1074 C 64.4531 -30.8594 61.1328 -27.4414 56.8359 -27.4414 Z M 102.1 17.9688 C 108.594 17.9688 114.16 13.623 115.967 7.71484 L 137.5 7.71484 C 139.746 7.71484 141.65 5.81055 141.65 3.41797 C 141.65 0.976562 139.746 -0.927734 137.5 -0.927734 L 115.967 -0.927734 C 114.111 -6.78711 108.594 -11.084 102.1 -11.084 C 95.6543 -11.084 90.1367 -6.78711 88.2812 -0.927734 L 20.4102 -0.927734 C 17.9688 -0.927734 16.0645 0.976562 16.0645 3.41797 C 16.0645 5.81055 17.9688 7.71484 20.4102 7.71484 L 88.2324 7.71484 C 90.0879 13.623 95.6055 17.9688 102.1 17.9688 Z M 102.1 11.0352 C 97.8516 11.0352 94.5312 7.66602 94.5312 3.41797 C 94.5312 -0.878906 97.8516 -4.19922 102.1 -4.19922 C 106.396 -4.19922 109.717 -0.878906 109.717 3.41797 C 109.717 7.66602 106.396 11.0352 102.1 11.0352 Z"/>
  </g>
  <g id="Light-L" transform="matrix(1 0 0 1 1075.2 1556)">
   <path d="M 102.1 -59.9609 C 108.447 -59.9609 113.867 -64.3555 115.381 -70.2637 L 136.621 -70.2637 C 138.33 -70.2637 139.795 -71.7285 139.795 -73.584 C 139.795 -75.4395 138.33 -76.9043 136.621 -76.9043 L 115.43 -76.9043 C 113.965 -82.8613 108.545 -87.3535 102.1 -87.3535 C 95.7031 -87.3535 90.2344 -82.8613 88.8184 -76.9043 L 19.3848 -76.9043 C 17.5293 -76.9043 16.0645 -75.4395 16.0645 -73.584 C 16.0645 -71.7285 17.5293 -70.2637 19.3848 -70.2637 L 88.8672 -70.2637 C 90.3809 -64.3555 95.752 -59.9609 102.1 -59.9609 Z M 102.1 -65.7715 C 97.6562 -65.7715 94.1895 -69.2871 94.1895 -73.7305 C 94.1895 -78.1738 97.6562 -81.6406 102.1 -81.6406 C 106.592 -81.6406 110.01 -78.1738 110.01 -73.7305 C 110.01 -69.2871 106.592 -65.7715 102.1 -65.7715 Z M 19.2383 -38.3301 C 17.5293 -38.3301 16.0645 -36.8652 16.0645 -35.0586 C 16.0645 -33.2031 17.5293 -31.7383 19.2383 -31.7383 L 42.4805 -31.7383 C 43.9453 -25.7812 49.3652 -21.2891 55.7617 -21.2891 C 62.1582 -21.2891 67.5781 -25.7812 69.043 -31.7383 L 136.475 -31.7383 C 138.33 -31.7383 139.795 -33.2031 139.795 -35.0586 C 139.795 -36.8652 138.33 -38.3301 136.475 -38.3301 L 69.043 -38.3301 C 67.5293 -44.2871 62.1582 -48.6816 55.7617 -48.6816 C 49.4141 -48.6816 43.9941 -44.2871 42.4805 -38.3301 Z M 55.7617 -27.0508 C 51.3184 -27.0508 47.8516 -30.6152 47.8516 -35.0586 C 47.8516 -39.502 51.3184 -42.9688 55.7617 -42.9688 C 60.2539 -42.9688 63.6719 -39.502 63.6719 -35.0586 C 63.6719 -30.6152 60.2539 -27.0508 55.7617 -27.0508 Z M 102.1 17.2363 C 108.496 17.2363 113.916 12.793 115.43 6.78711 L 136.621 6.78711 C 138.33 6.78711 139.795 5.32227 139.795 3.51562 C 139.795 1.66016 138.33 0.195312 136.621 0.195312 L 115.381 0.195312 C 113.867 -5.71289 108.496 -10.1562 102.1 -10.1562 C 95.752 -10.1562 90.332 -5.71289 88.8184 0.195312 L 19.3848 0.195312 C 17.5293 0.195312 16.0645 1.66016 16.0645 3.51562 C 16.0645 5.32227 17.5293 6.78711 19.3848 6.78711 L 88.8184 6.78711 C 90.2832 12.793 95.7031 17.2363 102.1 17.2363 Z M 102.1 11.4746 C 97.6562 11.4746 94.1895 7.91016 94.1895 3.51562 C 94.1895 -0.976562 97.6562 -4.44336 102.1 -4.44336 C 106.592 -4.44336 110.01 -0.976562 110.01 3.51562 C 110.01 7.91016 106.592 11.4746 102.1 11.4746 Z"/>
  </g>
  <g id="Thin-L" transform="matrix(1 0 0 1 779.713 1556)">
   <path d="M 102.1 -61.084 C 108.301 -61.084 113.525 -65.6738 114.551 -71.582 L 135.4 -71.582 C 136.475 -71.582 137.354 -72.4609 137.354 -73.5352 C 137.354 -74.6582 136.475 -75.5371 135.4 -75.5371 L 114.6 -75.5371 C 113.672 -81.5918 108.398 -86.2793 102.1 -86.2793 C 95.8008 -86.2793 90.5273 -81.5918 89.6484 -75.5371 L 18.0176 -75.5371 C 16.9434 -75.5371 16.0645 -74.6582 16.0645 -73.5352 C 16.0645 -72.4609 16.9434 -71.582 18.0176 -71.582 L 89.6973 -71.582 C 90.7227 -65.6738 95.8984 -61.084 102.1 -61.084 Z M 102.1 -65.3809 C 97.4121 -65.3809 93.7988 -69.0918 93.7988 -73.7793 C 93.7988 -78.4668 97.4121 -82.1289 102.1 -82.1289 C 106.787 -82.1289 110.449 -78.4668 110.449 -73.7793 C 110.449 -69.0918 106.787 -65.3809 102.1 -65.3809 Z M 18.0176 -36.9141 C 16.9434 -36.9141 16.0645 -36.0352 16.0645 -34.9609 C 16.0645 -33.8867 16.9434 -33.0078 18.0176 -33.0078 L 41.8945 -33.0078 C 42.7734 -26.9531 48.0469 -22.3145 54.3457 -22.3145 C 60.5957 -22.3145 65.8691 -26.9531 66.7969 -33.0078 L 135.4 -33.0078 C 136.475 -33.0078 137.354 -33.8867 137.354 -34.9609 C 137.354 -36.0352 136.475 -36.9141 135.4 -36.9141 L 66.748 -36.9141 C 65.7715 -42.8711 60.5469 -47.5098 54.3457 -47.5098 C 48.0957 -47.5098 42.8711 -42.8711 41.8945 -36.9141 Z M 54.3457 -26.5625 C 49.6582 -26.5625 45.9961 -30.2734 45.9961 -34.9609 C 45.9961 -39.6484 49.6582 -43.3105 54.3457 -43.3105 C 59.0332 -43.3105 62.6465 -39.6484 62.6465 -34.9609 C 62.6465 -30.2734 59.0332 -26.5625 54.3457 -26.5625 Z M 102.1 16.3086 C 108.398 16.3086 113.623 11.6211 114.551 5.56641 L 135.4 5.56641 C 136.475 5.56641 137.354 4.6875 137.354 3.61328 C 137.354 2.53906 136.475 1.66016 135.4 1.66016 L 114.551 1.66016 C 113.574 -4.29688 108.35 -8.88672 102.1 -8.88672 C 95.8984 -8.88672 90.6738 -4.29688 89.6973 1.66016 L 18.0176 1.66016 C 16.9434 1.66016 16.0645 2.53906 16.0645 3.61328 C 16.0645 4.6875 16.9434 5.56641 18.0176 5.56641 L 89.6484 5.56641 C 90.5762 11.6211 95.8496 16.3086 102.1 16.3086 Z M 102.1 12.0117 C 97.4121 12.0117 93.7988 8.30078 93.7988 3.61328 C 93.7988 -1.07422 97.4121 -4.73633 102.1 -4.73633 C 106.787 -4.73633 110.449 -1.07422 110.449 3.61328 C 110.449 8.30078 106.787 12.0117 102.1 12.0117 Z"/>
  </g>
  <g id="Ultralight-L" transform="matrix(1 0 0 1 483.637 1556)">
   <path d="M 102.1 -61.6699 C 108.203 -61.6699 113.33 -66.3574 114.062 -72.2656 L 134.766 -72.2656 C 135.498 -72.2656 136.084 -72.8516 136.084 -73.5352 C 136.084 -74.2188 135.498 -74.8047 134.766 -74.8047 L 114.111 -74.8047 C 113.525 -80.9082 108.35 -85.7422 102.1 -85.7422 C 95.8984 -85.7422 90.7227 -80.9082 90.1367 -74.8047 L 17.334 -74.8047 C 16.6504 -74.8047 16.0645 -74.2188 16.0645 -73.5352 C 16.0645 -72.8516 16.6504 -72.2656 17.334 -72.2656 L 90.1855 -72.2656 C 90.918 -66.3574 95.9961 -61.6699 102.1 -61.6699 Z M 102.1 -65.1855 C 97.3145 -65.1855 93.5547 -68.9941 93.5547 -73.7793 C 93.5547 -78.6133 97.3145 -82.373 102.1 -82.373 C 106.934 -82.373 110.645 -78.6133 110.645 -73.7793 C 110.645 -68.9941 106.934 -65.1855 102.1 -65.1855 Z M 17.3828 -36.1816 C 16.6504 -36.1816 16.0645 -35.6445 16.0645 -34.9121 C 16.0645 -34.2285 16.6504 -33.6426 17.3828 -33.6426 L 41.6016 -33.6426 C 42.2363 -27.5879 47.3633 -22.8027 53.5645 -22.8027 C 59.7656 -22.8027 64.9414 -27.5879 65.5762 -33.6426 L 134.814 -33.6426 C 135.498 -33.6426 136.084 -34.2285 136.084 -34.9121 C 136.084 -35.6445 135.498 -36.1816 134.814 -36.1816 L 65.5273 -36.1816 C 64.8438 -42.1875 59.7168 -46.875 53.5645 -46.875 C 47.4609 -46.875 42.334 -42.1875 41.6504 -36.1816 Z M 53.5645 -26.3184 C 48.7793 -26.3184 45.0195 -30.127 45.0195 -34.9121 C 45.0195 -39.7461 48.7793 -43.457 53.5645 -43.457 C 58.3984 -43.457 62.1094 -39.7461 62.1094 -34.9121 C 62.1094 -30.127 58.3984 -26.3184 53.5645 -26.3184 Z M 102.1 15.8203 C 108.301 15.8203 113.477 11.0352 114.062 4.98047 L 134.766 4.98047 C 135.498 4.98047 136.084 4.39453 136.084 3.66211 C 136.084 2.97852 135.498 2.39258 134.766 2.39258 L 114.062 2.39258 C 113.379 -3.56445 108.252 -8.25195 102.1 -8.25195 C 95.9473 -8.25195 90.8691 -3.56445 90.1367 2.39258 L 17.334 2.39258 C 16.6504 2.39258 16.0645 2.97852 16.0645 3.66211 C 16.0645 4.39453 16.6504 4.98047 17.334 4.98047 L 90.1367 4.98047 C 90.7715 11.0352 95.8984 15.8203 102.1 15.8203 Z M 102.1 12.3047 C 97.3145 12.3047 93.5547 8.49609 93.5547 3.66211 C 93.5547 -1.12305 97.3145 -4.88281 102.1 -4.88281 C 106.934 -4.88281 110.645 -1.12305 110.645 3.66211 C 110.645 8.49609 106.934 12.3047 102.1 12.3047 Z"/>
  </g>
  <g id="Black-M" transform="matrix(1 0 0 1 2864.7 1126)">
   <path d="M 90.0391 -53.0762 C 96.2891 -53.0762 101.758 -56.543 104.639 -61.6699 L 117.09 -61.6699 C 121.484 -61.6699 124.951 -65.5762 124.951 -69.8242 C 124.951 -74.3164 121.533 -78.0273 117.09 -78.0273 L 104.639 -78.0273 C 101.758 -83.1055 96.2891 -86.5723 90.0391 -86.5723 C 83.7891 -86.5723 78.3203 -83.1055 75.4395 -78.0273 L 20.3125 -78.0273 C 15.918 -78.0273 12.4512 -74.1699 12.4512 -69.8242 C 12.4512 -65.6738 15.9668 -61.6699 20.3125 -61.6699 L 75.4395 -61.6699 C 78.3203 -56.543 83.7891 -53.0762 90.0391 -53.0762 Z M 90.0391 -62.4512 C 85.9863 -62.4512 82.666 -65.7715 82.666 -69.8242 C 82.666 -74.0234 85.9863 -77.2461 90.0391 -77.2461 C 94.2383 -77.2461 97.4609 -74.0234 97.4609 -69.8242 C 97.4609 -65.7715 94.2383 -62.4512 90.0391 -62.4512 Z M 20.3125 -44.6777 C 15.918 -44.6777 12.4512 -40.8203 12.4512 -36.4746 C 12.4512 -32.3242 15.9668 -28.2715 20.3125 -28.2715 L 33.4473 -28.2715 C 36.3281 -23.1934 41.7969 -19.7266 48.0469 -19.7266 C 54.1992 -19.7266 59.7168 -23.1934 62.5977 -28.2715 L 117.09 -28.2715 C 121.484 -28.2715 124.951 -32.1777 124.951 -36.4746 C 124.951 -40.9668 121.533 -44.6777 117.09 -44.6777 L 62.6465 -44.6777 C 59.7656 -49.7559 54.2969 -53.2227 48.0469 -53.2227 C 41.7969 -53.2227 36.3281 -49.7559 33.4473 -44.6777 Z M 48.0469 -29.0527 C 43.9453 -29.0527 40.625 -32.4219 40.625 -36.4746 C 40.625 -40.6738 43.9453 -43.8965 48.0469 -43.8965 C 52.2461 -43.8965 55.4199 -40.6738 55.4199 -36.4746 C 55.4199 -32.4219 52.2461 -29.0527 48.0469 -29.0527 Z M 90.0391 13.623 C 96.2891 13.623 101.758 10.1562 104.639 5.07812 L 117.09 5.07812 C 121.484 5.07812 124.951 1.17188 124.951 -3.125 C 124.951 -7.56836 121.533 -11.2793 117.09 -11.2793 L 104.688 -11.2793 C 101.807 -16.4062 96.3379 -19.873 90.0391 -19.873 C 83.7891 -19.873 78.3203 -16.4062 75.4395 -11.2793 L 20.3125 -11.2793 C 15.918 -11.2793 12.4512 -7.4707 12.4512 -3.125 C 12.4512 1.02539 15.9668 5.07812 20.3125 5.07812 L 75.4395 5.07812 C 78.3203 10.1562 83.7891 13.623 90.0391 13.623 Z M 90.0391 4.29688 C 85.9863 4.29688 82.666 0.976562 82.666 -3.125 C 82.666 -7.32422 85.9863 -10.498 90.0391 -10.498 C 94.2383 -10.498 97.4609 -7.32422 97.4609 -3.125 C 97.4609 0.976562 94.2383 4.29688 90.0391 4.29688 Z"/>
  </g>
  <g id="Heavy-M" transform="matrix(1 0 0 1 2569.65 1126)">
   <path d="M 87.5 -53.125 C 93.457 -53.125 98.6816 -56.543 101.27 -61.5234 L 114.697 -61.5234 C 118.555 -61.5234 121.631 -64.8926 121.631 -68.7012 C 121.631 -72.6074 118.604 -75.8789 114.697 -75.8789 L 101.27 -75.8789 C 98.6816 -80.8594 93.457 -84.2773 87.5 -84.2773 C 81.4941 -84.2773 76.2695 -80.8594 73.6816 -75.8789 L 19.3848 -75.8789 C 15.5273 -75.8789 12.4512 -72.5098 12.4512 -68.7012 C 12.4512 -64.9902 15.5762 -61.5234 19.3848 -61.5234 L 73.6816 -61.5234 C 76.2695 -56.543 81.4941 -53.125 87.5 -53.125 Z M 87.5 -61.7188 C 83.5938 -61.7188 80.4688 -64.8438 80.4688 -68.7012 C 80.4688 -72.6562 83.5938 -75.6836 87.5 -75.6836 C 91.4551 -75.6836 94.4824 -72.6562 94.4824 -68.7012 C 94.4824 -64.8438 91.4551 -61.7188 87.5 -61.7188 Z M 19.3359 -43.3594 C 15.5273 -43.3594 12.4512 -39.9902 12.4512 -36.1816 C 12.4512 -32.4707 15.5762 -29.0039 19.3359 -29.0039 L 33.4473 -29.0039 C 36.0352 -24.0234 41.2598 -20.6055 47.2656 -20.6055 C 53.1738 -20.6055 58.3984 -24.0234 61.0352 -29.0039 L 114.648 -29.0039 C 118.555 -29.0039 121.631 -32.373 121.631 -36.1816 C 121.631 -40.0879 118.604 -43.3594 114.648 -43.3594 L 61.0352 -43.3594 C 58.4473 -48.3398 53.2227 -51.709 47.2656 -51.709 C 41.2598 -51.709 36.0352 -48.3398 33.4473 -43.3594 Z M 47.2656 -29.1504 C 43.3594 -29.1504 40.2344 -32.2754 40.2344 -36.1816 C 40.2344 -40.1367 43.3594 -43.1641 47.2656 -43.1641 C 51.2207 -43.1641 54.248 -40.1367 54.248 -36.1816 C 54.248 -32.2754 51.2207 -29.1504 47.2656 -29.1504 Z M 87.5 11.9141 C 93.457 11.9141 98.6816 8.54492 101.27 3.56445 L 114.697 3.56445 C 118.555 3.56445 121.631 0.146484 121.631 -3.61328 C 121.631 -7.56836 118.604 -10.8398 114.697 -10.8398 L 101.27 -10.8398 C 98.6816 -15.7715 93.5059 -19.1895 87.5 -19.1895 C 81.4941 -19.1895 76.2695 -15.7715 73.6816 -10.8398 L 19.3848 -10.8398 C 15.5273 -10.8398 12.4512 -7.4707 12.4512 -3.61328 C 12.4512 0.0488281 15.5762 3.56445 19.3848 3.56445 L 73.6816 3.56445 C 76.2695 8.54492 81.4941 11.9141 87.5 11.9141 Z M 87.5 3.36914 C 83.5938 3.36914 80.4688 0.244141 80.4688 -3.61328 C 80.4688 -7.61719 83.5938 -10.6445 87.5 -10.6445 C 91.4551 -10.6445 94.4824 -7.61719 94.4824 -3.61328 C 94.4824 0.244141 91.4551 3.36914 87.5 3.36914 Z"/>
  </g>
  <g id="Bold-M" transform="matrix(1 0 0 1 2274.82 1126)">
   <path d="M 84.6191 -53.1738 C 90.2832 -53.1738 95.166 -56.543 97.4609 -61.3281 L 112.061 -61.3281 C 115.283 -61.3281 117.871 -64.1602 117.871 -67.4316 C 117.871 -70.752 115.332 -73.4863 112.061 -73.4863 L 97.4609 -73.4863 C 95.2148 -78.3203 90.2832 -81.6406 84.6191 -81.6406 C 78.9062 -81.6406 73.9746 -78.3203 71.7285 -73.4863 L 18.3594 -73.4863 C 15.0391 -73.4863 12.4512 -70.7031 12.4512 -67.4316 C 12.4512 -64.2578 15.0879 -61.3281 18.3594 -61.3281 L 71.7285 -61.3281 C 74.0234 -56.543 78.9062 -53.1738 84.6191 -53.1738 Z M 84.6191 -60.8887 C 80.957 -60.8887 78.0273 -63.8184 78.0273 -67.4316 C 78.0273 -71.1426 80.957 -73.9746 84.6191 -73.9746 C 88.3301 -73.9746 91.1621 -71.1426 91.1621 -67.4316 C 91.1621 -63.8184 88.3301 -60.8887 84.6191 -60.8887 Z M 18.2617 -41.8945 C 15.0391 -41.8945 12.4512 -39.0625 12.4512 -35.8398 C 12.4512 -32.666 15.0879 -29.7363 18.2617 -29.7363 L 33.4961 -29.7363 C 35.7422 -24.9512 40.6738 -21.582 46.3379 -21.582 C 52.002 -21.582 56.9336 -24.9512 59.2285 -29.7363 L 111.963 -29.7363 C 115.283 -29.7363 117.871 -32.5684 117.871 -35.8398 C 117.871 -39.1602 115.332 -41.8945 111.963 -41.8945 L 59.2285 -41.8945 C 56.9336 -46.6797 52.0508 -50.0488 46.3379 -50.0488 C 40.6738 -50.0488 35.791 -46.6797 33.4961 -41.8945 Z M 46.3379 -29.248 C 42.7246 -29.248 39.7949 -32.1777 39.7949 -35.8398 C 39.7949 -39.5508 42.7246 -42.3828 46.3379 -42.3828 C 50.0977 -42.3828 52.9297 -39.5508 52.9297 -35.8398 C 52.9297 -32.1777 50.0977 -29.248 46.3379 -29.248 Z M 84.6191 10.0098 C 90.2832 10.0098 95.2148 6.64062 97.4609 1.85547 L 112.061 1.85547 C 115.283 1.85547 117.871 -0.976562 117.871 -4.24805 C 117.871 -7.56836 115.332 -10.3027 112.061 -10.3027 L 97.4609 -10.3027 C 95.2148 -15.0879 90.2832 -18.457 84.6191 -18.457 C 78.9062 -18.457 74.0234 -15.0879 71.7285 -10.3027 L 18.3594 -10.3027 C 15.0391 -10.3027 12.4512 -7.4707 12.4512 -4.24805 C 12.4512 -1.07422 15.0879 1.85547 18.3594 1.85547 L 71.7285 1.85547 C 73.9746 6.64062 78.9062 10.0098 84.6191 10.0098 Z M 84.6191 2.34375 C 80.957 2.34375 78.0273 -0.585938 78.0273 -4.24805 C 78.0273 -7.95898 80.957 -10.791 84.6191 -10.791 C 88.3301 -10.791 91.1621 -7.95898 91.1621 -4.24805 C 91.1621 -0.585938 88.3301 2.34375 84.6191 2.34375 Z"/>
  </g>
  <g id="Semibold-M" transform="matrix(1 0 0 1 1979.38 1126)">
   <path d="M 82.6172 -53.2227 C 88.0859 -53.2227 92.7734 -56.543 94.8242 -61.2305 L 110.254 -61.2305 C 113.037 -61.2305 115.332 -63.6719 115.332 -66.5039 C 115.332 -69.4336 113.037 -71.8262 110.254 -71.8262 L 94.8242 -71.8262 C 92.7734 -76.5625 88.0859 -79.8828 82.6172 -79.8828 C 77.1484 -79.8828 72.4121 -76.5625 70.3613 -71.8262 L 17.627 -71.8262 C 14.7461 -71.8262 12.4512 -69.3848 12.4512 -66.5039 C 12.4512 -63.7207 14.7461 -61.2305 17.627 -61.2305 L 70.4102 -61.2305 C 72.4609 -56.543 77.1484 -53.2227 82.6172 -53.2227 Z M 82.6172 -60.3027 C 79.1504 -60.3027 76.3672 -63.0859 76.3672 -66.5527 C 76.3672 -70.1172 79.1504 -72.8027 82.6172 -72.8027 C 86.1328 -72.8027 88.8672 -70.1172 88.8672 -66.5527 C 88.8672 -63.0859 86.1328 -60.3027 82.6172 -60.3027 Z M 17.4805 -40.8691 C 14.7461 -40.8691 12.4512 -38.4766 12.4512 -35.5957 C 12.4512 -32.7637 14.7461 -30.2734 17.4805 -30.2734 L 33.4961 -30.2734 C 35.5469 -25.5859 40.2832 -22.2656 45.752 -22.2656 C 51.1719 -22.2656 55.9082 -25.5859 57.959 -30.2734 L 110.107 -30.2734 C 113.037 -30.2734 115.332 -32.7148 115.332 -35.5957 C 115.332 -38.4766 113.037 -40.8691 110.107 -40.8691 L 57.959 -40.8691 C 55.9082 -45.5566 51.2207 -48.877 45.752 -48.877 C 40.2832 -48.877 35.5957 -45.5566 33.5449 -40.8691 Z M 45.752 -29.2969 C 42.2852 -29.2969 39.502 -32.1289 39.502 -35.5957 C 39.502 -39.1113 42.2852 -41.8457 45.752 -41.8457 C 49.3164 -41.8457 52.002 -39.1113 52.002 -35.5957 C 52.002 -32.1289 49.3164 -29.2969 45.752 -29.2969 Z M 82.6172 8.69141 C 88.0859 8.69141 92.7734 5.37109 94.8242 0.634766 L 110.254 0.634766 C 113.037 0.634766 115.332 -1.75781 115.332 -4.63867 C 115.332 -7.56836 113.037 -9.91211 110.254 -9.91211 L 94.8242 -9.91211 C 92.7734 -14.6484 88.0859 -17.9688 82.6172 -17.9688 C 77.1484 -17.9688 72.4609 -14.6484 70.3613 -9.91211 L 17.627 -9.91211 C 14.7461 -9.91211 12.4512 -7.51953 12.4512 -4.63867 C 12.4512 -1.80664 14.7461 0.634766 17.627 0.634766 L 70.3613 0.634766 C 72.4121 5.37109 77.1484 8.69141 82.6172 8.69141 Z M 82.6172 1.61133 C 79.1504 1.61133 76.3672 -1.17188 76.3672 -4.63867 C 76.3672 -8.1543 79.1504 -10.8887 82.6172 -10.8887 C 86.1328 -10.8887 88.8672 -8.1543 88.8672 -4.63867 C 88.8672 -1.17188 86.1328 1.61133 82.6172 1.61133 Z"/>
  </g>
  <g id="Medium-M" transform="matrix(1 0 0 1 1683.64 1126)">
   <path d="M 81.1035 -53.2227 C 86.377 -53.2227 90.918 -56.543 92.8223 -61.1328 L 108.887 -61.1328 C 111.328 -61.1328 113.379 -63.2812 113.379 -65.8691 C 113.379 -68.457 111.328 -70.5566 108.887 -70.5566 L 92.8223 -70.5566 C 90.9668 -75.1953 86.4258 -78.5156 81.1035 -78.5156 C 75.7812 -78.5156 71.2402 -75.1953 69.3848 -70.5566 L 17.0898 -70.5566 C 14.502 -70.5566 12.4512 -68.457 12.4512 -65.8691 C 12.4512 -63.2812 14.502 -61.1328 17.0898 -61.1328 L 69.3848 -61.1328 C 71.2891 -56.543 75.8301 -53.2227 81.1035 -53.2227 Z M 81.1035 -59.8633 C 77.7344 -59.8633 75.0977 -62.5488 75.0977 -65.8691 C 75.0977 -69.2871 77.7344 -71.9238 81.1035 -71.9238 C 84.5215 -71.9238 87.1094 -69.2871 87.1094 -65.8691 C 87.1094 -62.5488 84.5215 -59.8633 81.1035 -59.8633 Z M 16.9434 -40.0879 C 14.502 -40.0879 12.4512 -37.9883 12.4512 -35.4004 C 12.4512 -32.8613 14.502 -30.7129 16.9434 -30.7129 L 33.5449 -30.7129 C 35.4492 -26.0254 39.9902 -22.7539 45.3125 -22.7539 C 50.5859 -22.7539 55.127 -26.0254 57.0312 -30.7129 L 108.74 -30.7129 C 111.328 -30.7129 113.379 -32.8125 113.379 -35.4004 C 113.379 -37.9883 111.328 -40.0879 108.74 -40.0879 L 57.0312 -40.0879 C 55.127 -44.7266 50.5859 -47.998 45.3125 -47.998 C 39.9902 -47.998 35.4492 -44.7266 33.5449 -40.0879 Z M 45.3125 -29.3457 C 41.9434 -29.3457 39.2578 -32.0312 39.2578 -35.4004 C 39.2578 -38.8184 41.9434 -41.4062 45.3125 -41.4062 C 48.6816 -41.4062 51.3184 -38.8184 51.3184 -35.4004 C 51.3184 -32.0312 48.6816 -29.3457 45.3125 -29.3457 Z M 81.1035 7.71484 C 86.4258 7.71484 90.9668 4.39453 92.8223 -0.244141 L 108.887 -0.244141 C 111.328 -0.244141 113.379 -2.34375 113.379 -4.93164 C 113.379 -7.56836 111.328 -9.61914 108.887 -9.61914 L 92.8223 -9.61914 C 90.9668 -14.2578 86.4258 -17.5781 81.1035 -17.5781 C 75.8301 -17.5781 71.2402 -14.2578 69.3848 -9.61914 L 17.0898 -9.61914 C 14.502 -9.61914 12.4512 -7.51953 12.4512 -4.93164 C 12.4512 -2.39258 14.502 -0.244141 17.0898 -0.244141 L 69.3848 -0.244141 C 71.2402 4.39453 75.7812 7.71484 81.1035 7.71484 Z M 81.1035 1.07422 C 77.7344 1.07422 75.0977 -1.61133 75.0977 -4.93164 C 75.0977 -8.34961 77.7344 -10.9375 81.1035 -10.9375 C 84.5215 -10.9375 87.1094 -8.34961 87.1094 -4.93164 C 87.1094 -1.61133 84.5215 1.07422 81.1035 1.07422 Z"/>
  </g>
  <g id="Regular-M" transform="matrix(1 0 0 1 1388.2 1126)">
   <path d="M 79.1504 -53.2715 C 84.2285 -53.2715 88.5254 -56.543 90.1855 -61.0352 L 107.08 -61.0352 C 109.082 -61.0352 110.84 -62.793 110.84 -64.9902 C 110.84 -67.1875 109.082 -68.8965 107.08 -68.8965 L 90.1855 -68.8965 C 88.5742 -73.4375 84.2285 -76.7578 79.1504 -76.7578 C 74.0723 -76.7578 69.6777 -73.4375 68.0664 -68.8965 L 16.3574 -68.8965 C 14.1602 -68.8965 12.4512 -67.1875 12.4512 -64.9902 C 12.4512 -62.793 14.1602 -61.0352 16.3574 -61.0352 L 68.1152 -61.0352 C 69.7266 -56.543 74.0723 -53.2715 79.1504 -53.2715 Z M 79.1504 -59.2773 C 75.9277 -59.2773 73.4375 -61.8164 73.4375 -65.0391 C 73.4375 -68.2617 75.9277 -70.752 79.1504 -70.752 C 82.373 -70.752 84.8633 -68.2617 84.8633 -65.0391 C 84.8633 -61.8164 82.373 -59.2773 79.1504 -59.2773 Z M 16.1621 -39.1113 C 14.1602 -39.1113 12.4512 -37.3535 12.4512 -35.1562 C 12.4512 -32.959 14.1602 -31.25 16.1621 -31.25 L 33.6426 -31.25 C 35.2539 -26.6602 39.5996 -23.3887 44.6777 -23.3887 C 49.7559 -23.3887 54.1016 -26.6602 55.7617 -31.25 L 106.885 -31.25 C 109.082 -31.25 110.84 -32.959 110.84 -35.1562 C 110.84 -37.3535 109.082 -39.1113 106.885 -39.1113 L 55.7129 -39.1113 C 54.1016 -43.6035 49.7559 -46.875 44.6777 -46.875 C 39.5996 -46.875 35.2539 -43.6035 33.6426 -39.1113 Z M 44.6777 -29.4434 C 41.5039 -29.4434 38.9648 -31.9824 38.9648 -35.1562 C 38.9648 -38.3789 41.5039 -40.8691 44.6777 -40.8691 C 47.9004 -40.8691 50.3906 -38.3789 50.3906 -35.1562 C 50.3906 -31.9824 47.9004 -29.4434 44.6777 -29.4434 Z M 79.1504 6.39648 C 84.2285 6.39648 88.5742 3.125 90.1855 -1.41602 L 107.08 -1.41602 C 109.082 -1.41602 110.84 -3.125 110.84 -5.32227 C 110.84 -7.51953 109.082 -9.27734 107.08 -9.27734 L 90.1855 -9.27734 C 88.5742 -13.8184 84.2285 -17.041 79.1504 -17.041 C 74.0723 -17.041 69.7266 -13.8184 68.1152 -9.27734 L 16.3574 -9.27734 C 14.1602 -9.27734 12.4512 -7.51953 12.4512 -5.32227 C 12.4512 -3.125 14.1602 -1.41602 16.3574 -1.41602 L 68.0664 -1.41602 C 69.7266 3.125 74.0723 6.39648 79.1504 6.39648 Z M 79.1504 0.390625 C 75.9277 0.390625 73.4375 -2.14844 73.4375 -5.32227 C 73.4375 -8.59375 75.9277 -11.0352 79.1504 -11.0352 C 82.373 -11.0352 84.8633 -8.59375 84.8633 -5.32227 C 84.8633 -2.14844 82.373 0.390625 79.1504 0.390625 Z"/>
  </g>
  <g id="Light-M" transform="matrix(1 0 0 1 1092.32 1126)">
   <path d="M 79.1504 -54.0527 C 84.1309 -54.0527 88.3301 -57.373 89.6973 -61.9629 L 106.25 -61.9629 C 107.812 -61.9629 109.18 -63.2812 109.18 -64.9414 C 109.18 -66.6504 107.812 -67.9688 106.25 -67.9688 L 89.6973 -67.9688 C 88.4277 -72.6074 84.1309 -76.0254 79.1504 -76.0254 C 74.1211 -76.0254 69.873 -72.6074 68.5547 -67.9688 L 15.4785 -67.9688 C 13.7695 -67.9688 12.4512 -66.6504 12.4512 -64.9414 C 12.4512 -63.2812 13.7695 -61.9629 15.4785 -61.9629 L 68.6035 -61.9629 C 69.9219 -57.373 74.1699 -54.0527 79.1504 -54.0527 Z M 79.1504 -59.0332 C 75.7812 -59.0332 73.1445 -61.7188 73.1445 -65.0391 C 73.1445 -68.457 75.7812 -71.0449 79.1504 -71.0449 C 82.5195 -71.0449 85.1562 -68.457 85.1562 -65.0391 C 85.1562 -61.7188 82.5195 -59.0332 79.1504 -59.0332 Z M 15.332 -38.1348 C 13.7695 -38.1348 12.4512 -36.8164 12.4512 -35.1074 C 12.4512 -33.4473 13.7695 -32.0801 15.332 -32.0801 L 33.1543 -32.0801 C 34.4727 -27.4902 38.7207 -24.0723 43.7012 -24.0723 C 48.7305 -24.0723 52.9785 -27.4902 54.2969 -32.0801 L 106.152 -32.0801 C 107.812 -32.0801 109.18 -33.4473 109.18 -35.1074 C 109.18 -36.8164 107.812 -38.1348 106.152 -38.1348 L 54.248 -38.1348 C 52.9297 -42.6758 48.6816 -46.0449 43.7012 -46.0449 C 38.7207 -46.0449 34.4727 -42.6758 33.1543 -38.1348 Z M 43.7012 -29.1016 C 40.332 -29.1016 37.6953 -31.7383 37.6953 -35.1074 C 37.6953 -38.4766 40.332 -41.1133 43.7012 -41.1133 C 47.0703 -41.1133 49.707 -38.4766 49.707 -35.1074 C 49.707 -31.7383 47.0703 -29.1016 43.7012 -29.1016 Z M 79.1504 5.76172 C 84.1309 5.76172 88.3789 2.34375 89.6973 -2.24609 L 106.25 -2.24609 C 107.812 -2.24609 109.18 -3.56445 109.18 -5.27344 C 109.18 -6.93359 107.812 -8.25195 106.25 -8.25195 L 89.6973 -8.25195 C 88.3789 -12.8418 84.1309 -16.2109 79.1504 -16.2109 C 74.1699 -16.2109 69.9219 -12.8418 68.6035 -8.25195 L 15.4785 -8.25195 C 13.7695 -8.25195 12.4512 -6.93359 12.4512 -5.27344 C 12.4512 -3.56445 13.7695 -2.24609 15.4785 -2.24609 L 68.5547 -2.24609 C 69.873 2.34375 74.1211 5.76172 79.1504 5.76172 Z M 79.1504 0.78125 C 75.7812 0.78125 73.1445 -1.9043 73.1445 -5.27344 C 73.1445 -8.64258 75.7812 -11.2305 79.1504 -11.2305 C 82.5195 -11.2305 85.1562 -8.64258 85.1562 -5.27344 C 85.1562 -1.9043 82.5195 0.78125 79.1504 0.78125 Z"/>
  </g>
  <g id="Thin-M" transform="matrix(1 0 0 1 796.705 1126)">
   <path d="M 79.1504 -55.0293 C 83.9844 -55.0293 88.0371 -58.5449 88.9648 -63.1348 L 105.176 -63.1348 C 106.152 -63.1348 106.982 -63.916 106.982 -64.9414 C 106.982 -65.9668 106.152 -66.748 105.176 -66.748 L 88.9648 -66.748 C 88.1836 -71.4355 84.0332 -75.0488 79.1504 -75.0488 C 74.2188 -75.0488 70.1172 -71.4355 69.2871 -66.748 L 14.2578 -66.748 C 13.2812 -66.748 12.4512 -65.9668 12.4512 -64.9414 C 12.4512 -63.916 13.2812 -63.1348 14.2578 -63.1348 L 69.3359 -63.1348 C 70.2148 -58.5449 74.3164 -55.0293 79.1504 -55.0293 Z M 79.1504 -58.6914 C 75.5859 -58.6914 72.7539 -61.5234 72.7539 -65.0879 C 72.7539 -68.7012 75.5859 -71.4844 79.1504 -71.4844 C 82.7148 -71.4844 85.498 -68.7012 85.498 -65.0879 C 85.498 -61.5234 82.7148 -58.6914 79.1504 -58.6914 Z M 14.209 -36.8652 C 13.2812 -36.8652 12.4512 -36.0352 12.4512 -35.0586 C 12.4512 -34.0332 13.2812 -33.252 14.209 -33.252 L 32.5684 -33.252 C 33.3984 -28.5645 37.5 -25 42.4316 -25 C 47.3145 -25 51.416 -28.5645 52.2461 -33.252 L 105.176 -33.252 C 106.152 -33.252 106.982 -34.0332 106.982 -35.0586 C 106.982 -36.0352 106.152 -36.8652 105.176 -36.8652 L 52.2461 -36.8652 C 51.3672 -41.4551 47.2656 -44.9707 42.4316 -44.9707 C 37.5488 -44.9707 33.4961 -41.4551 32.5684 -36.8652 Z M 42.4316 -28.6133 C 38.8184 -28.6133 36.0352 -31.4453 36.0352 -35.0586 C 36.0352 -38.623 38.8184 -41.4062 42.4316 -41.4062 C 45.9961 -41.4062 48.7793 -38.623 48.7793 -35.0586 C 48.7793 -31.4453 45.9961 -28.6133 42.4316 -28.6133 Z M 79.1504 4.88281 C 84.0332 4.88281 88.1348 1.31836 88.9648 -3.32031 L 105.176 -3.32031 C 106.152 -3.32031 106.982 -4.15039 106.982 -5.12695 C 106.982 -6.15234 106.152 -6.98242 105.176 -6.98242 L 88.9648 -6.98242 C 88.0859 -11.5723 83.9844 -15.0879 79.1504 -15.0879 C 74.2676 -15.0879 70.2148 -11.5723 69.3359 -6.98242 L 14.2578 -6.98242 C 13.2812 -6.98242 12.4512 -6.15234 12.4512 -5.12695 C 12.4512 -4.15039 13.2812 -3.32031 14.2578 -3.32031 L 69.2871 -3.32031 C 70.1172 1.31836 74.2676 4.88281 79.1504 4.88281 Z M 79.1504 1.26953 C 75.5859 1.26953 72.7539 -1.5625 72.7539 -5.12695 C 72.7539 -8.74023 75.5859 -11.5234 79.1504 -11.5234 C 82.7148 -11.5234 85.498 -8.74023 85.498 -5.12695 C 85.498 -1.5625 82.7148 1.26953 79.1504 1.26953 Z"/>
  </g>
  <g id="Ultralight-M" transform="matrix(1 0 0 1 500.556 1126)">
   <path d="M 79.1504 -55.5664 C 83.8867 -55.5664 87.8906 -59.1309 88.5254 -63.7207 L 104.639 -63.7207 C 105.322 -63.7207 105.859 -64.2578 105.859 -64.9414 C 105.859 -65.5762 105.322 -66.1133 104.639 -66.1133 L 88.5742 -66.1133 C 88.0371 -70.8496 83.9844 -74.5605 79.1504 -74.5605 C 74.2676 -74.5605 70.2637 -70.8496 69.7266 -66.1133 L 13.623 -66.1133 C 12.9883 -66.1133 12.4512 -65.5762 12.4512 -64.9414 C 12.4512 -64.2578 12.9883 -63.7207 13.623 -63.7207 L 69.7266 -63.7207 C 70.4102 -59.1309 74.3652 -55.5664 79.1504 -55.5664 Z M 79.1504 -58.4961 C 75.4395 -58.4961 72.5586 -61.4258 72.5586 -65.1367 C 72.5586 -68.7988 75.4395 -71.6797 79.1504 -71.6797 C 82.8125 -71.6797 85.6934 -68.7988 85.6934 -65.1367 C 85.6934 -61.4258 82.8125 -58.4961 79.1504 -58.4961 Z M 13.6719 -36.1816 C 12.9883 -36.1816 12.4512 -35.6445 12.4512 -35.0098 C 12.4512 -34.375 12.9883 -33.7891 13.6719 -33.7891 L 32.3242 -33.7891 C 32.9102 -29.1016 36.9141 -25.4395 41.748 -25.4395 C 46.582 -25.4395 50.5859 -29.1016 51.1719 -33.7891 L 104.639 -33.7891 C 105.322 -33.7891 105.859 -34.375 105.859 -35.0098 C 105.859 -35.6445 105.322 -36.1816 104.639 -36.1816 L 51.1719 -36.1816 C 50.5371 -40.8203 46.5332 -44.4336 41.748 -44.4336 C 36.9629 -44.4336 32.959 -40.8203 32.3242 -36.1816 Z M 41.748 -28.3691 C 38.0859 -28.3691 35.2051 -31.2988 35.2051 -35.0098 C 35.2051 -38.6719 38.0859 -41.5527 41.748 -41.5527 C 45.459 -41.5527 48.291 -38.6719 48.291 -35.0098 C 48.291 -31.2988 45.459 -28.3691 41.748 -28.3691 Z M 79.1504 4.44336 C 83.9844 4.44336 87.9883 0.78125 88.5742 -3.90625 L 104.639 -3.90625 C 105.322 -3.90625 105.859 -4.44336 105.859 -5.07812 C 105.859 -5.76172 105.322 -6.29883 104.639 -6.29883 L 88.5254 -6.29883 C 87.9395 -10.9375 83.9355 -14.502 79.1504 -14.502 C 74.3652 -14.502 70.3613 -10.9375 69.7266 -6.29883 L 13.623 -6.29883 C 12.9883 -6.29883 12.4512 -5.76172 12.4512 -5.07812 C 12.4512 -4.44336 12.9883 -3.90625 13.623 -3.90625 L 69.7266 -3.90625 C 70.2637 0.78125 74.3164 4.44336 79.1504 4.44336 Z M 79.1504 1.51367 C 75.4395 1.51367 72.5586 -1.41602 72.5586 -5.07812 C 72.5586 -8.78906 75.4395 -11.6699 79.1504 -11.6699 C 82.8125 -11.6699 85.6934 -8.78906 85.6934 -5.07812 C 85.6934 -1.41602 82.8125 1.51367 79.1504 1.51367 Z"/>
  </g>
  <g id="Black-S" transform="matrix(1 0 0 1 2879.69 696)">
   <path d="M 70.3613 -49.2188 C 75.2441 -49.2188 79.4922 -51.9043 81.7383 -55.9082 L 91.5527 -55.9082 C 94.9707 -55.9082 97.6562 -58.9355 97.6562 -62.2559 C 97.6562 -65.7227 95.0195 -68.6035 91.5527 -68.6035 L 81.7383 -68.6035 C 79.4922 -72.6074 75.2441 -75.293 70.3613 -75.293 C 65.4785 -75.293 61.2305 -72.6074 58.9844 -68.6035 L 15.8691 -68.6035 C 12.4512 -68.6035 9.76562 -65.625 9.76562 -62.2559 C 9.76562 -59.0332 12.5 -55.9082 15.8691 -55.9082 L 58.9844 -55.9082 C 61.2305 -51.9043 65.4785 -49.2188 70.3613 -49.2188 Z M 70.3613 -56.4941 C 67.1875 -56.4941 64.5996 -59.082 64.5996 -62.2559 C 64.5996 -65.5273 67.1875 -68.0176 70.3613 -68.0176 C 73.6328 -68.0176 76.123 -65.5273 76.123 -62.2559 C 76.123 -59.082 73.6328 -56.4941 70.3613 -56.4941 Z M 37.5977 -23.1445 C 42.4316 -23.1445 46.6797 -25.8301 48.9746 -29.834 L 91.5527 -29.834 C 94.9707 -29.834 97.6562 -32.8613 97.6562 -36.1816 C 97.6562 -39.6484 95.0195 -42.5293 91.5527 -42.5293 L 48.9746 -42.5293 C 46.7285 -46.5332 42.4805 -49.2188 37.5977 -49.2188 C 32.7148 -49.2188 28.4668 -46.5332 26.2207 -42.5293 L 15.8691 -42.5293 C 12.4512 -42.5293 9.76562 -39.5508 9.76562 -36.1816 C 9.76562 -32.959 12.5 -29.834 15.8691 -29.834 L 26.2207 -29.834 C 28.4668 -25.8301 32.7148 -23.1445 37.5977 -23.1445 Z M 37.5977 -30.4199 C 34.4238 -30.4199 31.8359 -33.0078 31.8359 -36.1816 C 31.8359 -39.4531 34.4238 -41.9434 37.5977 -41.9434 C 40.8691 -41.9434 43.3594 -39.4531 43.3594 -36.1816 C 43.3594 -33.0078 40.8691 -30.4199 37.5977 -30.4199 Z M 70.3613 2.92969 C 75.2441 2.92969 79.4922 0.244141 81.7383 -3.75977 L 91.5527 -3.75977 C 94.9707 -3.75977 97.6562 -6.78711 97.6562 -10.1074 C 97.6562 -13.5742 95.0195 -16.4551 91.5527 -16.4551 L 81.7383 -16.4551 C 79.541 -20.459 75.293 -23.1445 70.3613 -23.1445 C 65.4785 -23.1445 61.2305 -20.459 58.9844 -16.4551 L 15.8691 -16.4551 C 12.4512 -16.4551 9.76562 -13.4766 9.76562 -10.1074 C 9.76562 -6.88477 12.5 -3.75977 15.8691 -3.75977 L 58.9844 -3.75977 C 61.2305 0.244141 65.4785 2.92969 70.3613 2.92969 Z M 70.3613 -4.3457 C 67.1875 -4.3457 64.5996 -6.93359 64.5996 -10.1074 C 64.5996 -13.3789 67.1875 -15.8691 70.3613 -15.8691 C 73.6328 -15.8691 76.123 -13.3789 76.123 -10.1074 C 76.123 -6.93359 73.6328 -4.3457 70.3613 -4.3457 Z"/>
  </g>
  <g id="Heavy-S" transform="matrix(1 0 0 1 2584.15 696)">
   <path d="M 68.4082 -49.1699 C 73.0469 -49.1699 77.1484 -51.8066 79.1992 -55.7129 L 89.8438 -55.7129 C 92.8711 -55.7129 95.3125 -58.3984 95.3125 -61.377 C 95.3125 -64.502 92.9199 -67.041 89.8438 -67.041 L 79.1992 -67.041 C 77.1484 -70.9473 73.0469 -73.584 68.4082 -73.584 C 63.7207 -73.584 59.6191 -70.9473 57.5684 -67.041 L 15.2832 -67.041 C 12.207 -67.041 9.76562 -64.4043 9.76562 -61.377 C 9.76562 -58.4473 12.207 -55.7129 15.2832 -55.7129 L 57.5684 -55.7129 C 59.6191 -51.8066 63.7207 -49.1699 68.4082 -49.1699 Z M 68.4082 -55.957 C 65.3809 -55.957 62.9883 -58.3984 62.9883 -61.377 C 62.9883 -64.4531 65.3809 -66.7969 68.4082 -66.7969 C 71.4844 -66.7969 73.8281 -64.4531 73.8281 -61.377 C 73.8281 -58.3984 71.4844 -55.957 68.4082 -55.957 Z M 37.1094 -23.7305 C 41.748 -23.7305 45.8008 -26.3672 47.9004 -30.2734 L 89.7949 -30.2734 C 92.8711 -30.2734 95.3125 -32.959 95.3125 -35.9375 C 95.3125 -39.0625 92.9199 -41.6504 89.7949 -41.6504 L 47.9004 -41.6504 C 45.8496 -45.5078 41.7969 -48.1445 37.1094 -48.1445 C 32.4219 -48.1445 28.3691 -45.5078 26.3184 -41.6504 L 15.2344 -41.6504 C 12.207 -41.6504 9.76562 -38.9648 9.76562 -35.9375 C 9.76562 -33.0078 12.207 -30.2734 15.2344 -30.2734 L 26.3184 -30.2734 C 28.3691 -26.3672 32.4219 -23.7305 37.1094 -23.7305 Z M 37.1094 -30.5176 C 34.082 -30.5176 31.6895 -32.959 31.6895 -35.9375 C 31.6895 -39.0137 34.082 -41.3574 37.1094 -41.3574 C 40.1855 -41.3574 42.5293 -39.0137 42.5293 -35.9375 C 42.5293 -32.959 40.1855 -30.5176 37.1094 -30.5176 Z M 68.4082 1.70898 C 73.0469 1.70898 77.1484 -0.976562 79.1992 -4.83398 L 89.8438 -4.83398 C 92.8711 -4.83398 95.3125 -7.51953 95.3125 -10.498 C 95.3125 -13.623 92.9199 -16.2109 89.8438 -16.2109 L 79.1992 -16.2109 C 77.1484 -20.0684 73.0957 -22.7539 68.4082 -22.7539 C 63.7207 -22.7539 59.6191 -20.0684 57.5684 -16.2109 L 15.2832 -16.2109 C 12.207 -16.2109 9.76562 -13.5742 9.76562 -10.498 C 9.76562 -7.56836 12.207 -4.83398 15.2832 -4.83398 L 57.5684 -4.83398 C 59.6191 -0.976562 63.7207 1.70898 68.4082 1.70898 Z M 68.4082 -5.07812 C 65.3809 -5.07812 62.9883 -7.51953 62.9883 -10.498 C 62.9883 -13.623 65.3809 -15.9668 68.4082 -15.9668 C 71.4844 -15.9668 73.8281 -13.623 73.8281 -10.498 C 73.8281 -7.51953 71.4844 -5.07812 68.4082 -5.07812 Z"/>
  </g>
  <g id="Bold-S" transform="matrix(1 0 0 1 2288.78 696)">
   <path d="M 66.2109 -49.1211 C 70.6543 -49.1211 74.5117 -51.709 76.3184 -55.4688 L 87.9395 -55.4688 C 90.5273 -55.4688 92.627 -57.7637 92.627 -60.4004 C 92.627 -63.1348 90.5762 -65.332 87.9395 -65.332 L 76.3184 -65.332 C 74.5117 -69.0918 70.6543 -71.6797 66.2109 -71.6797 C 61.7188 -71.6797 57.8613 -69.0918 56.0059 -65.332 L 14.5996 -65.332 C 11.8652 -65.332 9.76562 -63.0859 9.76562 -60.4004 C 9.76562 -57.8125 11.9141 -55.4688 14.5996 -55.4688 L 56.0547 -55.4688 C 57.8613 -51.709 61.7188 -49.1211 66.2109 -49.1211 Z M 66.2109 -55.3711 C 63.3789 -55.3711 61.1328 -57.6172 61.1328 -60.4004 C 61.1328 -63.2812 63.3789 -65.4785 66.2109 -65.4785 C 69.043 -65.4785 71.2402 -63.2812 71.2402 -60.4004 C 71.2402 -57.6172 69.043 -55.3711 66.2109 -55.3711 Z M 14.502 -40.625 C 11.8652 -40.625 9.76562 -38.3789 9.76562 -35.6934 C 9.76562 -33.1055 11.9141 -30.7617 14.502 -30.7617 L 26.3672 -30.7617 C 28.2227 -27.002 32.0801 -24.4141 36.5234 -24.4141 C 40.9668 -24.4141 44.8242 -27.002 46.6797 -30.7617 L 87.8418 -30.7617 C 90.5273 -30.7617 92.627 -33.0566 92.627 -35.6934 C 92.627 -38.4277 90.5762 -40.625 87.8418 -40.625 L 46.6797 -40.625 C 44.873 -44.3848 41.0156 -46.9727 36.5234 -46.9727 C 32.0801 -46.9727 28.2227 -44.3848 26.3672 -40.625 Z M 36.5234 -30.6152 C 33.7402 -30.6152 31.4941 -32.9102 31.4941 -35.6934 C 31.4941 -38.5742 33.7402 -40.7227 36.5234 -40.7227 C 39.4043 -40.7227 41.6016 -38.5742 41.6016 -35.6934 C 41.6016 -32.9102 39.4043 -30.6152 36.5234 -30.6152 Z M 66.1621 0.292969 C 70.6543 0.292969 74.5117 -2.29492 76.3184 -6.05469 L 87.9395 -6.05469 C 90.5273 -6.05469 92.627 -8.34961 92.627 -10.9863 C 92.627 -13.7207 90.5762 -15.918 87.9395 -15.918 L 76.3672 -15.918 C 74.5117 -19.6777 70.6543 -22.2656 66.2109 -22.2656 C 61.7188 -22.2656 57.8613 -19.6777 56.0547 -15.918 L 14.5996 -15.918 C 11.8652 -15.918 9.76562 -13.6719 9.76562 -10.9863 C 9.76562 -8.39844 11.9141 -6.05469 14.5996 -6.05469 L 56.0547 -6.05469 C 57.8613 -2.29492 61.7188 0.292969 66.1621 0.292969 Z M 66.2109 -5.9082 C 63.3789 -5.9082 61.1328 -8.20312 61.1328 -10.9863 C 61.1328 -13.8672 63.3789 -16.0156 66.2109 -16.0156 C 69.043 -16.0156 71.2402 -13.8672 71.2402 -10.9863 C 71.2402 -8.20312 69.043 -5.9082 66.2109 -5.9082 Z"/>
  </g>
  <g id="Semibold-S" transform="matrix(1 0 0 1 1992.97 696)">
   <path d="M 64.6484 -49.0723 C 68.9453 -49.0723 72.6562 -51.6113 74.3652 -55.3223 L 86.6211 -55.3223 C 88.916 -55.3223 90.8203 -57.3242 90.8203 -59.7168 C 90.8203 -62.1582 88.916 -64.1602 86.6211 -64.1602 L 74.3652 -64.1602 C 72.6562 -67.8223 68.9453 -70.4102 64.6484 -70.4102 C 60.3516 -70.4102 56.6406 -67.8223 54.9805 -64.1602 L 14.1113 -64.1602 C 11.6699 -64.1602 9.76562 -62.1582 9.76562 -59.7168 C 9.76562 -57.373 11.6699 -55.3223 14.1113 -55.3223 L 54.9805 -55.3223 C 56.6406 -51.6113 60.3516 -49.0723 64.6484 -49.0723 Z M 64.6484 -54.9316 C 62.0117 -54.9316 59.8633 -57.0801 59.8633 -59.7168 C 59.8633 -62.4512 62.0117 -64.502 64.6484 -64.502 C 67.3828 -64.502 69.4824 -62.4512 69.4824 -59.7168 C 69.4824 -57.0801 67.3828 -54.9316 64.6484 -54.9316 Z M 13.9648 -39.9414 C 11.6699 -39.9414 9.76562 -37.9395 9.76562 -35.498 C 9.76562 -33.1543 11.6699 -31.1035 13.9648 -31.1035 L 26.4648 -31.1035 C 28.1738 -27.3926 31.8848 -24.8535 36.1816 -24.8535 C 40.4297 -24.8535 44.1406 -27.3926 45.8496 -31.1035 L 86.4746 -31.1035 C 88.916 -31.1035 90.8203 -33.1055 90.8203 -35.498 C 90.8203 -37.9395 88.916 -39.9414 86.4746 -39.9414 L 45.8496 -39.9414 C 44.1895 -43.6035 40.4785 -46.1914 36.1816 -46.1914 C 31.8848 -46.1914 28.1738 -43.6035 26.4648 -39.9414 Z M 36.1816 -30.7129 C 33.4961 -30.7129 31.3477 -32.8613 31.3477 -35.498 C 31.3477 -38.2324 33.4961 -40.2832 36.1816 -40.2832 C 38.8672 -40.2832 40.9668 -38.2324 40.9668 -35.498 C 40.9668 -32.8613 38.8672 -30.7129 36.1816 -30.7129 Z M 64.6484 -0.634766 C 68.9453 -0.634766 72.6562 -3.22266 74.3652 -6.88477 L 86.6211 -6.88477 C 88.916 -6.88477 90.8203 -8.88672 90.8203 -11.2793 C 90.8203 -13.7207 88.916 -15.7227 86.6211 -15.7227 L 74.3652 -15.7227 C 72.7051 -19.3848 68.9941 -21.9727 64.6484 -21.9727 C 60.3516 -21.9727 56.6406 -19.3848 54.9805 -15.7227 L 14.1113 -15.7227 C 11.6699 -15.7227 9.76562 -13.7207 9.76562 -11.2793 C 9.76562 -8.93555 11.6699 -6.88477 14.1113 -6.88477 L 54.9805 -6.88477 C 56.6406 -3.22266 60.3516 -0.634766 64.6484 -0.634766 Z M 64.6484 -6.49414 C 62.0117 -6.49414 59.8633 -8.64258 59.8633 -11.2793 C 59.8633 -14.0137 62.0117 -16.1133 64.6484 -16.1133 C 67.3828 -16.1133 69.4824 -14.0137 69.4824 -11.2793 C 69.4824 -8.64258 67.3828 -6.49414 64.6484 -6.49414 Z"/>
  </g>
  <g id="Medium-S" transform="matrix(1 0 0 1 1696.95 696)">
   <path d="M 63.5254 -49.0234 C 67.6758 -49.0234 71.2891 -51.5625 72.8516 -55.1758 L 85.5957 -55.1758 C 87.6953 -55.1758 89.4531 -56.9824 89.4531 -59.2285 C 89.4531 -61.4746 87.6953 -63.2324 85.5957 -63.2324 L 72.8516 -63.2324 C 71.2891 -66.8457 67.6758 -69.3848 63.5254 -69.3848 C 59.3262 -69.3848 55.7129 -66.8457 54.1504 -63.2324 L 13.7695 -63.2324 C 11.5234 -63.2324 9.76562 -61.4258 9.76562 -59.2285 C 9.76562 -57.0312 11.5234 -55.1758 13.7695 -55.1758 L 54.1504 -55.1758 C 55.7617 -51.5625 59.3262 -49.0234 63.5254 -49.0234 Z M 63.5254 -54.6387 C 60.9375 -54.6387 58.9355 -56.6406 58.9355 -59.2285 C 58.9355 -61.8164 60.9375 -63.8184 63.5254 -63.8184 C 66.1133 -63.8184 68.1152 -61.8164 68.1152 -59.2285 C 68.1152 -56.6406 66.1133 -54.6387 63.5254 -54.6387 Z M 13.623 -39.4043 C 11.5234 -39.4043 9.76562 -37.5977 9.76562 -35.3516 C 9.76562 -33.1543 11.5234 -31.3477 13.623 -31.3477 L 26.5137 -31.3477 C 28.0762 -27.7344 31.6895 -25.1953 35.8887 -25.1953 C 40.0391 -25.1953 43.6523 -27.7344 45.2148 -31.3477 L 85.4492 -31.3477 C 87.6953 -31.3477 89.4531 -33.1543 89.4531 -35.3516 C 89.4531 -37.5977 87.6953 -39.4043 85.4492 -39.4043 L 45.2148 -39.4043 C 43.6523 -43.0176 40.0391 -45.5566 35.8887 -45.5566 C 31.6895 -45.5566 28.0762 -43.0176 26.5137 -39.4043 Z M 35.8887 -30.7617 C 33.3008 -30.7617 31.2988 -32.8125 31.2988 -35.3516 C 31.2988 -37.9883 33.3008 -39.9902 35.8887 -39.9902 C 38.4766 -39.9902 40.4785 -37.9883 40.4785 -35.3516 C 40.4785 -32.8125 38.4766 -30.7617 35.8887 -30.7617 Z M 63.5254 -1.36719 C 67.6758 -1.36719 71.2891 -3.90625 72.8516 -7.51953 L 85.5957 -7.51953 C 87.6953 -7.51953 89.4531 -9.32617 89.4531 -11.5234 C 89.4531 -13.7695 87.6953 -15.5762 85.5957 -15.5762 L 72.8516 -15.5762 C 71.2891 -19.1895 67.6758 -21.7285 63.5254 -21.7285 C 59.3262 -21.7285 55.7617 -19.1895 54.1504 -15.5762 L 13.7695 -15.5762 C 11.5234 -15.5762 9.76562 -13.7695 9.76562 -11.5234 C 9.76562 -9.32617 11.5234 -7.51953 13.7695 -7.51953 L 54.1504 -7.51953 C 55.7129 -3.90625 59.3262 -1.36719 63.5254 -1.36719 Z M 63.5254 -6.93359 C 60.9375 -6.93359 58.9355 -8.98438 58.9355 -11.5234 C 58.9355 -14.1602 60.9375 -16.1133 63.5254 -16.1133 C 66.1133 -16.1133 68.1152 -14.1602 68.1152 -11.5234 C 68.1152 -8.98438 66.1133 -6.93359 63.5254 -6.93359 Z"/>
  </g>
  <g id="Regular-S" transform="matrix(1 0 0 1 1401.14 696)">
   <path d="M 62.0117 -48.9746 C 66.0156 -48.9746 69.4824 -51.5137 70.8984 -55.0293 L 84.2773 -55.0293 C 86.084 -55.0293 87.6465 -56.5918 87.6465 -58.5449 C 87.6465 -60.498 86.084 -62.0605 84.2773 -62.0605 L 70.8984 -62.0605 C 69.4824 -65.5762 66.0156 -68.1152 62.0117 -68.1152 C 58.0078 -68.1152 54.541 -65.5762 53.125 -62.0605 L 13.2812 -62.0605 C 11.3281 -62.0605 9.76562 -60.498 9.76562 -58.5449 C 9.76562 -56.5918 11.3281 -55.0293 13.2812 -55.0293 L 53.125 -55.0293 C 54.541 -51.5137 58.0078 -48.9746 62.0117 -48.9746 Z M 62.0117 -54.1992 C 59.5703 -54.1992 57.666 -56.1523 57.666 -58.5449 C 57.666 -61.0352 59.5703 -62.8906 62.0117 -62.8906 C 64.4531 -62.8906 66.3574 -61.0352 66.3574 -58.5449 C 66.3574 -56.1523 64.4531 -54.1992 62.0117 -54.1992 Z M 13.0859 -38.7207 C 11.3281 -38.7207 9.76562 -37.1582 9.76562 -35.2051 C 9.76562 -33.2031 11.3281 -31.6895 13.0859 -31.6895 L 26.6113 -31.6895 C 28.0273 -28.125 31.4941 -25.6348 35.498 -25.6348 C 39.502 -25.6348 42.9688 -28.125 44.3848 -31.6895 L 84.1309 -31.6895 C 86.084 -31.6895 87.6465 -33.2031 87.6465 -35.2051 C 87.6465 -37.1582 86.084 -38.7207 84.1309 -38.7207 L 44.3848 -38.7207 C 42.9688 -42.2363 39.502 -44.7266 35.498 -44.7266 C 31.4941 -44.7266 28.0273 -42.2363 26.6113 -38.7207 Z M 35.498 -30.8594 C 33.0566 -30.8594 31.1523 -32.7637 31.1523 -35.2051 C 31.1523 -37.6465 33.0566 -39.5508 35.498 -39.5508 C 37.9395 -39.5508 39.8438 -37.6465 39.8438 -35.2051 C 39.8438 -32.7637 37.9395 -30.8594 35.498 -30.8594 Z M 62.0117 -2.29492 C 66.0156 -2.29492 69.4824 -4.78516 70.8984 -8.34961 L 84.2773 -8.34961 C 86.084 -8.34961 87.6465 -9.86328 87.6465 -11.8652 C 87.6465 -13.8184 86.084 -15.3809 84.2773 -15.3809 L 70.8984 -15.3809 C 69.4824 -18.8965 66.0156 -21.3867 62.0117 -21.3867 C 58.0078 -21.3867 54.541 -18.8965 53.125 -15.3809 L 13.2812 -15.3809 C 11.3281 -15.3809 9.76562 -13.8184 9.76562 -11.8652 C 9.76562 -9.86328 11.3281 -8.34961 13.2812 -8.34961 L 53.125 -8.34961 C 54.541 -4.78516 58.0078 -2.29492 62.0117 -2.29492 Z M 62.0117 -7.51953 C 59.5703 -7.51953 57.666 -9.42383 57.666 -11.8652 C 57.666 -14.3066 59.5703 -16.2109 62.0117 -16.2109 C 64.4531 -16.2109 66.3574 -14.3066 66.3574 -11.8652 C 66.3574 -9.42383 64.4531 -7.51953 62.0117 -7.51953 Z"/>
  </g>
  <g id="Light-S" transform="matrix(1 0 0 1 1105.16 696)">
   <path d="M 62.0117 -49.6582 C 65.9668 -49.6582 69.2871 -52.2461 70.459 -55.8105 L 83.5938 -55.8105 C 84.9609 -55.8105 86.1816 -57.0312 86.1816 -58.5449 C 86.1816 -60.0586 84.9609 -61.2305 83.5938 -61.2305 L 70.5078 -61.2305 C 69.3359 -64.8438 65.9668 -67.4316 62.0117 -67.4316 C 58.0566 -67.4316 54.6875 -64.8438 53.5156 -61.2305 L 12.5 -61.2305 C 10.9863 -61.2305 9.76562 -60.0586 9.76562 -58.5449 C 9.76562 -57.0312 10.9863 -55.8105 12.5 -55.8105 L 53.5645 -55.8105 C 54.7363 -52.2461 58.0566 -49.6582 62.0117 -49.6582 Z M 62.0117 -53.9551 C 59.4238 -53.9551 57.4219 -56.0059 57.4219 -58.5938 C 57.4219 -61.1816 59.4238 -63.1836 62.0117 -63.1836 C 64.5996 -63.1836 66.6016 -61.1816 66.6016 -58.5938 C 66.6016 -56.0059 64.5996 -53.9551 62.0117 -53.9551 Z M 12.3535 -37.8906 C 10.9863 -37.8906 9.76562 -36.6699 9.76562 -35.1562 C 9.76562 -33.6426 10.9863 -32.4219 12.3535 -32.4219 L 26.1719 -32.4219 C 27.2949 -28.8574 30.6641 -26.2207 34.6191 -26.2207 C 38.5742 -26.2207 41.9434 -28.8574 43.1152 -32.4219 L 83.4473 -32.4219 C 84.9609 -32.4219 86.1816 -33.6426 86.1816 -35.1562 C 86.1816 -36.6699 84.9609 -37.8906 83.4473 -37.8906 L 43.0664 -37.8906 C 41.9434 -41.4551 38.5742 -44.043 34.6191 -44.043 C 30.7129 -44.043 27.3438 -41.4551 26.1719 -37.8906 Z M 34.6191 -30.5664 C 32.0801 -30.5664 30.0293 -32.5684 30.0293 -35.1562 C 30.0293 -37.7441 32.0801 -39.7461 34.6191 -39.7461 C 37.207 -39.7461 39.209 -37.7441 39.209 -35.1562 C 39.209 -32.5684 37.207 -30.5664 34.6191 -30.5664 Z M 62.0117 -2.88086 C 65.9668 -2.88086 69.3359 -5.46875 70.459 -9.08203 L 83.5938 -9.08203 C 84.9609 -9.08203 86.1816 -10.2539 86.1816 -11.7676 C 86.1816 -13.2812 84.9609 -14.502 83.5938 -14.502 L 70.459 -14.502 C 69.2871 -18.0664 65.9668 -20.6543 62.0117 -20.6543 C 58.0566 -20.6543 54.7363 -18.0664 53.5645 -14.502 L 12.5 -14.502 C 10.9863 -14.502 9.76562 -13.2812 9.76562 -11.7676 C 9.76562 -10.2539 10.9863 -9.08203 12.5 -9.08203 L 53.5645 -9.08203 C 54.6875 -5.46875 58.0566 -2.88086 62.0117 -2.88086 Z M 62.0117 -7.17773 C 59.4238 -7.17773 57.4219 -9.22852 57.4219 -11.7676 C 57.4219 -14.3555 59.4238 -16.3574 62.0117 -16.3574 C 64.5996 -16.3574 66.6016 -14.3555 66.6016 -11.7676 C 66.6016 -9.22852 64.5996 -7.17773 62.0117 -7.17773 Z"/>
  </g>
  <g id="Thin-S" transform="matrix(1 0 0 1 809.425 696)">
   <path d="M 62.0117 -50.5371 C 65.8203 -50.5371 69.043 -53.2715 69.8242 -56.8359 L 82.6172 -56.8359 C 83.4961 -56.8359 84.2285 -57.5684 84.2285 -58.4961 C 84.2285 -59.4238 83.4961 -60.1562 82.6172 -60.1562 L 69.873 -60.1562 C 69.1406 -63.8184 65.8691 -66.6016 62.0117 -66.6016 C 58.1543 -66.6016 54.8828 -63.8184 54.1504 -60.1562 L 11.4258 -60.1562 C 10.498 -60.1562 9.76562 -59.4238 9.76562 -58.4961 C 9.76562 -57.5684 10.498 -56.8359 11.4258 -56.8359 L 54.1992 -56.8359 C 54.9805 -53.2715 58.2031 -50.5371 62.0117 -50.5371 Z M 62.0117 -53.6621 C 59.2773 -53.6621 57.0801 -55.8594 57.0801 -58.5938 C 57.0801 -61.377 59.2773 -63.5254 62.0117 -63.5254 C 64.7949 -63.5254 66.9434 -61.377 66.9434 -58.5938 C 66.9434 -55.8594 64.7949 -53.6621 62.0117 -53.6621 Z M 11.377 -36.7676 C 10.498 -36.7676 9.76562 -36.0352 9.76562 -35.1074 C 9.76562 -34.1797 10.498 -33.4473 11.377 -33.4473 L 25.6348 -33.4473 C 26.3672 -29.7852 29.6387 -27.0508 33.4961 -27.0508 C 37.3535 -27.0508 40.5762 -29.7852 41.3574 -33.4473 L 82.5684 -33.4473 C 83.4961 -33.4473 84.2285 -34.1797 84.2285 -35.1074 C 84.2285 -36.0352 83.4961 -36.7676 82.5684 -36.7676 L 41.3086 -36.7676 C 40.5273 -40.332 37.3047 -43.0664 33.4961 -43.0664 C 29.6387 -43.0664 26.416 -40.332 25.6348 -36.7676 Z M 33.4961 -30.127 C 30.7129 -30.127 28.5645 -32.3242 28.5645 -35.1074 C 28.5645 -37.8418 30.7129 -39.9902 33.4961 -39.9902 C 36.2793 -39.9902 38.4277 -37.8418 38.4277 -35.1074 C 38.4277 -32.3242 36.2793 -30.127 33.4961 -30.127 Z M 62.0117 -3.61328 C 65.8691 -3.61328 69.0918 -6.39648 69.873 -10.0098 L 82.6172 -10.0098 C 83.4961 -10.0098 84.2285 -10.7422 84.2285 -11.6699 C 84.2285 -12.5977 83.4961 -13.3301 82.6172 -13.3301 L 69.873 -13.3301 C 69.0918 -16.9434 65.8203 -19.6777 62.0117 -19.6777 C 58.2031 -19.6777 54.9316 -16.9434 54.1504 -13.3301 L 11.4258 -13.3301 C 10.498 -13.3301 9.76562 -12.5977 9.76562 -11.6699 C 9.76562 -10.7422 10.498 -10.0098 11.4258 -10.0098 L 54.1504 -10.0098 C 54.9316 -6.39648 58.1543 -3.61328 62.0117 -3.61328 Z M 62.0117 -6.73828 C 59.2773 -6.73828 57.0801 -8.93555 57.0801 -11.6699 C 57.0801 -14.4531 59.2773 -16.6016 62.0117 -16.6016 C 64.7949 -16.6016 66.9434 -14.4531 66.9434 -11.6699 C 66.9434 -8.93555 64.7949 -6.73828 62.0117 -6.73828 Z"/>
  </g>
  <g id="Ultralight-S" transform="matrix(1 0 0 1 513.202 696)">
   <path d="M 62.0117 -51.0254 C 65.7715 -51.0254 68.8965 -53.8086 69.4824 -57.373 L 82.1289 -57.373 C 82.7637 -57.373 83.252 -57.9102 83.252 -58.4961 C 83.252 -59.082 82.7637 -59.6191 82.1289 -59.6191 L 69.5312 -59.6191 C 68.9941 -63.2812 65.8203 -66.1621 62.0117 -66.1621 C 58.2031 -66.1621 55.0293 -63.2812 54.4922 -59.6191 L 10.8887 -59.6191 C 10.2539 -59.6191 9.76562 -59.082 9.76562 -58.4961 C 9.76562 -57.9102 10.2539 -57.373 10.8887 -57.373 L 54.541 -57.373 C 55.127 -53.8086 58.252 -51.0254 62.0117 -51.0254 Z M 62.0117 -53.5156 C 59.1309 -53.5156 56.9336 -55.7617 56.9336 -58.6426 C 56.9336 -61.4746 59.1309 -63.7207 62.0117 -63.7207 C 64.8926 -63.7207 67.0898 -61.4746 67.0898 -58.6426 C 67.0898 -55.7617 64.8926 -53.5156 62.0117 -53.5156 Z M 10.8398 -36.1816 C 10.2539 -36.1816 9.76562 -35.6934 9.76562 -35.0586 C 9.76562 -34.4727 10.2539 -33.9844 10.8398 -33.9844 L 25.3906 -33.9844 C 25.9277 -30.2734 29.1016 -27.4414 32.9102 -27.4414 C 36.7188 -27.4414 39.8926 -30.2734 40.3809 -33.9844 L 82.1289 -33.9844 C 82.7637 -33.9844 83.252 -34.4727 83.252 -35.0586 C 83.252 -35.6934 82.7637 -36.1816 82.1289 -36.1816 L 40.3809 -36.1816 C 39.8438 -39.7949 36.6699 -42.5781 32.9102 -42.5781 C 29.1504 -42.5781 25.9766 -39.7949 25.3906 -36.1816 Z M 32.9102 -29.9316 C 30.0293 -29.9316 27.832 -32.2266 27.832 -35.0586 C 27.832 -37.9395 30.0293 -40.1367 32.9102 -40.1367 C 35.7422 -40.1367 37.9883 -37.9395 37.9883 -35.0586 C 37.9883 -32.2266 35.7422 -29.9316 32.9102 -29.9316 Z M 62.0117 -4.00391 C 65.8203 -4.00391 68.9941 -6.88477 69.5312 -10.5469 L 82.1289 -10.5469 C 82.7637 -10.5469 83.252 -11.0352 83.252 -11.6211 C 83.252 -12.2559 82.7637 -12.7441 82.1289 -12.7441 L 69.4824 -12.7441 C 68.9453 -16.3574 65.7715 -19.1406 62.0117 -19.1406 C 58.252 -19.1406 55.0781 -16.3574 54.541 -12.7441 L 10.8887 -12.7441 C 10.2539 -12.7441 9.76562 -12.2559 9.76562 -11.6211 C 9.76562 -11.0352 10.2539 -10.5469 10.8887 -10.5469 L 54.4922 -10.5469 C 55.0293 -6.88477 58.2031 -4.00391 62.0117 -4.00391 Z M 62.0117 -6.49414 C 59.1309 -6.49414 56.9336 -8.78906 56.9336 -11.6211 C 56.9336 -14.502 59.1309 -16.6992 62.0117 -16.6992 C 64.8926 -16.6992 67.0898 -14.502 67.0898 -11.6211 C 67.0898 -8.78906 64.8926 -6.49414 62.0117 -6.49414 Z"/>
  </g>
 </g>
</svg>
