<?xml version="1.0" encoding="utf-8"?>
<!-- Generator: Adobe Illustrator 25.4.1, SVG Export Plug-In . SVG Version: 6.00 Build 0)  -->
<svg version="1.1" id="Layer_1" xmlns="http://www.w3.org/2000/svg" xmlns:xlink="http://www.w3.org/1999/xlink" x="0px" y="0px"
	 viewBox="0 0 3300 2200" style="enable-background:new 0 0 3300 2200;" xml:space="preserve">
<style type="text/css">
	.st0{fill:#FFFFFF;}
	.st1{fill:none;stroke:#000000;stroke-width:0.5;}
	.st2{font-family:'Arial-BoldMT';}
	.st3{font-size:12px;}
	.st4{font-family:'ArialMT';}
	.st5{fill:none;stroke:#00AEEF;stroke-width:0.5;}
	.st6{fill:#27AAE1;}
	.st7{fill:none;stroke:#27AAE1;stroke-width:0.5;}
</style>
<g id="Notes">
	<rect id="artboard" x="2.3" y="-0.6" class="st0" width="3300" height="2200"/>
	<line class="st1" x1="265.3" y1="291.4" x2="3038.3" y2="291.4"/>
	<text transform="matrix(1 0 0 1 265.2525 321.4369)" class="st2 st3">Weight/Scale Variations</text>
	<text transform="matrix(1 0 0 1 538.2887 321.4369)" class="st4 st3">Ultralight</text>
	<text transform="matrix(1 0 0 1 847.0026 321.4369)" class="st4 st3">Thin</text>
	<text transform="matrix(1 0 0 1 1142.3717 321.4369)" class="st4 st3">Light</text>
	<text transform="matrix(1 0 0 1 1431.0807 321.4369)" class="st4 st3">Regular</text>
	<text transform="matrix(1 0 0 1 1727.4727 321.4369)" class="st4 st3">Medium</text>
	<text transform="matrix(1 0 0 1 2020.5088 321.4369)" class="st4 st3">Semibold</text>
	<text transform="matrix(1 0 0 1 2330.2236 321.4369)" class="st4 st3">Bold</text>
	<text transform="matrix(1 0 0 1 2621.9355 321.4369)" class="st4 st3">Heavy</text>
	<text transform="matrix(1 0 0 1 2920.9805 321.4369)" class="st4 st3">Black</text>
	<line class="st1" x1="265.3" y1="1902.4" x2="3038.3" y2="1902.4"/>
	<g transform="matrix(1 0 0 1 263 1933)">
		<path d="M11.5,0.3c4.3,0,7.9-3.6,7.9-7.9c0-4.3-3.6-7.9-7.9-7.9c-4.3,0-7.9,3.6-7.9,7.9C3.6-3.3,7.2,0.3,11.5,0.3z M11.5-1.2
			C8-1.2,5.1-4.1,5.1-7.6c0-3.6,2.8-6.4,6.4-6.4c3.6,0,6.4,2.8,6.4,6.4C17.9-4.1,15.1-1.2,11.5-1.2z M8.6-6.9h2.1v2.1
			c0,0.4,0.3,0.7,0.7,0.7c0.4,0,0.7-0.3,0.7-0.7v-2.1h2.1c0.4,0,0.7-0.3,0.7-0.7c0-0.4-0.3-0.7-0.7-0.7h-2.1v-2.1
			c0-0.4-0.3-0.8-0.7-0.8c-0.4,0-0.7,0.3-0.7,0.8v2.1H8.6C8.2-8.3,7.9-8,7.9-7.6C7.9-7.2,8.2-6.9,8.6-6.9z"/>
	</g>
	<g transform="matrix(1 0 0 1 281.506 1933)">
		<path d="M14,2.3c5.4,0,10-4.5,10-10c0-5.4-4.5-10-10-10c-5.4,0-10,4.5-10,10C4-2.2,8.5,2.3,14,2.3z M14,0.7C9.4,0.7,5.7-3,5.7-7.6
			c0-4.6,3.7-8.3,8.3-8.3c4.6,0,8.3,3.7,8.3,8.3C22.3-3,18.6,0.7,14,0.7z M10.2-6.8h2.9v2.9c0,0.5,0.3,0.8,0.8,0.8
			c0.5,0,0.8-0.3,0.8-0.8v-2.9h2.9c0.5,0,0.8-0.3,0.8-0.8c0-0.5-0.3-0.8-0.8-0.8h-2.9v-2.9c0-0.5-0.3-0.8-0.8-0.8
			c-0.5,0-0.8,0.3-0.8,0.8v2.9h-2.9c-0.5,0-0.8,0.3-0.8,0.8C9.4-7.1,9.7-6.8,10.2-6.8z"/>
	</g>
	<g transform="matrix(1 0 0 1 304.924 1933)">
		<path d="M17.2,5.1c7,0,12.7-5.8,12.7-12.7c0-7-5.8-12.7-12.7-12.7c-7,0-12.7,5.8-12.7,12.7C4.5-0.7,10.3,5.1,17.2,5.1z M17.2,3.3
			c-6,0-10.9-4.9-10.9-10.9c0-6,4.8-10.9,10.9-10.9c6,0,10.9,4.9,10.9,10.9C28.1-1.6,23.3,3.3,17.2,3.3z M12.3-6.7h4v4
			c0,0.5,0.4,0.9,0.9,0.9c0.5,0,0.9-0.4,0.9-0.9v-4h4c0.5,0,0.9-0.4,0.9-0.9c0-0.5-0.4-0.9-0.9-0.9h-4v-4c0-0.6-0.4-0.9-0.9-0.9
			c-0.5,0-0.9,0.4-0.9,0.9v4h-4c-0.6,0-0.9,0.4-0.9,0.9C11.4-7.1,11.8-6.7,12.3-6.7z"/>
	</g>
	<text transform="matrix(1 0 0 1 265.2525 1952.4369)" class="st2 st3">Design Variations</text>
	<text transform="matrix(1 0 0 1 265.2525 1970.4369)" class="st4 st3">Symbols are supported in up to nine weights and three scales.</text>
	<text transform="matrix(1 0 0 1 265.2525 1988.4369)" class="st4 st3">For optimal layout with text and other symbols, vertically align</text>
	<text transform="matrix(1 0 0 1 265.2525 2006.4369)" class="st4 st3">symbols with the adjacent text.</text>
	<line class="st5" x1="778.3" y1="1918.4" x2="778.3" y2="1932.4"/>
	<g transform="matrix(1 0 0 1 776 1933)">
		<path d="M5.6-0.4c0.5,0,0.8-0.2,1-0.7l1.3-3.5h5.8l1.3,3.5c0.2,0.5,0.4,0.7,0.9,0.7c0.5,0,0.8-0.3,0.8-0.8c0-0.2,0-0.3-0.1-0.5
			L11.9-14c-0.2-0.6-0.6-0.9-1.2-0.9c-0.6,0-1,0.3-1.2,0.9L4.9-1.8C4.8-1.5,4.7-1.4,4.7-1.2C4.7-0.7,5.1-0.4,5.6-0.4z M8.3-6.1
			l2.4-6.6h0l2.4,6.6H8.3z"/>
	</g>
	<line class="st5" x1="795.1" y1="1918.4" x2="795.1" y2="1932.4"/>
	<text transform="matrix(1 0 0 1 778.2524 1952.4369)" class="st2 st3">Margins</text>
	<text transform="matrix(1 0 0 1 778.2524 1970.4369)" class="st4 st3">Leading and trailing margins on the left and right side of each symbol</text>
	<text transform="matrix(1 0 0 1 778.2524 1988.4369)" class="st4 st3">can be adjusted by modifying the x-location of the margin guidelines.</text>
	<text transform="matrix(1 0 0 1 778.2524 2006.4369)" class="st4 st3">Modifications are automatically applied proportionally to all</text>
	<text transform="matrix(1 0 0 1 778.2524 2024.4369)" class="st4 st3">scales and weights.</text>
	<g transform="matrix(1 0 0 1 1289 1933)">
		<path d="M5.1,1.3L6.8,3c0.9,0.9,1.8,0.8,2.8-0.2L19.7-8.4c0.3,0.1,0.5,0.1,0.8,0l1.1-0.2l0.7,0.7l0,0.6c0,0.5,0.1,0.9,0.6,1.4
			l0.8,0.7c0.5,0.5,1.1,0.5,1.6,0l2.9-2.9c0.5-0.5,0.4-1.1,0-1.5l-0.8-0.8c-0.5-0.5-0.8-0.6-1.3-0.6l-0.6,0l-0.6-0.6l0.2-1.1
			c0.1-0.6,0-1-0.6-1.6l-2.2-2.2c-3.3-3.3-7.8-3.2-10.7-0.4c-0.4,0.4-0.4,1-0.2,1.4c0.2,0.4,0.7,0.6,1.3,0.4c1.5-0.3,3-0.4,4.4,0.5
			l-0.6,1.5c-0.2,0.5-0.2,0.9-0.1,1.2L5.3-1.5C4.3-0.5,4.2,0.4,5.1,1.3z M13-16.5c2.4-1.8,5.7-1.5,7.9,0.8l2.4,2.4
			c0.2,0.2,0.3,0.4,0.2,0.8l-0.3,1.5l1.5,1.5l1-0.1c0.3,0,0.3,0,0.5,0.2l0.6,0.6l-2.4,2.4L23.8-7c-0.2-0.2-0.2-0.3-0.2-0.5l0.1-1
			L22.2-10l-1.5,0.3c-0.3,0.1-0.5,0-0.7-0.2l-2-2c-0.3-0.2-0.3-0.4-0.1-0.8l0.9-2.1c-1.6-1.5-3.6-2.1-5.6-1.5
			C12.9-16.3,12.9-16.4,13-16.5z M7.5,1.7L6.4,0.6C5.9,0.1,6-0.2,6.4-0.6l10.8-10.2l1.5,1.5l-10,11C8.3,2.1,8,2.2,7.5,1.7z"/>
	</g>
	<text transform="matrix(1 0 0 1 1291.2524 1952.4369)" class="st2 st3">Exporting</text>
	<text transform="matrix(1 0 0 1 1291.2524 1970.4369)" class="st4 st3">Symbols should be outlined when exporting to ensure the</text>
	<text transform="matrix(1 0 0 1 1291.2524 1988.4369)" class="st4 st3">design is preserved when submitting to Xcode.</text>
	<text id="template-version" transform="matrix(1 0 0 1 2961.1021 1932.4369)" class="st4 st3">Template v.2.0</text>
	<text transform="matrix(1 0 0 1 2880.8286 1950.4369)" class="st4 st3">Requires Xcode 12 or greater</text>
	<text transform="matrix(1 0 0 1 2914.186 1968.4369)" class="st4 st3">Generated from square</text>
	<text transform="matrix(1 0 0 1 2924.1763 1986.4369)" class="st4 st3">Typeset at 100 points</text>
	<text transform="matrix(1 0 0 1 265.2525 725.4369)" class="st4 st3">Small</text>
	<text transform="matrix(1 0 0 1 265.2525 1155.4369)" class="st4 st3">Medium</text>
	<text transform="matrix(1 0 0 1 265.2525 1585.4369)" class="st4 st3">Large</text>
</g>
<g id="Guides">
	<g id="H-reference" transform="matrix(1 0 0 1 339 696)">
		<path class="st6" d="M1,0h2.7L13-24.5h32.8L55.1,0h2.6L30.6-70.5h-2.5L1,0z M29.3-67.1L29.3-67.1l15.5,40.4h-31L29.3-67.1z"/>
	</g>
	<line id="Baseline-S" class="st7" x1="263" y1="696" x2="3036" y2="696"/>
	<line id="Capline-S" class="st7" x1="263" y1="625.5" x2="3036" y2="625.5"/>
	<g id="H-reference_00000098903079557679361440000000892817362728552122_" transform="matrix(1 0 0 1 339 1126)">
		<path class="st6" d="M1,0h2.7L13-24.5h32.8L55.1,0h2.6L30.6-70.5h-2.5L1,0z M29.3-67.1L29.3-67.1l15.5,40.4h-31L29.3-67.1z"/>
	</g>
	<line id="Baseline-M" class="st7" x1="263" y1="1126" x2="3036" y2="1126"/>
	<line id="Capline-M" class="st7" x1="263" y1="1055.5" x2="3036" y2="1055.5"/>
	<g id="H-reference_00000070110939478840791560000002173811851892432301_" transform="matrix(1 0 0 1 339 1556)">
		<path class="st6" d="M1,0h2.7L13-24.5h32.8L55.1,0h2.6L30.6-70.5h-2.5L1,0z M29.3-67.1L29.3-67.1l15.5,40.4h-31L29.3-67.1z"/>
	</g>
	<line id="Baseline-L" class="st7" x1="263" y1="1556" x2="3036" y2="1556"/>
	<line id="Capline-L" class="st7" x1="263" y1="1485.5" x2="3036" y2="1485.5"/>
	<line id="left-margin" class="st5" x1="1392.4" y1="1030.8" x2="1392.4" y2="1150.1"/>
	<line id="right-margin" class="st5" x1="1507.2" y1="1030.8" x2="1507.2" y2="1150.1"/>
</g>
<g id="Symbols">
	<g id="Black-L" transform="matrix(1 0 0 1 2855.62 1556)">
		<path d="M143.6,0.7H92c-4.1,0-7.4-3.3-7.4-7.4S87.9-14,92-14h51.6c4.1,0,7.4,3.3,7.4,7.4S147.7,0.7,143.6,0.7z"/>
		<path d="M143.6,21.4H92c-4.1,0-7.4-3.3-7.4-7.4s3.3-7.4,7.4-7.4h51.6c4.1,0,7.4,3.3,7.4,7.4S147.7,21.4,143.6,21.4z"/>
		<path d="M143.6,42H92c-4.1,0-7.4-3.3-7.4-7.4s3.3-7.4,7.4-7.4h51.6c4.1,0,7.4,3.3,7.4,7.4S147.7,42,143.6,42z"/>
		<g>
			<line x1="9.4" y1="34.6" x2="52.1" y2="-8.1"/>
			<path d="M9.4,43.5c-2.3,0-4.5-0.9-6.3-2.6c-3.5-3.5-3.5-9.1,0-12.6l42.7-42.7c3.5-3.5,9.1-3.5,12.6,0c3.5,3.5,3.5,9.1,0,12.6
				L15.7,40.9C14,42.7,11.7,43.5,9.4,43.5z"/>
		</g>
		<path d="M71.4,20.1c-2.3,0-4.6-0.9-6.3-2.6L9.8-37.9c-5.4-5.4-5.5-14.3-0.1-19.8l17.2-18c0,0,0.1-0.1,0.1-0.1
			c10.7-10.7,27.4-11.8,38.9-3l19.5-20.7c0.1-0.1,0.1-0.1,0.2-0.2c11.5-11.5,30.2-11.5,41.7,0l16.5,16.6c11.5,11.5,11.5,30.2,0,41.7
			c-0.1,0.1-0.1,0.1-0.2,0.2l-21.8,20.4c-3.6,3.3-9.2,3.2-12.5-0.4c-3.3-3.6-3.2-9.2,0.4-12.5L131.4-54c4.5-4.6,4.5-12-0.1-16.5
			l-16.5-16.6c-4.5-4.5-11.9-4.6-16.5-0.1L76.3-64c-0.1,0.1-0.1,0.1-0.2,0.2c-2.7,2.7-6.2,4.1-9.9,4.1s-7.3-1.5-9.9-4.1
			c-4.4-4.4-11.8-4.2-16.6,0.5L24.9-47.9L77.7,4.9c3.5,3.5,3.5,9.1,0,12.6C75.9,19.2,73.6,20.1,71.4,20.1z"/>
	</g>
	<g id="Heavy-L" transform="matrix(1 0 0 1 2559.93 1556)">
		<path d="M142.6-3.7H91c-4.1,0-7.4-3.3-7.4-7.4s3.3-7.4,7.4-7.4h51.6c4.1,0,7.4,3.3,7.4,7.4S146.6-3.7,142.6-3.7z"/>
		<path d="M142.6,16.9H91c-4.1,0-7.4-3.3-7.4-7.4s3.3-7.4,7.4-7.4h51.6c4.1,0,7.4,3.3,7.4,7.4S146.6,16.9,142.6,16.9z"/>
		<path d="M142.6,37.5H91c-4.1,0-7.4-3.3-7.4-7.4s3.3-7.4,7.4-7.4h51.6c4.1,0,7.4,3.3,7.4,7.4S146.6,37.5,142.6,37.5z"/>
		<g>
			<line x1="8.4" y1="30.2" x2="51.1" y2="-12.6"/>
			<path d="M8.4,38c-2,0-4-0.8-5.6-2.3c-3.1-3.1-3.1-8.1,0-11.1l42.7-42.7c3.1-3.1,8.1-3.1,11.1,0c3.1,3.1,3.1,8.1,0,11.1L14,35.7
				C12.4,37.3,10.4,38,8.4,38z"/>
		</g>
		<path d="M70.3,14.6c-2,0-4-0.8-5.6-2.3L9.5-43.1c-2.5-2.5-3.8-5.7-3.8-9.2c0-3.4,1.3-6.7,3.7-9.1l17.2-18c0,0,0.1-0.1,0.1-0.1
			C37.3-90.2,53.9-91,65-82l20.1-21.3c0.1-0.1,0.1-0.1,0.2-0.2c5.4-5.4,12.5-8.4,20.2-8.4s14.8,3,20.2,8.4l16.5,16.6
			c5.4,5.4,8.3,12.5,8.3,20.1c0,7.6-3,14.8-8.4,20.2c-0.1,0.1-0.1,0.1-0.2,0.2L120.2-26c-3.2,3-8.2,2.8-11.1-0.4
			c-3-3.2-2.8-8.2,0.4-11.1L131-57.8c2.4-2.4,3.7-5.6,3.7-8.9c0-3.4-1.3-6.6-3.7-9l-16.5-16.6c-2.4-2.4-5.6-3.7-9-3.7
			c-3.4,0-6.5,1.3-9,3.7L74.6-69.1c-0.1,0.1-0.1,0.1-0.2,0.2c-2.5,2.5-5.7,3.8-9.2,3.8S58.4-66.5,56-69c-4.8-4.8-12.9-4.6-18,0.5
			L22.5-52.4L75.9,1.2c3.1,3.1,3.1,8.1,0,11.1C74.4,13.8,72.4,14.6,70.3,14.6z M20.6-54.3L20.6-54.3C20.6-54.2,20.6-54.3,20.6-54.3z
			"/>
	</g>
	<g id="Bold-L" transform="matrix(1 0 0 1 2264.37 1556)">
		<path d="M131.7-3.7H80.1c-4.1,0-7.4-3.3-7.4-7.4s3.3-7.4,7.4-7.4h51.6c4.1,0,7.4,3.3,7.4,7.4S135.7-3.7,131.7-3.7z"/>
		<path d="M131.7,16.9H80.1c-4.1,0-7.4-3.3-7.4-7.4s3.3-7.4,7.4-7.4h51.6c4.1,0,7.4,3.3,7.4,7.4S135.7,16.9,131.7,16.9z"/>
		<path d="M131.7,37.5H80.1c-4.1,0-7.4-3.3-7.4-7.4s3.3-7.4,7.4-7.4h51.6c4.1,0,7.4,3.3,7.4,7.4S135.7,37.5,131.7,37.5z"/>
		<g>
			<line x1="-2.5" y1="30.2" x2="40.2" y2="-12.6"/>
			<path d="M-2.5,37.5c-1.9,0-3.8-0.7-5.2-2.2c-2.9-2.9-2.9-7.5,0-10.4L35-17.8c2.9-2.9,7.5-2.9,10.4,0c2.9,2.9,2.9,7.5,0,10.4
				L2.7,35.4C1.3,36.8-0.6,37.5-2.5,37.5z"/>
		</g>
		<path d="M59.4,14.1c-1.9,0-3.8-0.7-5.2-2.2L-1-43.5c-4.9-4.9-4.9-12.8-0.1-17.6l17.2-18c0,0,0.1-0.1,0.1-0.1
			c10.5-10.5,27.1-11.3,37.9-2.1L74.6-103c0.1-0.1,0.1-0.1,0.2-0.2c10.9-10.9,28.7-10.9,39.6,0l16.5,16.6
			c10.9,10.9,10.9,28.7,0,39.6c-0.1,0.1-0.1,0.1-0.2,0.2l-21.8,20.4c-3,2.8-7.6,2.6-10.4-0.3s-2.6-7.6,0.3-10.4l21.7-20.3
			c5.1-5.2,5.1-13.5-0.1-18.7l-16.5-16.6c-5.1-5.1-13.5-5.2-18.7-0.1L63.3-69.5c-0.1,0.1-0.1,0.1-0.2,0.2c-2.4,2.4-5.5,3.7-8.9,3.7
			s-6.5-1.3-8.9-3.7c-5-5-13.4-4.8-18.7,0.5L10.9-52.4L64.7,1.5c2.9,2.9,2.9,7.6,0,10.4C63.2,13.4,61.3,14.1,59.4,14.1z"/>
	</g>
	<g id="Semibold-L" transform="matrix(1 0 0 1 1968.44 1556)">
		<path d="M140.6-4.2H89c-3.6,0-6.5-2.9-6.5-6.5s2.9-6.5,6.5-6.5h51.6c3.6,0,6.5,2.9,6.5,6.5S144.2-4.2,140.6-4.2z"/>
		<path d="M140.6,16.4H89c-3.6,0-6.5-2.9-6.5-6.5s2.9-6.5,6.5-6.5h51.6c3.6,0,6.5,2.9,6.5,6.5S144.2,16.4,140.6,16.4z"/>
		<path d="M140.6,37H89c-3.6,0-6.5-2.9-6.5-6.5S85.5,24,89,24h51.6c3.6,0,6.5,2.9,6.5,6.5S144.2,37,140.6,37z"/>
		<g>
			<line x1="6.5" y1="30.5" x2="49.2" y2="-12.2"/>
			<path d="M6.5,37c-1.7,0-3.3-0.6-4.6-1.9c-2.5-2.5-2.5-6.7,0-9.2l42.7-42.7c2.5-2.5,6.7-2.5,9.2,0c2.5,2.5,2.5,6.7,0,9.2
				L11.1,35.1C9.8,36.4,8.2,37,6.5,37z"/>
		</g>
		<path d="M68.4,13.6c-1.7,0-3.3-0.6-4.6-1.9L8.5-43.7C4-48.2,4-55.6,8.5-60.2l17.2-18c0,0,0.1-0.1,0.1-0.1
			c10.4-10.4,26.9-10.9,37.4-1.5l21-22.3c0,0,0.1-0.1,0.1-0.1c5.1-5.1,11.9-7.9,19.2-7.9s14.1,2.8,19.2,7.9l16.5,16.6
			c10.6,10.6,10.6,27.8,0,38.4c-0.1,0.1-0.1,0.1-0.2,0.2l-21.8,20.4c-2.6,2.5-6.7,2.3-9.2-0.3c-2.5-2.6-2.3-6.7,0.3-9.2l21.7-20.3
			c5.4-5.5,5.4-14.4-0.1-19.9L113.5-93c-2.7-2.7-6.2-4.1-10-4.1c-3.7,0-7.3,1.4-9.9,4.1L71.6-69.7c0,0-0.1,0.1-0.1,0.1
			C66.9-65,59.5-65,55-69.6c-2.6-2.6-6.1-4-9.8-3.9c-3.8,0.1-7.4,1.6-10.1,4.4L18.7-52L73,2.5c2.5,2.5,2.5,6.7,0,9.2
			C71.7,13,70.1,13.6,68.4,13.6z"/>
	</g>
	<g id="Medium-L" transform="matrix(1 0 0 1 1672.31 1556)">
		<path d="M140.1-5.6H88.5c-3,0-5.5-2.5-5.5-5.5s2.5-5.5,5.5-5.5h51.6c3,0,5.5,2.5,5.5,5.5S143.1-5.6,140.1-5.6z"/>
		<path d="M140.1,15H88.5c-3,0-5.5-2.5-5.5-5.5S85.4,4,88.5,4h51.6c3,0,5.5,2.5,5.5,5.5S143.1,15,140.1,15z"/>
		<path d="M140.1,35.7H88.5c-3,0-5.5-2.5-5.5-5.5s2.5-5.5,5.5-5.5h51.6c3,0,5.5,2.5,5.5,5.5S143.1,35.7,140.1,35.7z"/>
		<g>
			<line x1="5.9" y1="30.2" x2="48.6" y2="-12.6"/>
			<path d="M5.9,35.7c-1.4,0-2.8-0.5-3.9-1.6c-2.1-2.1-2.1-5.6,0-7.8l42.7-42.7c2.1-2.1,5.6-2.1,7.8,0c2.1,2.1,2.1,5.6,0,7.8
				L9.8,34.1C8.7,35.1,7.3,35.7,5.9,35.7z"/>
		</g>
		<path d="M67.8,12.2c-1.4,0-2.8-0.5-3.9-1.6L8.7-44.8c-2-2-3.1-4.7-3.1-7.5c0-2.8,1.1-5.5,3.1-7.5l17.2-18c0,0,0.1-0.1,0.1-0.1
			c10.2-10.2,26.6-10.6,36.7-0.8l21.7-23c0,0,0.1-0.1,0.1-0.1c4.9-4.9,11.5-7.7,18.5-7.7s13.5,2.7,18.5,7.7l16.5,16.6
			c10.2,10.2,10.2,26.8,0,37c0,0-0.1,0.1-0.1,0.1L116-27.8c-2.2,2.1-5.7,2-7.8-0.3c-2.1-2.2-2-5.7,0.3-7.8l21.7-20.3
			c2.8-2.9,4.4-6.6,4.4-10.6c0-4-1.6-7.8-4.4-10.7L113.6-94c-2.8-2.8-6.6-4.4-10.7-4.4c-4,0-7.8,1.6-10.7,4.4l-22,23.3
			c0,0-0.1,0.1-0.1,0.1c-2,2-4.7,3.1-7.5,3.1s-5.5-1.1-7.5-3.1c-5.7-5.7-15.3-5.5-21.4,0.5L16.7-52.3l55,55.2c2.1,2.2,2.1,5.6,0,7.8
			C70.6,11.7,69.2,12.2,67.8,12.2z"/>
	</g>
	<g id="Regular-L" transform="matrix(1 0 0 1 1376.38 1556)">
		<path d="M139.3-6.5H87.7c-2.8,0-5.2-2.3-5.2-5.2s2.3-5.2,5.2-5.2h51.6c2.8,0,5.2,2.3,5.2,5.2S142.1-6.5,139.3-6.5z"/>
		<path d="M139.3,14.2H87.7c-2.8,0-5.2-2.3-5.2-5.2s2.3-5.2,5.2-5.2h51.6c2.8,0,5.2,2.3,5.2,5.2S142.1,14.2,139.3,14.2z"/>
		<path d="M139.3,34.8H87.7c-2.8,0-5.2-2.3-5.2-5.2s2.3-5.2,5.2-5.2h51.6c2.8,0,5.2,2.3,5.2,5.2S142.1,34.8,139.3,34.8z"/>
		<g>
			<line x1="5.1" y1="29.6" x2="47.8" y2="-13.1"/>
			<path d="M5.1,34.8c-1.3,0-2.6-0.5-3.6-1.5c-2-2-2-5.3,0-7.3l42.7-42.7c2-2,5.3-2,7.3,0c2,2,2,5.3,0,7.3L8.8,33.3
				C7.8,34.3,6.4,34.8,5.1,34.8z"/>
		</g>
		<path d="M67.1,11.4c-1.3,0-2.6-0.5-3.7-1.5L8.1-45.6c-1.9-1.9-3-4.5-3-7.3c0-2.7,1.1-5.3,3-7.2l17.2-18c0,0,0.1-0.1,0.1-0.1
			c4.9-4.9,11.3-7.6,18.1-7.8c7-0.2,13.5,2.4,18.4,7.3L83.8-102c0,0,0.1-0.1,0.1-0.1c10.1-10.1,26.4-10.1,36.5,0l16.5,16.6
			c4.9,4.9,7.5,11.3,7.5,18.2s-2.7,13.4-7.6,18.2c0,0-0.1,0.1-0.1,0.1L115-28.5c-2.1,1.9-5.3,1.8-7.3-0.2c-1.9-2.1-1.8-5.3,0.2-7.3
			l21.7-20.3c2.9-2.9,4.5-6.8,4.5-10.9c0-4.1-1.6-8-4.5-10.9l-16.5-16.6c-6-6-15.8-6-21.8,0l-22,23.3c0,0-0.1,0.1-0.1,0.1
			c-4,4-10.6,4-14.6,0c-2.9-2.9-6.7-4.4-10.8-4.3c-4.1,0.1-8,1.8-11,4.8l-17.2,18c0,0-0.1,0.1-0.1,0.1L70.7,2.6c2,2,2,5.3,0,7.3
			C69.7,10.9,68.4,11.4,67.1,11.4z"/>
	</g>
	<g id="Light-L" transform="matrix(1 0 0 1 1080.5 1556)">
		<path d="M142-7.6H90.4c-1.9,0-3.5-1.6-3.5-3.5s1.6-3.5,3.5-3.5H142c1.9,0,3.5,1.6,3.5,3.5S144-7.6,142-7.6z"/>
		<path d="M142,13H90.4c-1.9,0-3.5-1.6-3.5-3.5S88.5,6,90.4,6H142c1.9,0,3.5,1.6,3.5,3.5S144,13,142,13z"/>
		<path d="M142,33.7H90.4c-1.9,0-3.5-1.6-3.5-3.5s1.6-3.5,3.5-3.5H142c1.9,0,3.5,1.6,3.5,3.5S144,33.7,142,33.7z"/>
		<g>
			<line x1="7.9" y1="30.2" x2="50.6" y2="-12.6"/>
			<path d="M7.9,33.7c-0.9,0-1.8-0.3-2.5-1c-1.4-1.4-1.4-3.6,0-4.9L48.1-15c1.4-1.4,3.6-1.4,4.9,0c1.4,1.4,1.4,3.6,0,4.9L10.4,32.6
				C9.7,33.3,8.8,33.7,7.9,33.7z"/>
		</g>
		<path d="M69.8,10.2c-0.9,0-1.8-0.3-2.5-1L12.1-46.2c-1.6-1.6-2.5-3.8-2.5-6.1c0-2.3,0.9-4.5,2.5-6.1l17.2-18
			c9.6-9.6,24.9-9.8,34.2-0.6c0.4,0.4,0.9,0.5,1.2,0.5c0.3,0,0.7-0.1,1.1-0.5l22-23.3c0,0,0-0.1,0.1-0.1c4.6-4.6,10.6-7.1,17.1-7.1
			c6.4,0,12.5,2.5,17.1,7.1l16.5,16.6c9.4,9.4,9.4,24.7,0,34.1c0,0-0.1,0.1-0.1,0.1l-21.8,20.4c-1.4,1.3-3.6,1.2-4.9-0.2
			c-1.3-1.4-1.2-3.6,0.2-4.9l21.7-20.3c6.6-6.7,6.6-17.5,0-24.2L117-95.5c-3.2-3.2-7.5-5-12.1-5c-4.6,0-8.9,1.8-12.1,5l-22,23.3
			c0,0,0,0.1-0.1,0.1c-1.6,1.6-3.8,2.5-6.1,2.5c-2.3,0-4.5-0.9-6.1-2.5c-6.5-6.5-17.4-6.3-24.2,0.5l-17.2,18c-0.5,0.5-0.5,1-0.5,1.2
			s0.1,0.8,0.5,1.2L72.3,4.3c1.4,1.4,1.4,3.6,0,5C71.6,9.9,70.7,10.2,69.8,10.2z"/>
	</g>
	<g id="Thin-L" transform="matrix(1 0 0 1 784.889 1556)">
		<path d="M137.3-8.6H85.7c-1.2,0-2.1-1-2.1-2.1s1-2.1,2.1-2.1h51.6c1.2,0,2.1,1,2.1,2.1S138.5-8.6,137.3-8.6z"/>
		<path d="M137.3,12.1H85.7c-1.2,0-2.1-1-2.1-2.1s1-2.1,2.1-2.1h51.6c1.2,0,2.1,1,2.1,2.1S138.5,12.1,137.3,12.1z"/>
		<path d="M137.3,32.7H85.7c-1.2,0-2.1-1-2.1-2.1s1-2.1,2.1-2.1h51.6c1.2,0,2.1,1,2.1,2.1S138.5,32.7,137.3,32.7z"/>
		<g>
			<line x1="3.2" y1="30.6" x2="45.9" y2="-12.1"/>
			<path d="M3.2,32.7c-0.5,0-1.1-0.2-1.5-0.6c-0.8-0.8-0.8-2.2,0-3l42.7-42.7c0.8-0.8,2.2-0.8,3,0c0.8,0.8,0.8,2.2,0,3L4.7,32.1
				C4.3,32.5,3.7,32.7,3.2,32.7z"/>
		</g>
		<path d="M65.1,9.3c-0.5,0-1.1-0.2-1.5-0.6L8.3-46.8c-2.8-2.8-2.8-7.5,0-10.3l17.2-18c9.1-9.1,23.5-9.3,32.2-0.6
			c1.1,1.1,3.1,1.1,4.3,0l22-23.3c4.3-4.3,10.1-6.7,16.1-6.7c6.1,0,11.8,2.4,16.1,6.7l16.5,16.6c8.9,8.9,8.9,23.3,0,32.2L111-29.8
			c-0.9,0.8-2.2,0.8-3-0.1s-0.8-2.2,0.1-3l21.8-20.4c7.2-7.2,7.2-18.9-0.1-26.1L113.3-96c-3.5-3.5-8.1-5.4-13.1-5.4
			c-4.9,0-9.6,1.9-13.1,5.4l-22,23.3c-1.4,1.4-3.2,2.2-5.2,2.2s-3.8-0.8-5.2-2.1c-7.1-7.1-18.8-6.8-26.2,0.5l-17.2,18
			c-1.2,1.2-1.2,3.1,0,4.3L66.6,5.6c0.8,0.8,0.8,2.2,0,3C66.2,9.1,65.7,9.3,65.1,9.3z"/>
	</g>
	<g id="Ultralight-L" transform="matrix(1 0 0 1 488.739 1556)">
		<path d="M139.3-9.9H87.7c-0.7,0-1.2-0.6-1.2-1.2s0.6-1.2,1.2-1.2h51.6c0.7,0,1.2,0.6,1.2,1.2S140-9.9,139.3-9.9z"/>
		<path d="M139.3,10.8H87.7c-0.7,0-1.2-0.6-1.2-1.2s0.6-1.2,1.2-1.2h51.6c0.7,0,1.2,0.6,1.2,1.2S140,10.8,139.3,10.8z"/>
		<path d="M139.3,31.4H87.7c-0.7,0-1.2-0.6-1.2-1.2s0.6-1.2,1.2-1.2h51.6c0.7,0,1.2,0.6,1.2,1.2S140,31.4,139.3,31.4z"/>
		<g>
			<line x1="5.1" y1="30.2" x2="47.8" y2="-12.6"/>
			<path d="M5.1,31.4c-0.3,0-0.6-0.1-0.9-0.4c-0.5-0.5-0.5-1.3,0-1.8L47-13.4c0.5-0.5,1.3-0.5,1.8,0c0.5,0.5,0.5,1.3,0,1.8L6,31.1
				C5.8,31.3,5.5,31.4,5.1,31.4z"/>
		</g>
		<path d="M67.1,8c-0.3,0-0.6-0.1-0.9-0.4L10.9-47.8C9.7-49,9-50.6,9-52.3c0-1.7,0.7-3.3,1.9-4.5l17.2-18c8.7-8.7,22.6-8.9,31-0.5
			c1.5,1.5,4.1,1.5,5.5,0l22-23.3c4.2-4.2,9.7-6.4,15.5-6.4c5.8,0,11.3,2.3,15.5,6.4l16.5,16.6c8.5,8.5,8.5,22.4,0,31l-21.8,20.4
			c-0.5,0.5-1.3,0.4-1.8-0.1c-0.5-0.5-0.4-1.3,0.1-1.8L132.4-53c7.5-7.5,7.5-19.8,0-27.4L115.9-97c-3.7-3.7-8.5-5.7-13.7-5.7
			c-5.2,0-10,2-13.7,5.7l-22,23.3c-1.2,1.2-2.8,1.9-4.6,1.9c-1.7,0-3.3-0.7-4.5-1.9c-7.4-7.4-19.7-7.2-27.4,0.5l-17.2,18
			c-0.8,0.8-1.2,1.7-1.2,2.8c0,1,0.4,2,1.1,2.8L68,5.9c0.5,0.5,0.5,1.3,0,1.8C67.7,7.9,67.4,8,67.1,8z"/>
	</g>
	<g id="Black-M" transform="matrix(1 0 0 1 2872.19 1126)">
		<path d="M113.2-4.6h-40c-3.6,0-6.5-2.9-6.5-6.5s2.9-6.5,6.5-6.5h40c3.6,0,6.5,2.9,6.5,6.5S116.8-4.6,113.2-4.6z"/>
		<path d="M113.2,11.4h-40c-3.6,0-6.5-2.9-6.5-6.5s2.9-6.5,6.5-6.5h40c3.6,0,6.5,2.9,6.5,6.5S116.8,11.4,113.2,11.4z"/>
		<path d="M113.2,27.4h-40c-3.6,0-6.5-2.9-6.5-6.5s2.9-6.5,6.5-6.5h40c3.6,0,6.5,2.9,6.5,6.5S116.8,27.4,113.2,27.4z"/>
		<g>
			<line x1="9.2" y1="20.9" x2="42.3" y2="-12.2"/>
			<path d="M9.2,27.9c-1.8,0-3.6-0.7-4.9-2c-2.7-2.7-2.7-7.1,0-9.8l33.1-33.1c2.7-2.7,7.1-2.7,9.8,0c2.7,2.7,2.7,7.1,0,9.8
				L14.1,25.8C12.8,27.2,11,27.9,9.2,27.9z"/>
		</g>
		<path d="M57.2,9.7c-1.8,0-3.6-0.7-4.9-2l-42.8-43c-4.2-4.2-4.3-11.1-0.1-15.4l13.3-13.9c0,0,0.1-0.1,0.1-0.1
			c8.3-8.3,21.3-9.2,30.2-2.4l15-16c0-0.1,0.1-0.1,0.1-0.1c4.3-4.3,10.1-6.7,16.2-6.7s11.9,2.4,16.2,6.7l12.8,12.9
			c8.9,8.9,8.9,23.5,0,32.4c-0.1,0.1-0.1,0.1-0.2,0.2L96.4-22c-2.8,2.6-7.2,2.5-9.8-0.3s-2.5-7.2,0.3-9.8l16.8-15.7
			c1.7-1.7,2.6-3.9,2.6-6.3c0-2.4-0.9-4.7-2.7-6.4L90.8-73.5c-1.7-1.7-4-2.6-6.4-2.6c-2.4,0-4.6,0.9-6.3,2.6l-17,18
			c0,0.1-0.1,0.1-0.1,0.1c-2.1,2.1-4.8,3.2-7.7,3.2s-5.7-1.1-7.7-3.2c-1.6-1.6-3.8-2.5-6.2-2.4c-2.4,0.1-4.8,1.1-6.5,2.8L21.3-43.1
			L62.1-2.1c2.7,2.7,2.7,7.1,0,9.8C60.8,9,59,9.7,57.2,9.7z"/>
	</g>
	<g id="Heavy-M" transform="matrix(1 0 0 1 2576.39 1126)">
		<path d="M112.3-9.1h-40c-3.6,0-6.5-2.9-6.5-6.5s2.9-6.5,6.5-6.5h40c3.6,0,6.5,2.9,6.5,6.5S115.9-9.1,112.3-9.1z"/>
		<path d="M112.3,6.9h-40c-3.6,0-6.5-2.9-6.5-6.5s2.9-6.5,6.5-6.5h40c3.6,0,6.5,2.9,6.5,6.5S115.9,6.9,112.3,6.9z"/>
		<path d="M112.3,22.9h-40c-3.6,0-6.5-2.9-6.5-6.5s2.9-6.5,6.5-6.5h40c3.6,0,6.5,2.9,6.5,6.5S115.9,22.9,112.3,22.9z"/>
		<g>
			<line x1="8.3" y1="16.4" x2="41.4" y2="-16.7"/>
			<path d="M8.3,23.2c-1.7,0-3.5-0.7-4.8-2c-2.6-2.6-2.6-6.9,0-9.5l33.1-33.1c2.6-2.6,6.9-2.6,9.5,0c2.6,2.6,2.6,6.9,0,9.5
				L13.1,21.2C11.8,22.5,10,23.2,8.3,23.2z"/>
		</g>
		<path d="M56.3,5c-1.7,0-3.5-0.7-4.8-2l-42.8-43C4.5-44.1,4.5-50.8,8.6-55L22-69c0,0,0.1-0.1,0.1-0.1C26.3-73.4,32-75.8,38-76
			c5.2-0.1,10.1,1.5,14.1,4.6l15.2-16.1c0,0,0.1-0.1,0.1-0.1c8.9-8.9,23.3-8.9,32.2,0l12.8,12.9c4.3,4.3,6.6,10,6.6,16.1
			c0,6.1-2.4,11.8-6.7,16.1c-0.1,0.1-0.1,0.1-0.2,0.2L95.4-26.6c-2.7,2.5-7,2.4-9.5-0.3c-2.5-2.7-2.4-7,0.3-9.5l16.8-15.7
			c3.5-3.6,3.5-9.4-0.1-13L90-78.1c-3.6-3.6-9.4-3.6-13,0l-17,18c0,0-0.1,0.1-0.1,0.1c-2,2-4.7,3.1-7.6,3.1s-5.6-1.1-7.6-3.1
			c-1.7-1.7-3.9-2.6-6.4-2.5c-2.5,0.1-4.8,1.1-6.7,2.9l-11.5,12L61.1-6.5c2.6,2.6,2.6,6.9,0,9.5C59.8,4.4,58,5,56.3,5z"/>
	</g>
	<g id="Bold-M" transform="matrix(1 0 0 1 2280.68 1126)">
		<path d="M101.5-9.1h-40C58-9.1,55-12,55-15.6s2.9-6.5,6.5-6.5h40c3.6,0,6.5,2.9,6.5,6.5S105.1-9.1,101.5-9.1z"/>
		<path d="M101.5,6.9h-40C58,6.9,55,4,55,0.4s2.9-6.5,6.5-6.5h40c3.6,0,6.5,2.9,6.5,6.5S105.1,6.9,101.5,6.9z"/>
		<path d="M101.5,22.9h-40C58,22.9,55,20,55,16.4s2.9-6.5,6.5-6.5h40c3.6,0,6.5,2.9,6.5,6.5S105.1,22.9,101.5,22.9z"/>
		<g>
			<line x1="-2.5" y1="16.4" x2="30.6" y2="-16.7"/>
			<path d="M-2.5,23.1c-1.7,0-3.4-0.6-4.7-1.9c-2.6-2.6-2.6-6.8,0-9.4L26-21.4c2.6-2.6,6.8-2.6,9.4,0c2.6,2.6,2.6,6.8,0,9.4
				L2.2,21.1C0.9,22.4-0.8,23.1-2.5,23.1z"/>
		</g>
		<path d="M45.5,4.9c-1.7,0-3.4-0.6-4.7-1.9L-2-40C-6.1-44.1-6.1-50.8-2-55l13.3-13.9c0,0,0.1-0.1,0.1-0.1c4.3-4.3,9.9-6.7,15.8-6.8
			c5.2-0.1,10.1,1.5,14.1,4.6l15.2-16.2c0,0,0.1-0.1,0.1-0.1c8.8-8.8,23.2-8.8,32,0l12.8,12.9c4.3,4.3,6.6,9.9,6.6,16
			c0,6-2.4,11.7-6.6,16c-0.1,0.1-0.1,0.1-0.2,0.2L84.5-26.7c-2.7,2.5-6.9,2.4-9.4-0.3c-2.5-2.7-2.4-6.9,0.3-9.4l16.8-15.7
			c1.7-1.8,2.7-4.1,2.7-6.6c0-2.5-1-4.9-2.7-6.6L79.4-78.2c-1.8-1.8-4.1-2.7-6.6-2.7c-2.5,0-4.8,1-6.6,2.7l-17,18
			c0,0-0.1,0.1-0.1,0.1c-2,2-4.7,3.1-7.5,3.1S36-58,34-60c-1.7-1.7-4-2.6-6.5-2.5c-2.5,0.1-4.9,1.1-6.7,2.9L9.2-47.5l41,41.1
			c2.6,2.6,2.6,6.8,0,9.4C48.9,4.3,47.2,4.9,45.5,4.9z"/>
	</g>
	<g id="Semibold-M" transform="matrix(1 0 0 1 1984.65 1126)">
		<path d="M110.6-9.4h-40c-3.2,0-5.8-2.6-5.8-5.8s2.6-5.8,5.8-5.8h40c3.2,0,5.8,2.6,5.8,5.8S113.8-9.4,110.6-9.4z"/>
		<path d="M110.6,6.6h-40c-3.2,0-5.8-2.6-5.8-5.8s2.6-5.8,5.8-5.8h40c3.2,0,5.8,2.6,5.8,5.8S113.8,6.6,110.6,6.6z"/>
		<path d="M110.6,22.6h-40c-3.2,0-5.8-2.6-5.8-5.8s2.6-5.8,5.8-5.8h40c3.2,0,5.8,2.6,5.8,5.8S113.8,22.6,110.6,22.6z"/>
		<g>
			<line x1="6.6" y1="16.8" x2="39.7" y2="-16.3"/>
			<path d="M6.6,22.6c-1.5,0-2.9-0.6-4.1-1.7c-2.2-2.2-2.2-5.9,0-8.1l33.1-33.1c2.2-2.2,5.9-2.2,8.1,0c2.2,2.2,2.2,5.9,0,8.1
				L10.7,20.9C9.6,22,8.1,22.6,6.6,22.6z"/>
		</g>
		<path d="M54.6,4.4c-1.5,0-2.9-0.6-4.1-1.7l-42.8-43c-1.8-1.8-2.9-4.3-2.9-6.9c0-2.6,1-5,2.8-6.8L21-67.9c0,0,0.1-0.1,0.1-0.1
			c8.2-8.2,21-8.7,29.4-1.6l15.8-16.8c0,0,0.1-0.1,0.1-0.1c8.5-8.5,22.3-8.5,30.8,0L110-73.7c8.5,8.5,8.5,22.3,0,30.7
			c0,0-0.1,0.1-0.1,0.1L93-27c-2.3,2.2-6,2-8.1-0.3c-2.2-2.3-2-6,0.3-8.1l16.8-15.7c3.9-4,3.9-10.5-0.1-14.4L89.1-78.4
			c-4-4-10.4-4-14.4,0l-17,18.1c0,0-0.1,0.1-0.1,0.1c-3.8,3.8-10,3.8-13.8,0c-3.9-3.9-10.3-3.7-14.5,0.4L17.1-47.2L58.7-5.4
			c2.2,2.2,2.2,5.9,0,8.1C57.6,3.8,56.1,4.4,54.6,4.4z"/>
	</g>
	<g id="Medium-M" transform="matrix(1 0 0 1 1688.47 1126)">
		<path d="M110.1-10.5h-40c-2.8,0-5.1-2.3-5.1-5.1s2.3-5.1,5.1-5.1h40c2.8,0,5.1,2.3,5.1,5.1S112.9-10.5,110.1-10.5z"/>
		<path d="M110.1,5.5h-40c-2.8,0-5.1-2.3-5.1-5.1s2.3-5.1,5.1-5.1h40c2.8,0,5.1,2.3,5.1,5.1S112.9,5.5,110.1,5.5z"/>
		<path d="M110.1,21.5h-40c-2.8,0-5.1-2.3-5.1-5.1s2.3-5.1,5.1-5.1h40c2.8,0,5.1,2.3,5.1,5.1S112.9,21.5,110.1,21.5z"/>
		<g>
			<line x1="6.1" y1="16.4" x2="39.2" y2="-16.7"/>
			<path d="M6.1,21.5c-1.3,0-2.6-0.5-3.6-1.5c-2-2-2-5.2,0-7.2l33.1-33.1c2-2,5.2-2,7.2,0c2,2,2,5.2,0,7.2L9.7,20
				C8.7,21,7.4,21.5,6.1,21.5z"/>
		</g>
		<path d="M54.1,3.3c-1.3,0-2.6-0.5-3.6-1.5l-42.8-43C6-42.8,5-45.1,5-47.5c0-2.4,0.9-4.7,2.6-6.4l13.3-14c0,0,0.1-0.1,0.1-0.1
			c4-4,9.2-6.2,14.8-6.4c5.3-0.1,10.3,1.7,14.2,5.2l16.3-17.3c0,0,0.1-0.1,0.1-0.1c8.2-8.2,21.6-8.2,29.8,0L109-73.5
			c4,4,6.2,9.3,6.2,14.9c0,5.6-2.2,10.9-6.2,14.9c0,0-0.1,0.1-0.1,0.1L92-27.9c-2,1.9-5.2,1.8-7.2-0.2c-1.9-2-1.8-5.2,0.2-7.2
			L101.9-51c4.2-4.3,4.2-11.2-0.1-15.4L89-79.3c-4.2-4.2-11.1-4.3-15.4,0l-17,18.1c0,0-0.1,0.1-0.1,0.1c-1.7,1.7-4,2.7-6.4,2.7
			c-2.4,0-4.7-0.9-6.4-2.7c-2-2-4.7-3.1-7.6-3c-2.9,0.1-5.7,1.3-7.8,3.4L15.6-47.5L57.7-5.3c2,2,2,5.2,0,7.2
			C56.7,2.9,55.4,3.3,54.1,3.3z"/>
	</g>
	<g id="Regular-M" transform="matrix(1 0 0 1 1392.45 1126)">
		<path d="M109.4-12.1h-40c-2.2,0-4-1.8-4-4s1.8-4,4-4h40c2.2,0,4,1.8,4,4S111.6-12.1,109.4-12.1z"/>
		<path d="M109.4,3.9h-40c-2.2,0-4-1.8-4-4s1.8-4,4-4h40c2.2,0,4,1.8,4,4S111.6,3.9,109.4,3.9z"/>
		<path d="M109.4,19.9h-40c-2.2,0-4-1.8-4-4s1.8-4,4-4h40c2.2,0,4,1.8,4,4S111.6,19.9,109.4,19.9z"/>
		<g>
			<line x1="5.4" y1="15.9" x2="38.5" y2="-17.2"/>
			<path d="M5.4,19.9c-1,0-2-0.4-2.8-1.2c-1.6-1.6-1.6-4.1,0-5.7L35.7-20c1.6-1.6,4.1-1.6,5.7,0c1.6,1.6,1.6,4.1,0,5.7L8.2,18.7
				C7.4,19.5,6.4,19.9,5.4,19.9z"/>
		</g>
		<path d="M53.4,1.8c-1,0-2.1-0.4-2.8-1.2l-42.8-43c-3.1-3.1-3.1-8.2,0-11.3l13.3-13.9c3.8-3.8,8.8-6,14.1-6.1
			c5.4-0.1,10.5,1.9,14.2,5.7l17-18c0,0,0.1-0.1,0.1-0.1c3.8-3.8,8.8-5.9,14.1-5.9c5.3,0,10.4,2.1,14.1,5.9l12.8,12.9
			c3.8,3.8,5.8,8.8,5.8,14.1c0,5.3-2.1,10.4-5.9,14.1c0,0-0.1,0.1-0.1,0.1L90.6-29.2c-1.6,1.5-4.1,1.4-5.7-0.2
			c-1.5-1.6-1.4-4.1,0.2-5.7l16.8-15.7c4.6-4.7,4.6-12.3,0-16.9L89.1-80.6c-2.3-2.3-5.3-3.5-8.5-3.5c-3.2,0-6.2,1.2-8.4,3.5
			l-17,18.1c0,0-0.1,0.1-0.1,0.1c-3.1,3.1-8.2,3.1-11.3,0c-2.2-2.2-5.2-3.4-8.4-3.3c-3.2,0.1-6.3,1.4-8.6,3.7L13.4-48.1l42.8,43
			c1.6,1.6,1.6,4.1,0,5.7C55.4,1.4,54.4,1.8,53.4,1.8z"/>
	</g>
	<g id="Light-M" transform="matrix(1 0 0 1 1096.47 1126)">
		<path d="M112.2-12.3h-40c-1.8,0-3.2-1.5-3.2-3.2s1.5-3.2,3.2-3.2h40c1.8,0,3.2,1.5,3.2,3.2S114-12.3,112.2-12.3z"/>
		<path d="M112.2,3.7h-40c-1.8,0-3.2-1.5-3.2-3.2s1.5-3.2,3.2-3.2h40c1.8,0,3.2,1.5,3.2,3.2S114,3.7,112.2,3.7z"/>
		<path d="M112.2,19.7h-40c-1.8,0-3.2-1.5-3.2-3.2s1.5-3.2,3.2-3.2h40c1.8,0,3.2,1.5,3.2,3.2S114,19.7,112.2,19.7z"/>
		<g>
			<line x1="8.3" y1="16.4" x2="41.4" y2="-16.7"/>
			<path d="M8.3,19.7c-0.8,0-1.7-0.3-2.3-1c-1.3-1.3-1.3-3.3,0-4.6L39.1-19c1.3-1.3,3.3-1.3,4.6,0c1.3,1.3,1.3,3.3,0,4.6L10.6,18.7
				C9.9,19.4,9.1,19.7,8.3,19.7z"/>
		</g>
		<path d="M56.3,1.5c-0.8,0-1.7-0.3-2.3-1l-42.8-43C9.7-43.8,9-45.6,9-47.5c0-1.9,0.8-3.8,2.1-5.1l13.3-13.9
			c3.7-3.7,8.5-5.8,13.6-5.9c5.2-0.1,10.1,1.8,13.7,5.4c0.3,0.3,0.8,0.3,1.1,0l17-18.1c7.6-7.6,19.8-7.6,27.3-0.1l12.8,12.9
			c7.5,7.5,7.5,19.7,0,27.2c0,0-0.1,0.1-0.1,0.1L92.9-29.2c-1.3,1.2-3.4,1.2-4.6-0.2c-1.2-1.3-1.2-3.4,0.2-4.6l16.8-15.7
			c4.9-5,4.9-13,0-18L92.5-80.6c-2.4-2.4-5.6-3.7-9-3.7c-3.4,0-6.6,1.3-9,3.7l-17,18.1c-2.9,2.9-7.5,2.9-10.3,0.1
			c-2.4-2.4-5.5-3.6-8.9-3.5c-3.4,0.1-6.6,1.5-9.1,3.9L15.8-48.1c-0.3,0.3-0.3,0.8-0.1,1.1L58.6-4c1.3,1.3,1.3,3.3,0,4.6
			C57.9,1.2,57.1,1.5,56.3,1.5z"/>
	</g>
	<g id="Thin-M" transform="matrix(1 0 0 1 800.758 1126)">
		<path d="M107.7-13.1h-40c-1.1,0-2-0.9-2-2s0.9-2,2-2h40c1.1,0,2,0.9,2,2S108.8-13.1,107.7-13.1z"/>
		<path d="M107.7,2.9h-40c-1.1,0-2-0.9-2-2s0.9-2,2-2h40c1.1,0,2,0.9,2,2S108.8,2.9,107.7,2.9z"/>
		<path d="M107.7,18.9h-40c-1.1,0-2-0.9-2-2s0.9-2,2-2h40c1.1,0,2,0.9,2,2S108.8,18.9,107.7,18.9z"/>
		<g>
			<line x1="3.7" y1="16.9" x2="36.8" y2="-16.3"/>
			<path d="M3.7,18.9c-0.5,0-1-0.2-1.4-0.6c-0.8-0.8-0.8-2,0-2.8l33.1-33.1c0.8-0.8,2-0.8,2.8,0c0.8,0.8,0.8,2,0,2.8L5.1,18.3
				C4.7,18.7,4.2,18.9,3.7,18.9z"/>
		</g>
		<path d="M51.7,0.7c-0.5,0-1-0.2-1.4-0.6l-42.8-43c-1.1-1.1-1.8-2.6-1.8-4.2c0-1.6,0.6-3.1,1.8-4.2l13.4-14
			c7.2-7.2,18.6-7.3,25.5-0.4c0.8,0.8,2.1,0.8,2.8,0l17-18.1c3.4-3.4,8-5.3,12.8-5.3c4.8,0,9.3,1.9,12.7,5.3L104.4-71
			c7,7,7,18.4,0,25.5L87.5-29.7c-0.8,0.8-2.1,0.7-2.8-0.1c-0.8-0.8-0.7-2.1,0.1-2.8l16.9-15.8c5.4-5.4,5.4-14.3,0-19.8L88.8-81
			c-5.5-5.5-14.3-5.5-19.8,0l-17,18.1c-2.4,2.4-6.2,2.4-8.5,0c-5.3-5.3-14.2-5.2-19.8,0.4l-13.4,14c-0.8,0.8-0.8,2.1,0,2.9l42.8,43
			c0.8,0.8,0.8,2,0,2.8C52.7,0.5,52.2,0.7,51.7,0.7z"/>
	</g>
	<g id="Ultralight-M" transform="matrix(1 0 0 1 504.535 1126)">
		<path d="M109.7-14.4h-40c-0.7,0-1.2-0.5-1.2-1.2s0.5-1.2,1.2-1.2h40c0.7,0,1.2,0.5,1.2,1.2S110.3-14.4,109.7-14.4z"/>
		<path d="M109.7,1.6h-40c-0.7,0-1.2-0.5-1.2-1.2s0.5-1.2,1.2-1.2h40c0.7,0,1.2,0.5,1.2,1.2S110.3,1.6,109.7,1.6z"/>
		<path d="M109.7,17.6h-40c-0.7,0-1.2-0.5-1.2-1.2s0.5-1.2,1.2-1.2h40c0.7,0,1.2,0.5,1.2,1.2S110.3,17.6,109.7,17.6z"/>
		<g>
			<line x1="5.7" y1="16.4" x2="38.8" y2="-16.7"/>
			<path d="M5.7,17.6c-0.3,0-0.6-0.1-0.8-0.4c-0.5-0.5-0.5-1.2,0-1.7l33.1-33.1c0.5-0.5,1.2-0.5,1.7,0s0.5,1.2,0,1.7L6.5,17.3
				C6.3,17.5,6,17.6,5.7,17.6z"/>
		</g>
		<path d="M53.7-0.5c-0.3,0-0.6-0.1-0.8-0.4L10-43.8c-1-1-1.5-2.3-1.5-3.7c0-1.4,0.5-2.7,1.5-3.7l13.4-14c3.3-3.3,7.6-5.1,12.2-5.3
			c4.6-0.1,9,1.6,12.2,4.8c1.1,1.1,2.9,1.1,4,0l17-18.1c6.7-6.7,17.6-6.7,24.3,0l12.8,12.9c6.7,6.7,6.7,17.6,0,24.3L88.9-30.7
			c-0.5,0.5-1.2,0.4-1.7-0.1c-0.5-0.5-0.4-1.2,0.1-1.7l16.9-15.8c5.7-5.7,5.7-15.1,0-20.9L91.4-82c-5.8-5.8-15.2-5.8-20.9,0
			l-17,18.1c-2.1,2.1-5.4,2.1-7.4,0c-2.8-2.8-6.5-4.2-10.4-4.1c-3.9,0.1-7.7,1.7-10.5,4.5l-13.4,14c-1.1,1.1-1.1,2.9,0,4l42.8,43
			c0.5,0.5,0.5,1.2,0,1.7C54.3-0.6,54-0.5,53.7-0.5z"/>
	</g>
	<g id="Black-S" transform="matrix(1 0 0 1 2885.5 696)">
		<path d="M89.4-14.8H58c-2.8,0-5-2.2-5-5s2.2-5,5-5h31.3c2.8,0,5,2.2,5,5S92.1-14.8,89.4-14.8z"/>
		<path d="M89.4-2.2H58c-2.8,0-5-2.2-5-5s2.2-5,5-5h31.3c2.8,0,5,2.2,5,5S92.1-2.2,89.4-2.2z"/>
		<path d="M89.4,10.3H58c-2.8,0-5-2.2-5-5s2.2-5,5-5h31.3c2.8,0,5,2.2,5,5S92.1,10.3,89.4,10.3z"/>
		<g>
			<line x1="7.9" y1="5.3" x2="33.8" y2="-20.6"/>
			<path d="M7.9,10.7c-1.4,0-2.8-0.5-3.9-1.6C1.9,7,1.9,3.6,4.1,1.4L30-24.5c2.1-2.1,5.6-2.1,7.7,0s2.1,5.6,0,7.7L11.8,9.1
				C10.7,10.2,9.3,10.7,7.9,10.7z"/>
		</g>
		<path d="M45.5-3.5c-1.4,0-2.8-0.5-3.9-1.6L8.1-38.7c-1.6-1.6-2.5-3.8-2.5-6.1c0-2.3,0.9-4.4,2.5-6l10.4-10.9c0,0,0.1-0.1,0.1-0.1
			c6.5-6.5,16.6-7.2,23.6-1.9L54-76.2c0,0,0.1-0.1,0.1-0.1c7-7,18.4-7,25.4,0l10,10.1c7,7,7,18.4,0,25.4c0,0-0.1,0.1-0.1,0.1
			L76.2-28.3c-2.2,2.1-5.6,1.9-7.7-0.3c-2.1-2.2-1.9-5.6,0.3-7.7l13.1-12.3c2.7-2.8,2.7-7.2-0.1-10l-10-10.1c-2.7-2.7-7.2-2.7-9.9,0
			L48.6-54.5c0,0-0.1,0.1-0.1,0.1c-3.3,3.3-8.8,3.3-12.1,0c-2.7-2.7-7.1-2.5-10,0.3l-8.9,9.3l32,32c2.1,2.1,2.1,5.6,0,7.7
			C48.3-4,46.9-3.5,45.5-3.5z"/>
	</g>
	<g id="Heavy-S" transform="matrix(1 0 0 1 2589.4 696)">
		<path d="M88.7-19.2H57.4c-2.8,0-5-2.2-5-5s2.2-5,5-5h31.3c2.8,0,5,2.2,5,5S91.5-19.2,88.7-19.2z"/>
		<path d="M88.7-6.7H57.4c-2.8,0-5-2.2-5-5s2.2-5,5-5h31.3c2.8,0,5,2.2,5,5S91.5-6.7,88.7-6.7z"/>
		<path d="M88.7,5.8H57.4c-2.8,0-5-2.2-5-5s2.2-5,5-5h31.3c2.8,0,5,2.2,5,5S91.5,5.8,88.7,5.8z"/>
		<g>
			<line x1="7.3" y1="0.8" x2="33.2" y2="-25.1"/>
			<path d="M7.3,6.1C6,6.1,4.6,5.5,3.6,4.5c-2.1-2-2.1-5.4,0-7.4l25.9-25.9c2.1-2.1,5.4-2.1,7.4,0c2.1,2,2.1,5.4,0,7.4L11,4.5
				C10,5.5,8.7,6.1,7.3,6.1z"/>
		</g>
		<path d="M44.9-8.2c-1.3,0-2.7-0.5-3.7-1.5L7.6-43.3c-1.6-1.6-2.5-3.7-2.5-5.9c0-2.2,0.9-4.3,2.4-5.9L18-66.1c0,0,0.1-0.1,0.1-0.1
			c3.3-3.3,7.8-5.2,12.4-5.4c4.1-0.1,7.9,1.2,11.1,3.6l11.9-12.6c0,0,0.1-0.1,0.1-0.1c6.9-6.9,18.2-6.9,25.1,0l10,10.1
			C92.1-67.2,94-62.8,94-58s-1.8,9.2-5.2,12.6c0,0-0.1,0.1-0.1,0.1L75.5-33c-2.1,2-5.4,1.9-7.4-0.2c-2-2.1-1.9-5.4,0.2-7.4
			l13.1-12.3c1.3-1.4,2.1-3.2,2.1-5.1c0-1.9-0.8-3.8-2.1-5.1l-10-10.1c-1.4-1.4-3.2-2.1-5.1-2.1c-1.9,0-3.7,0.7-5.1,2.1L47.8-59.2
			c0,0-0.1,0.1-0.1,0.1c-3.3,3.3-8.6,3.3-11.9,0c-1.3-1.3-3.1-2-5-2c-2,0-3.8,0.8-5.2,2.3l-9,9.5l32.1,32.2c2,2.1,2,5.4,0,7.4
			C47.6-8.7,46.2-8.2,44.9-8.2z"/>
	</g>
	<g id="Bold-S" transform="matrix(1 0 0 1 2293.35 696)">
		<path d="M86.3-19.2H55c-2.8,0-5-2.2-5-5s2.2-5,5-5h31.3c2.8,0,5,2.2,5,5S89.1-19.2,86.3-19.2z"/>
		<path d="M86.3-6.7H55c-2.8,0-5-2.2-5-5s2.2-5,5-5h31.3c2.8,0,5,2.2,5,5S89.1-6.7,86.3-6.7z"/>
		<path d="M86.3,5.8H55c-2.8,0-5-2.2-5-5s2.2-5,5-5h31.3c2.8,0,5,2.2,5,5S89.1,5.8,86.3,5.8z"/>
		<g>
			<line x1="4.9" y1="0.8" x2="30.8" y2="-25.1"/>
			<path d="M4.9,5.8c-1.3,0-2.6-0.5-3.5-1.5c-2-2-2-5.1,0-7.1l25.9-25.9c2-2,5.1-2,7.1,0c2,2,2,5.1,0,7.1L8.4,4.3
				C7.5,5.3,6.2,5.8,4.9,5.8z"/>
		</g>
		<path d="M42.5-8.4c-1.3,0-2.6-0.5-3.5-1.5L5.4-43.5C3.9-45.1,3-47.1,3-49.3c0-2.1,0.8-4.2,2.3-5.7l10.4-10.9c0,0,0.1-0.1,0.1-0.1
			c6.4-6.5,16.5-7,23.4-1.6l12.1-12.8c0,0,0.1-0.1,0.1-0.1c6.8-6.8,18-6.8,24.8,0l10,10.1c6.8,6.8,6.8,17.9,0,24.8
			c0,0-0.1,0.1-0.1,0.1L72.9-33.1c-2,1.9-5.2,1.8-7.1-0.2c-1.9-2-1.8-5.2,0.2-7.1l13.1-12.3c2.9-2.9,2.9-7.7-0.1-10.6l-10-10.1
			c-2.9-2.9-7.7-2.9-10.6,0L45.2-59.3c0,0-0.1,0.1-0.1,0.1c-1.5,1.5-3.6,2.4-5.8,2.4c-2.2,0-4.2-0.8-5.8-2.4
			c-2.8-2.8-7.6-2.7-10.6,0.3l-9.2,9.6L46-16.9c2,2,1.9,5.1,0,7.1C45-8.9,43.8-8.4,42.5-8.4z M12.5-50.6L12.5-50.6
			C12.5-50.6,12.5-50.6,12.5-50.6z"/>
	</g>
	<g id="Semibold-S" transform="matrix(1 0 0 1 1997.1 696)">
		<path d="M87.6-19.1H56.3c-2.6,0-4.8-2.1-4.8-4.8s2.1-4.8,4.8-4.8h31.3c2.6,0,4.8,2.1,4.8,4.8S90.2-19.1,87.6-19.1z"/>
		<path d="M87.6-6.6H56.3c-2.6,0-4.8-2.1-4.8-4.8s2.1-4.8,4.8-4.8h31.3c2.6,0,4.8,2.1,4.8,4.8S90.2-6.6,87.6-6.6z"/>
		<path d="M87.6,5.9H56.3c-2.6,0-4.8-2.1-4.8-4.8s2.1-4.8,4.8-4.8h31.3c2.6,0,4.8,2.1,4.8,4.8S90.2,5.9,87.6,5.9z"/>
		<g>
			<line x1="6.2" y1="1.2" x2="32.1" y2="-24.8"/>
			<path d="M6.2,5.9C5,5.9,3.8,5.5,2.8,4.5C1,2.7,1-0.3,2.8-2.2l25.9-25.9c1.9-1.9,4.9-1.9,6.7,0c1.9,1.9,1.9,4.9,0,6.7L9.5,4.5
				C8.6,5.5,7.4,5.9,6.2,5.9z"/>
		</g>
		<path d="M43.8-8.3c-1.2,0-2.4-0.5-3.4-1.4L6.9-43.3c-3.1-3.1-3.1-8,0-11.1l10.5-10.9c0,0,0-0.1,0.1-0.1c6.4-6.4,16.5-6.9,23.2-1.4
			l12.2-13c0,0,0.1-0.1,0.1-0.1c3.3-3.3,7.6-5.1,12.2-5.1c4.6,0,9,1.8,12.2,5.1l10,10.1c6.7,6.7,6.7,17.7,0,24.4
			c0,0-0.1,0.1-0.1,0.1L74-33c-1.9,1.8-4.9,1.7-6.7-0.2c-1.8-1.9-1.7-4.9,0.2-6.7l13.1-12.3c3-3,3-7.9,0-10.9l-10-10.1
			c-1.5-1.5-3.4-2.3-5.5-2.3c-2.1,0-4,0.8-5.5,2.2L46.3-59.1c0,0-0.1,0.1-0.1,0.1c-1.5,1.5-3.5,2.3-5.6,2.3c-2.1,0-4.1-0.8-5.6-2.3
			c-2.9-2.9-7.8-2.8-11,0.3l-9.4,9.8l32.4,32.5c1.9,1.9,1.8,4.9,0,6.7C46.2-8.8,45-8.3,43.8-8.3z"/>
	</g>
	<g id="Medium-S" transform="matrix(1 0 0 1 1700.75 696)">
		<path d="M87.2-19.9H55.9c-2.4,0-4.4-2-4.4-4.4s2-4.4,4.4-4.4h31.3c2.4,0,4.4,2,4.4,4.4S89.7-19.9,87.2-19.9z"/>
		<path d="M87.2-7.3H55.9c-2.4,0-4.4-2-4.4-4.4s2-4.4,4.4-4.4h31.3c2.4,0,4.4,2,4.4,4.4S89.7-7.3,87.2-7.3z"/>
		<path d="M87.2,5.2H55.9c-2.4,0-4.4-2-4.4-4.4s2-4.4,4.4-4.4h31.3c2.4,0,4.4,2,4.4,4.4S89.7,5.2,87.2,5.2z"/>
		<g>
			<line x1="5.8" y1="0.8" x2="31.7" y2="-25.1"/>
			<path d="M5.8,5.2c-1.1,0-2.2-0.4-3.1-1.3C1,2.2,1-0.6,2.7-2.3l25.9-25.9c1.7-1.7,4.5-1.7,6.2,0c1.7,1.7,1.7,4.5,0,6.2L8.9,3.9
				C8.1,4.8,6.9,5.2,5.8,5.2z"/>
		</g>
		<path d="M43.4-9c-1.1,0-2.2-0.4-3.1-1.3L6.8-44c-2.9-2.9-2.9-7.7,0-10.6l10.4-10.9c3.3-3.3,7.5-5.1,11.9-5.2
			c4.1-0.1,8,1.3,11.1,3.9l12.5-13.2c0,0,0.1-0.1,0.1-0.1c6.6-6.6,17.3-6.6,23.9,0l10,10.1c3.2,3.2,4.9,7.4,4.9,11.9s-1.8,8.8-5,12
			c0,0-0.1,0.1-0.1,0.1L73.4-33.6c-1.8,1.7-4.5,1.6-6.2-0.2c-1.7-1.8-1.6-4.5,0.2-6.2l13.1-12.3c1.5-1.5,2.3-3.6,2.3-5.7
			c0-2.2-0.8-4.2-2.4-5.8l-10-10.1c-1.5-1.5-3.6-2.4-5.8-2.4c-2.2,0-4.2,0.8-5.7,2.3L45.7-59.8c0,0-0.1,0.1-0.1,0.1
			c-2.9,2.9-7.7,2.9-10.6,0c-1.5-1.5-3.5-2.3-5.7-2.2c-2.2,0.1-4.3,1-5.9,2.5l-9.6,10.1l32.7,32.8c1.7,1.7,1.7,4.5,0,6.2
			C45.6-9.5,44.5-9,43.4-9z M13.1-48.5L13.1-48.5C13-48.5,13-48.5,13.1-48.5z"/>
	</g>
	<g id="Regular-S" transform="matrix(1 0 0 1 1404.51 696)">
		<path d="M86.8-21H55.5c-2.1,0-3.8-1.7-3.8-3.8s1.7-3.8,3.8-3.8h31.3c2.1,0,3.8,1.7,3.8,3.8S88.9-21,86.8-21z"/>
		<path d="M86.8-8.5H55.5c-2.1,0-3.8-1.7-3.8-3.8s1.7-3.8,3.8-3.8h31.3c2.1,0,3.8,1.7,3.8,3.8S88.9-8.5,86.8-8.5z"/>
		<path d="M86.8,4H55.5c-2.1,0-3.8-1.7-3.8-3.8s1.7-3.8,3.8-3.8h31.3c2.1,0,3.8,1.7,3.8,3.8S88.9,4,86.8,4z"/>
		<g>
			<line x1="5.4" y1="0.3" x2="31.3" y2="-25.7"/>
			<path d="M5.4,4c-1,0-1.9-0.4-2.7-1.1c-1.5-1.5-1.5-3.8,0-5.3l25.9-25.9c1.5-1.5,3.8-1.5,5.3,0c1.5,1.5,1.5,3.8,0,5.3L8,2.9
				C7.3,3.7,6.3,4,5.4,4z"/>
		</g>
		<path d="M42.9-10.2c-1,0-1.9-0.4-2.7-1.1L6.7-44.9c-2.7-2.7-2.7-7,0-9.7l10.4-10.9c6.3-6.3,16.3-6.6,22.6-0.8L52.7-80
			c0,0,0.1-0.1,0.1-0.1c6.3-6.3,16.7-6.3,23,0l10,10.1c6.3,6.3,6.3,16.7,0,23c0,0-0.1,0.1-0.1,0.1L72.5-34.6
			c-1.5,1.4-3.9,1.3-5.3-0.2c-1.4-1.5-1.3-3.9,0.2-5.3l13.2-12.3c1.6-1.7,2.5-3.8,2.5-6.2c0-2.3-0.9-4.5-2.6-6.2l-10-10.1
			c-1.6-1.6-3.9-2.6-6.2-2.6c-2.3,0-4.5,0.9-6.2,2.5L44.8-60.7c0,0-0.1,0.1-0.1,0.1c-2.7,2.7-7,2.7-9.7,0c-1.6-1.6-3.8-2.5-6.1-2.4
			c-2.4,0.1-4.6,1-6.3,2.7L12.5-49.8l33.1,33.2c1.5,1.5,1.5,3.8,0,5.3C44.9-10.6,43.9-10.2,42.9-10.2z M12.1-49.4L12.1-49.4
			C12.1-49.4,12.1-49.4,12.1-49.4z"/>
	</g>
	<g id="Light-S" transform="matrix(1 0 0 1 1108.46 696)">
		<path d="M82.7-21.2H51.4c-1.7,0-3-1.3-3-3s1.3-3,3-3h31.3c1.7,0,3,1.3,3,3S84.4-21.2,82.7-21.2z"/>
		<path d="M82.7-8.7H51.4c-1.7,0-3-1.3-3-3s1.3-3,3-3h31.3c1.7,0,3,1.3,3,3S84.4-8.7,82.7-8.7z"/>
		<path d="M82.7,3.8H51.4c-1.7,0-3-1.3-3-3s1.3-3,3-3h31.3c1.7,0,3,1.3,3,3S84.4,3.8,82.7,3.8z"/>
		<g>
			<line x1="1.3" y1="0.8" x2="27.2" y2="-25.1"/>
			<path d="M1.3,3.8c-0.8,0-1.5-0.3-2.1-0.9C-2,1.8-2-0.1-0.8-1.3l25.9-25.9c1.2-1.2,3.1-1.2,4.2,0s1.2,3.1,0,4.2L3.4,2.9
				C2.8,3.5,2,3.8,1.3,3.8z"/>
		</g>
		<path d="M38.9-10.4c-0.8,0-1.5-0.3-2.1-0.9L3.2-44.9c-1.2-1.2-1.8-2.7-1.8-4.3c0-1.6,0.6-3.2,1.8-4.3l10.4-10.9
			c6.2-6.2,16-6.3,22-0.4c0.1,0.1,0.1,0.1,0.2,0L49.1-79c3-3,6.9-4.6,11-4.6c4.1,0,8,1.6,11,4.5l10,10.1c6,6,6,15.9,0,22
			c0,0,0,0-0.1,0.1L67.9-34.6c-1.2,1.1-3.1,1.1-4.2-0.1c-1.1-1.2-1.1-3.1,0.1-4.2L77-51.3c3.7-3.7,3.7-9.7,0-13.4l-10-10.1
			c-1.8-1.8-4.2-2.8-6.7-2.8c-2.5,0-4.9,1-6.7,2.8L40.1-60.7c-2.5,2.5-6.3,2.5-8.7,0.1c-3.6-3.6-9.7-3.5-13.5,0.3L7.5-49.4
			c-0.1,0.1-0.1,0.2,0,0.2L41-15.5c1.2,1.2,1.2,3.1,0,4.2C40.4-10.7,39.6-10.4,38.9-10.4z"/>
	</g>
	<g id="Thin-S" transform="matrix(1 0 0 1 812.599 696)">
		<path d="M85.3-22.1H54c-1,0-1.8-0.8-1.8-1.8s0.8-1.8,1.8-1.8h31.3c1,0,1.8,0.8,1.8,1.8S86.2-22.1,85.3-22.1z"/>
		<path d="M85.3-9.6H54c-1,0-1.8-0.8-1.8-1.8s0.8-1.8,1.8-1.8h31.3c1,0,1.8,0.8,1.8,1.8S86.2-9.6,85.3-9.6z"/>
		<path d="M85.3,3H54c-1,0-1.8-0.8-1.8-1.8S53-0.5,54-0.5h31.3c1,0,1.8,0.8,1.8,1.8S86.2,3,85.3,3z"/>
		<g>
			<line x1="3.8" y1="1.2" x2="29.8" y2="-24.7"/>
			<path d="M3.8,3C3.4,3,2.9,2.8,2.6,2.5C1.9,1.8,1.9,0.7,2.6,0L28.5-26c0.7-0.7,1.8-0.7,2.5,0c0.7,0.7,0.7,1.8,0,2.5L5.1,2.5
				C4.7,2.8,4.3,3,3.8,3z"/>
		</g>
		<path d="M41.4-11.3c-0.4,0-0.9-0.2-1.2-0.5L6.6-45.4c-0.9-0.9-1.4-2.1-1.4-3.5c0-1.3,0.5-2.5,1.4-3.5l10.4-10.9
			c5.7-5.7,14.7-5.8,20.2-0.3c0.5,0.5,1.4,0.5,2,0l13.3-14.2c5.6-5.6,14.7-5.6,20.2,0l10,10.1c5.6,5.6,5.6,14.6,0,20.2L69.6-35.1
			c-0.7,0.7-1.8,0.6-2.5-0.1c-0.7-0.7-0.6-1.8,0.1-2.5L80.4-50c4.2-4.2,4.2-11,0-15.2l-10-10.1c-4.2-4.2-11-4.2-15.2,0L41.8-61.1
			c-1,1-2.2,1.5-3.5,1.5s-2.5-0.5-3.5-1.4c-4.1-4.1-11-4-15.2,0.3L9.2-49.9c-0.3,0.3-0.4,0.6-0.4,1c0,0.4,0.1,0.7,0.4,1l33.5,33.6
			c0.7,0.7,0.7,1.8,0,2.5C42.3-11.4,41.9-11.3,41.4-11.3z"/>
	</g>
	<g id="Ultralight-S" transform="matrix(1 0 0 1 516.352 696)">
		<path d="M87.3-23.1H56c-0.6,0-1.1-0.5-1.1-1.1s0.5-1.1,1.1-1.1h31.3c0.6,0,1.1,0.5,1.1,1.1S87.9-23.1,87.3-23.1z"/>
		<path d="M87.3-10.6H56c-0.6,0-1.1-0.5-1.1-1.1s0.5-1.1,1.1-1.1h31.3c0.6,0,1.1,0.5,1.1,1.1S87.9-10.6,87.3-10.6z"/>
		<path d="M87.3,1.9H56c-0.6,0-1.1-0.5-1.1-1.1s0.5-1.1,1.1-1.1h31.3c0.6,0,1.1,0.5,1.1,1.1S87.9,1.9,87.3,1.9z"/>
		<g>
			<line x1="5.9" y1="0.8" x2="31.8" y2="-25.1"/>
			<path d="M5.9,1.9c-0.3,0-0.6-0.1-0.8-0.3C4.7,1.2,4.7,0.5,5.1,0L31-25.9c0.4-0.4,1.2-0.4,1.6,0c0.4,0.4,0.4,1.2,0,1.6L6.7,1.6
				C6.5,1.8,6.2,1.9,5.9,1.9z"/>
		</g>
		<path d="M43.5-12.3c-0.3,0-0.6-0.1-0.8-0.3L9.1-46.3c-0.8-0.8-1.2-1.9-1.2-3c0-1.1,0.4-2.2,1.2-3l10.5-10.9
			c5.4-5.4,14.1-5.6,19.3-0.3c0.8,0.8,2.1,0.8,2.8,0l13.3-14.2c5.3-5.3,14-5.3,19.3,0l10,10.1c5.3,5.3,5.3,14,0,19.3L71.2-36
			c-0.5,0.4-1.2,0.4-1.6-0.1c-0.4-0.5-0.4-1.2,0.1-1.6L82.9-50c4.4-4.4,4.4-11.7,0-16.1l-10-10.1c-4.4-4.4-11.7-4.4-16.1,0L43.4-62
			c-0.8,0.8-1.9,1.3-3,1.3c-1.1,0-2.2-0.4-3-1.2c-4.4-4.4-11.6-4.2-16.1,0.3L10.7-50.7c-0.4,0.4-0.6,0.9-0.6,1.4
			c0,0.5,0.2,1,0.6,1.4l33.5,33.6c0.4,0.4,0.4,1.2,0,1.6C44-12.4,43.8-12.3,43.5-12.3z"/>
	</g>
</g>
</svg>
