<?xml version="1.0" encoding="utf-8"?>
<!-- Generator: Adobe Illustrator 25.4.1, SVG Export Plug-In . SVG Version: 6.00 Build 0)  -->
<svg version="1.1" id="Layer_1" xmlns="http://www.w3.org/2000/svg" xmlns:xlink="http://www.w3.org/1999/xlink" x="0px" y="0px"
	 viewBox="0 0 3300 2200" style="enable-background:new 0 0 3300 2200;" xml:space="preserve">
<style type="text/css">
	.st0{fill:#FFFFFF;}
	.st1{fill:none;stroke:#000000;stroke-width:0.5;}
	.st2{font-family:'Arial-BoldMT';}
	.st3{font-size:12px;}
	.st4{font-family:'ArialMT';}
	.st5{fill:none;stroke:#00AEEF;stroke-width:0.5;}
	.st6{fill:#27AAE1;}
	.st7{fill:none;stroke:#27AAE1;stroke-width:0.5;}
</style>
<g id="Notes">
	<rect id="artboard" class="st0" width="3300" height="2200"/>
	<line class="st1" x1="263" y1="292" x2="3036" y2="292"/>
	<text transform="matrix(1 0 0 1 263 322)" class="st2 st3">Weight/Scale Variations</text>
	<text transform="matrix(1 0 0 1 536.0362 322)" class="st4 st3">Ultralight</text>
	<text transform="matrix(1 0 0 1 844.7501 322)" class="st4 st3">Thin</text>
	<text transform="matrix(1 0 0 1 1140.1193 322)" class="st4 st3">Light</text>
	<text transform="matrix(1 0 0 1 1428.8282 322)" class="st4 st3">Regular</text>
	<text transform="matrix(1 0 0 1 1725.2202 322)" class="st4 st3">Medium</text>
	<text transform="matrix(1 0 0 1 2018.2563 322)" class="st4 st3">Semibold</text>
	<text transform="matrix(1 0 0 1 2327.9712 322)" class="st4 st3">Bold</text>
	<text transform="matrix(1 0 0 1 2619.6831 322)" class="st4 st3">Heavy</text>
	<text transform="matrix(1 0 0 1 2918.728 322)" class="st4 st3">Black</text>
	<line class="st1" x1="263" y1="1903" x2="3036" y2="1903"/>
	<g transform="matrix(1 0 0 1 263 1933)">
		<path d="M9.2,0.8c4.3,0,7.9-3.6,7.9-7.9S13.5-15,9.2-15s-7.9,3.6-7.9,7.9C1.4-2.7,5,0.8,9.2,0.8z M9.2-0.7c-3.5,0-6.4-2.8-6.4-6.4
			s2.8-6.4,6.4-6.4s6.4,2.8,6.4,6.4C15.7-3.5,12.8-0.7,9.2-0.7z M6.4-6.3h2.1v2.1c0,0.4,0.3,0.7,0.7,0.7s0.7-0.3,0.7-0.7v-2.1H12
			c0.4,0,0.7-0.3,0.7-0.7c0-0.4-0.3-0.7-0.7-0.7h-2v-2.1c0-0.4-0.3-0.8-0.7-0.8s-0.7,0.3-0.7,0.8v2.1H6.4C5.9-7.8,5.6-7.5,5.6-7
			C5.6-6.6,5.9-6.3,6.4-6.3z"/>
	</g>
	<g transform="matrix(1 0 0 1 281.506 1933)">
		<path d="M11.7,2.9c5.4,0,10-4.5,10-10c0-5.4-4.5-10-10-10c-5.4,0-10,4.5-10,10C1.7-1.6,6.3,2.9,11.7,2.9z M11.7,1.2
			c-4.6,0-8.3-3.7-8.3-8.3s3.7-8.3,8.3-8.3S20-11.7,20-7.1C20-2.4,16.3,1.2,11.7,1.2z M8-6.2h2.9v2.9c0,0.5,0.3,0.8,0.8,0.8
			s0.8-0.3,0.8-0.8v-2.9h2.9c0.5,0,0.8-0.3,0.8-0.8s-0.3-0.8-0.8-0.8h-2.9v-2.9c0-0.5-0.3-0.8-0.8-0.8s-0.8,0.3-0.8,0.8v2.9H8
			C7.5-7.9,7.1-7.5,7.1-7C7.1-6.6,7.5-6.2,8-6.2z"/>
	</g>
	<g transform="matrix(1 0 0 1 304.924 1933)">
		<path d="M15,5.7c7,0,12.7-5.8,12.7-12.7c0-7-5.8-12.7-12.7-12.7C8-19.8,2.3-14,2.3-7.1C2.3-0.1,8,5.7,15,5.7z M15,3.8
			C8.9,3.8,4.1-1,4.1-7.1C4.1-13.1,8.9-18,15-18c6,0,10.9,4.9,10.9,10.9C25.9-1,21,3.8,15,3.8z M10.1-6.1h4v4c0,0.5,0.4,0.9,0.9,0.9
			s0.9-0.4,0.9-0.9v-4h4c0.5,0,0.9-0.4,0.9-0.9s-0.4-0.9-0.9-0.9h-4v-4c0-0.6-0.4-0.9-0.9-0.9s-0.9,0.4-0.9,0.9v4h-4
			c-0.6,0-1,0.3-1,0.9C9.1-6.5,9.5-6.1,10.1-6.1z"/>
	</g>
	<text transform="matrix(1 0 0 1 263 1953)" class="st2 st3">Design Variations</text>
	<text transform="matrix(1 0 0 1 263 1971)" class="st4 st3">Symbols are supported in up to nine weights and three scales.</text>
	<text transform="matrix(1 0 0 1 263 1989)" class="st4 st3">For optimal layout with text and other symbols, vertically align</text>
	<text transform="matrix(1 0 0 1 263 2007)" class="st4 st3">symbols with the adjacent text.</text>
	<line class="st5" x1="776" y1="1919" x2="776" y2="1933"/>
	<g transform="matrix(1 0 0 1 776 1933)">
		<path d="M3.3,0.1c0.5,0,0.8-0.2,1-0.7l1.3-3.5h5.8l1.3,3.5c0.2,0.5,0.4,0.7,0.9,0.7s0.8-0.3,0.8-0.8c0-0.2,0-0.3-0.1-0.5L9.7-13.4
			C9.4-14,9-14.3,8.4-14.3s-1,0.3-1.2,0.9L2.6-1.2C2.5-1,2.5-0.8,2.5-0.7C2.5-0.2,2.8,0.1,3.3,0.1z M6-5.5l2.4-6.6l0,0l2.4,6.6
			C10.8-5.5,6-5.5,6-5.5z"/>
	</g>
	<line class="st5" x1="792.8" y1="1919" x2="792.8" y2="1933"/>
	<text transform="matrix(1 0 0 1 776 1953)" class="st2 st3">Margins</text>
	<text transform="matrix(1 0 0 1 776 1971)" class="st4 st3">Leading and trailing margins on the left and right side of each symbol</text>
	<text transform="matrix(1 0 0 1 776 1989)" class="st4 st3">can be adjusted by modifying the x-location of the margin guidelines.</text>
	<text transform="matrix(1 0 0 1 776 2007)" class="st4 st3">Modifications are automatically applied proportionally to all</text>
	<text transform="matrix(1 0 0 1 776 2025)" class="st4 st3">scales and weights.</text>
	<g transform="matrix(1 0 0 1 1289 1933)">
		<path d="M2.8,1.9l1.7,1.7c0.9,0.9,1.8,0.8,2.8-0.2L17.5-7.9c0.3,0.1,0.5,0.1,0.8,0L19.4-8l0.7,0.7v0.6c0,0.5,0.1,0.9,0.6,1.4
			l0.8,0.7c0.5,0.5,1.1,0.5,1.6,0L26-7.5C26.5-8,26.4-8.6,26-9l-1-0.9c-0.5-0.5-0.8-0.6-1.3-0.6h-0.6l-0.6-0.6l0.2-1.1
			c0.1-0.6,0-1-0.6-1.6L19.9-16c-3.3-3.3-7.8-3.2-10.7-0.4C8.8-16,8.8-15.4,9-15s0.7,0.6,1.3,0.4c1.5-0.3,3-0.4,4.4,0.5l-0.6,1.5
			c-0.2,0.5-0.2,0.9-0.1,1.2L3-0.9C2.1,0,2,1,2.8,1.9z M10.8-16c2.4-1.8,5.7-1.5,7.9,0.8l2.4,2.4c0.2,0.2,0.3,0.4,0.2,0.8L21-10.5
			L22.5-9l1-0.1c0.3,0,0.3,0,0.5,0.2l0.6,0.6l-2.4,2.4l-0.6-0.6c-0.2-0.2-0.2-0.3-0.2-0.5l0.1-1L20-9.5l-1.5,0.3
			c-0.3,0.1-0.5,0-0.7-0.2l-2-2c-0.3-0.2-0.3-0.4-0.1-0.8l0.9-2.1C15-15.8,13-16.4,11-15.8C10.7-15.7,10.6-15.8,10.8-16z M5.3,2.3
			L4.1,1.1C3.6,0.7,3.7,0.3,4.1,0L15-10.2l1.5,1.5l-10,11C6.1,2.7,5.7,2.8,5.3,2.3z"/>
	</g>
	<text transform="matrix(1 0 0 1 1289 1953)" class="st2 st3">Exporting</text>
	<text transform="matrix(1 0 0 1 1289 1971)" class="st4 st3">Symbols should be outlined when exporting to ensure the</text>
	<text transform="matrix(1 0 0 1 1289 1989)" class="st4 st3">design is preserved when submitting to Xcode.</text>
	<text id="template-version" transform="matrix(1 0 0 1 2958.8496 1933)" class="st4 st3">Template v.2.0</text>
	<text transform="matrix(1 0 0 1 2878.5762 1951)" class="st4 st3">Requires Xcode 12 or greater</text>
	<text transform="matrix(1 0 0 1 2871.2695 1969)" class="st4 st3">Generated from pencil.circle.fill</text>
	<text transform="matrix(1 0 0 1 2921.9238 1987)" class="st4 st3">Typeset at 100 points</text>
	<text transform="matrix(1 0 0 1 263 726)" class="st4 st3">Small</text>
	<text transform="matrix(1 0 0 1 263 1156)" class="st4 st3">Medium</text>
	<text transform="matrix(1 0 0 1 263 1586)" class="st4 st3">Large</text>
</g>
<g id="Guides">
	<g id="H-reference" transform="matrix(1 0 0 1 339 696)">
		<path class="st6" d="M1,0h2.7L13-24.5h32.8L55.1,0h2.6L30.6-70.5h-2.5L1,0z M29.3-67.1L29.3-67.1l15.5,40.4h-31L29.3-67.1z"/>
	</g>
	<line id="Baseline-S" class="st7" x1="263" y1="696" x2="3036" y2="696"/>
	<line id="Capline-S" class="st7" x1="263" y1="625.5" x2="3036" y2="625.5"/>
	<g id="H-reference_00000134968233966130283460000012688302834963742646_" transform="matrix(1 0 0 1 339 1126)">
		<path class="st6" d="M1,0h2.7L13-24.5h32.8L55.1,0h2.6L30.6-70.5h-2.5L1,0z M29.3-67.1L29.3-67.1l15.5,40.4h-31L29.3-67.1z"/>
	</g>
	<line id="Baseline-M" class="st7" x1="263" y1="1126" x2="3036" y2="1126"/>
	<line id="Capline-M" class="st7" x1="263" y1="1055.5" x2="3036" y2="1055.5"/>
	<g id="H-reference_00000124842375205203226240000002763779852868312212_" transform="matrix(1 0 0 1 339 1556)">
		<path class="st6" d="M1,0h2.7L13-24.5h32.8L55.1,0h2.6L30.6-70.5h-2.5L1,0z M29.3-67.1L29.3-67.1l15.5,40.4h-31L29.3-67.1z"/>
	</g>
	<line id="Baseline-L" class="st7" x1="263" y1="1556" x2="3036" y2="1556"/>
	<line id="Capline-L" class="st7" x1="263" y1="1485.5" x2="3036" y2="1485.5"/>
	<line id="left-margin" class="st5" x1="1391.3" y1="1030.8" x2="1391.3" y2="1150.1"/>
	<line id="right-margin" class="st5" x1="1508.4" y1="1030.8" x2="1508.4" y2="1150.1"/>
</g>
<g id="Symbols">
	<g id="Black-L" transform="matrix(1 0 0 1 2854.05 1556)">
		<path d="M80.1-106.1c-38.4,0-69.6,31.2-69.6,69.6s31.2,69.6,69.6,69.6c38.4,0,69.6-31.2,69.6-69.6S118.5-106.1,80.1-106.1z
			 M63.7-7.5c0,4.9-4,8.9-8.9,8.9s-8.9-4-8.9-8.9v-14.1c0-4.9,4-8.9,8.9-8.9s8.9,4,8.9,8.9V-7.5z M89-7.5c-0.1,4.9-4,8.9-8.9,8.9
			c-4.9,0-8.9-4-8.9-8.9v-36.2c0-4.9,4-8.9,8.9-8.9c4.9,0,8.9,4,8.9,8.9V-7.5z M114.2-7.5c0,4.9-4,8.9-8.9,8.9s-8.9-4-8.9-8.9v-59.3
			c0-4.9,4-8.9,8.9-8.9s8.9,4,8.9,8.9V-7.5z"/>
	</g>
	<g id="Heavy-L" transform="matrix(1 0 0 1 2558.39 1556)">
		<path d="M79.2-104.5c-37.6,0-68,30.4-68,68s30.4,68,68,68c37.6,0,68-30.4,68-68S116.8-104.5,79.2-104.5z M61.9-7.5
			c-0.1,4.4-3.6,7.9-7.9,7.9s-7.9-3.5-7.9-7.9v-14.1c0-4.3,3.5-7.9,7.9-7.9s7.9,3.5,7.9,7.9V-7.5z M87.1-7.5c0,4.4-3.5,7.9-7.9,7.9
			c-4.3,0-7.9-3.5-7.9-7.9v-36.2c0-4.3,3.5-7.9,7.9-7.9s7.9,3.5,7.9,7.9V-7.5z M112.4-7.5c0,4.4-3.5,7.9-7.9,7.9
			c-4.3,0-7.9-3.5-7.9-7.9v-59.3c0-4.3,3.5-7.9,7.9-7.9s7.9,3.5,7.9,7.9V-7.5z"/>
	</g>
	<g id="Bold-L" transform="matrix(1 0 0 1 2262.88 1556)">
		<path d="M77-103c-36.7,0-66.5,29.8-66.5,66.5S40.3,30,77,30s66.5-29.8,66.5-66.5S113.7-103,77-103z M59.1-7.5
			c0,4.1-3.3,7.4-7.4,7.4c-4.1,0-7.4-3.3-7.4-7.4v-14.1c0-4.1,3.3-7.4,7.4-7.4c4.1,0,7.4,3.3,7.4,7.4V-7.5z M84.4-7.5
			C84.3-3.4,81-0.1,77-0.1c-4.1,0-7.4-3.3-7.4-7.4v-36.2c0-4.1,3.3-7.4,7.4-7.4s7.4,3.3,7.4,7.4V-7.5z M109.6-7.5
			c0,4.1-3.3,7.4-7.4,7.4c-4.1,0-7.4-3.3-7.4-7.4v-59.3c0-4.1,3.3-7.4,7.4-7.4c4.1,0,7.4,3.3,7.4,7.4V-7.5z"/>
	</g>
	<g id="Semibold-L" transform="matrix(1 0 0 1 1966.97 1556)">
		<path d="M75.9-102.1c-36.2,0-65.6,29.4-65.6,65.6s29.4,65.6,65.6,65.6s65.6-29.4,65.6-65.6S112.1-102.1,75.9-102.1z M57.2-7.5
			c0,3.6-2.9,6.5-6.5,6.5c-3.6,0-6.5-2.9-6.5-6.5v-14.1c0-3.6,2.9-6.5,6.5-6.5c3.6,0,6.5,2.9,6.5,6.5V-7.5z M82.4-7.5
			c0,3.6-2.9,6.5-6.5,6.5s-6.5-2.9-6.5-6.5v-36.2c0-3.6,2.9-6.5,6.5-6.5s6.5,2.9,6.5,6.5V-7.5z M107.7-7.5c0,3.6-2.9,6.5-6.5,6.5
			s-6.5-2.9-6.5-6.5v-59.3c0-3.6,2.9-6.5,6.5-6.5s6.5,2.9,6.5,6.5V-7.5z"/>
	</g>
	<g id="Medium-L" transform="matrix(1 0 0 1 1670.87 1556)">
		<path d="M77.8-101.1c-35.7,0-64.6,28.9-64.6,64.6s28.9,64.6,64.6,64.6c35.7,0,64.6-28.9,64.6-64.6S113.5-101.1,77.8-101.1z
			 M58.1-7.5c0,3.1-2.5,5.5-5.5,5.5s-5.5-2.5-5.5-5.5v-14.1c0-3,2.5-5.5,5.5-5.5s5.5,2.5,5.5,5.5V-7.5z M83.3-7.5
			c0,3.1-2.4,5.5-5.5,5.5c-3,0-5.5-2.5-5.5-5.5v-36.2c0-3,2.5-5.5,5.5-5.5s5.5,2.5,5.5,5.5V-7.5z M108.6-7.5c0,3.1-2.5,5.5-5.5,5.5
			s-5.5-2.5-5.5-5.5v-59.3c0-3,2.5-5.5,5.5-5.5s5.5,2.5,5.5,5.5V-7.5z"/>
	</g>
	<g id="Regular-L" transform="matrix(1 0 0 1 1374.97 1556)">
		<path d="M76.1-99.1c-35.1,0-63.6,28.5-63.6,63.6S41,28.1,76.1,28.1s63.6-28.5,63.6-63.6S111.2-99.1,76.1-99.1z M55.4-6.5
			c0,2.5-2.1,4.6-4.6,4.6s-4.6-2-4.6-4.6v-14.1c0-2.5,2-4.6,4.6-4.6c2.6,0,4.6,2,4.6,4.6V-6.5z M80.7-6.5c-0.1,2.5-2.1,4.6-4.6,4.6
			s-4.6-2-4.6-4.6v-36.2c0-2.5,2-4.6,4.6-4.6s4.6,2,4.6,4.6V-6.5z M105.9-6.5c0,2.5-2.1,4.6-4.6,4.6s-4.6-2-4.6-4.6v-59.3
			c0-2.5,2-4.6,4.6-4.6c2.6,0,4.6,2,4.6,4.6V-6.5z"/>
	</g>
	<g id="Light-L" transform="matrix(1 0 0 1 1079.18 1556)">
		<path d="M136.8-45.4c-5.5-33.9-37.4-56.8-71.2-51.4C31.7-91.3,8.7-59.4,14.2-25.5s37.4,56.8,71.2,51.4
			C119.3,20.3,142.3-11.6,136.8-45.4z M53.3-6.5c0,1.7-1.4,3-3,3c-1.7,0-3-1.3-3-3v-14.1c0-1.7,1.3-3,3-3c1.7,0,3,1.3,3,3V-6.5z
			 M78.5-6.5c0,1.7-1.3,3-3,3s-3-1.3-3-3v-36.2c0-1.7,1.3-3,3-3s3,1.3,3,3V-6.5z M103.8-6.5c0,1.7-1.3,3-3,3c-1.7,0-3-1.3-3-3v-59.3
			c0-1.7,1.3-3,3-3c1.7,0,3,1.3,3,3V-6.5z"/>
	</g>
	<g id="Thin-L" transform="matrix(1 0 0 1 783.693 1556)">
		<path d="M134.1-46.3c-5.4-33.4-36.9-56-70.2-50.6c-33.4,5.4-56,36.9-50.6,70.2s36.9,56,70.2,50.6C116.9,18.5,139.5-13,134.1-46.3z
			 M50.5-7.4c0,1.1-0.9,2.1-2.1,2.1c-1.2,0-2.1-1-2.1-2.1v-14.1c0-1.2,1-2.1,2.1-2.1c1.1,0,2.1,1,2.1,2.1V-7.4z M75.8-7.4
			c0,1.1-1,2.1-2.1,2.1c-1.2,0-2.1-1-2.1-2.1v-36.2c0-1.2,1-2.1,2.1-2.1c1.1,0,2.1,1,2.1,2.1V-7.4z M101-7.4c0,1.1-0.9,2.1-2.1,2.1
			c-1.2,0-2.1-1-2.1-2.1v-59.3c0-1.2,1-2.1,2.1-2.1c1.1,0,2.1,1,2.1,2.1V-7.4z"/>
	</g>
	<g id="Ultralight-L" transform="matrix(1 0 0 1 487.616 1556)">
		<path d="M132.4-46.2C127.1-79,96.1-101.4,63.2-96C30.4-90.7,8-59.7,13.4-26.8C18.7,6,49.7,28.4,82.6,23
			C115.4,17.7,137.8-13.3,132.4-46.2z M47.6-6.2c-0.7,0-1.2-0.6-1.2-1.2v-14.1c0-0.7,0.6-1.2,1.2-1.2c0.6,0,1.2,0.6,1.2,1.2v14.1
			C48.9-6.8,48.3-6.2,47.6-6.2z M74.1-7.4c0,0.6-0.5,1.2-1.2,1.2s-1.2-0.6-1.2-1.2v-36.2c0-0.7,0.6-1.2,1.2-1.2
			c0.6,0,1.2,0.6,1.2,1.2V-7.4z M98.1-6.2c-0.7,0-1.2-0.6-1.2-1.2v-59.3c0-0.7,0.6-1.2,1.2-1.2s1.2,0.6,1.2,1.2v59.3
			C99.4-6.8,98.8-6.2,98.1-6.2z"/>
	</g>
	<g id="Black-M" transform="matrix(1 0 0 1 2870.97 1126)">
		<path d="M63.4-90.8C33.1-90.8,8.6-66.3,8.6-36s24.5,54.8,54.8,54.8c30.3,0,54.8-24.5,54.8-54.8S93.7-90.8,63.4-90.8z M50.8-13.5
			c0,3.9-3.1,7-7,7c-3.8,0-7-3.1-7-7v-10.9c0-3.8,3.1-7,7-7s7,3.1,7,7V-13.5z M70.4-13.5c0,3.9-3.2,7-7,7c-3.8,0-7-3.1-7-7v-28
			c0-3.8,3.1-7,7-7c3.9,0,7,3.1,7,7V-13.5z M90-13.5c-0.1,3.9-3.2,7-7,7s-7-3.1-7-7v-46c0-3.8,3.1-7,7-7s7,3.1,7,7V-13.5z"/>
	</g>
	<g id="Heavy-M" transform="matrix(1 0 0 1 2575.19 1126)">
		<path d="M62.7-89.8C33-89.8,8.9-65.7,8.9-36S33,17.8,62.7,17.8S116.5-6.3,116.5-36S92.4-89.8,62.7-89.8z M49.9-13.5
			c0,3.8-3.1,6.8-6.8,6.8c-3.7,0-6.8-3-6.8-6.8v-10.9c0-3.7,3-6.8,6.8-6.8c3.8,0,6.8,3,6.8,6.8V-13.5z M69.5-13.5
			c-0.1,3.8-3.1,6.8-6.8,6.8s-6.8-3-6.8-6.8v-28c0-3.7,3-6.8,6.8-6.8s6.8,3,6.8,6.8V-13.5z M89.1-13.5C89-9.7,86-6.7,82.3-6.7
			s-6.8-3-6.8-6.8v-46c0-3.7,3-6.8,6.8-6.8s6.8,3,6.8,6.8V-13.5z"/>
	</g>
	<g id="Bold-M" transform="matrix(1 0 0 1 2279.5 1126)">
		<path d="M59.6-88.4C30.7-88.4,7.2-64.9,7.2-36s23.5,52.4,52.4,52.4C88.5,16.4,112-7.1,112-36S88.5-88.4,59.6-88.4z M46.5-13.5
			C46.5-9.9,43.6-7,40-7s-6.5-2.9-6.5-6.5v-10.9c0-3.6,2.9-6.5,6.5-6.5s6.5,2.9,6.5,6.5V-13.5z M66.1-13.5c0,3.6-2.9,6.5-6.5,6.5
			c-3.6,0-6.5-2.9-6.5-6.5v-28c0-3.6,2.9-6.5,6.5-6.5c3.6,0,6.5,2.9,6.5,6.5V-13.5z M85.7-13.5c0,3.6-2.9,6.5-6.5,6.5
			c-3.6,0-6.5-2.9-6.5-6.5v-46c0-3.6,2.9-6.5,6.5-6.5c3.6,0,6.5,2.9,6.5,6.5V-13.5z"/>
	</g>
	<g id="Semibold-M" transform="matrix(1 0 0 1 1983.5 1126)">
		<path d="M60.7-87.5C32.3-87.5,9.2-64.4,9.2-36s23.1,51.5,51.5,51.5S112.2-7.6,112.2-36S89.1-87.5,60.7-87.5z M46.9-13.5
			c-0.1,3.2-2.6,5.8-5.8,5.8c-3.2,0-5.8-2.6-5.8-5.8v-10.9c0-3.2,2.6-5.8,5.8-5.8c3.2,0,5.8,2.6,5.8,5.8V-13.5z M66.5-13.5
			c-0.1,3.2-2.7,5.8-5.8,5.8c-3.2,0-5.8-2.6-5.8-5.8v-28c0-3.2,2.6-5.8,5.8-5.8c3.2,0,5.8,2.6,5.8,5.8V-13.5z M86.1-13.5
			c-0.1,3.2-2.7,5.8-5.8,5.8c-3.2,0-5.8-2.6-5.8-5.8v-46c0-3.2,2.6-5.8,5.8-5.8s5.8,2.6,5.8,5.8V-13.5z"/>
	</g>
	<g id="Medium-M" transform="matrix(1 0 0 1 1687.3 1126)">
		<path d="M62.7-86.9c-28,0-50.9,22.8-50.9,50.9c0,28.1,22.8,50.9,50.9,50.9c28,0,50.9-22.8,50.9-50.9
			C113.6-64.1,90.7-86.9,62.7-86.9z M48.2-13.5c-0.1,2.8-2.3,5.1-5.1,5.1c-2.8,0-5.1-2.3-5.1-5.1v-10.9c0-2.8,2.3-5.1,5.1-5.1
			c2.8,0,5.1,2.3,5.1,5.1V-13.5z M67.8-13.5c-0.1,2.8-2.3,5.1-5.1,5.1c-2.8,0-5.1-2.3-5.1-5.1v-28c0-2.8,2.3-5.1,5.1-5.1
			c2.8,0,5.1,2.3,5.1,5.1V-13.5z M87.4-13.5c-0.1,2.8-2.3,5.1-5.1,5.1c-2.8,0-5.1-2.3-5.1-5.1v-46c0-2.8,2.3-5.1,5.1-5.1
			c2.8,0,5.1,2.3,5.1,5.1V-13.5z"/>
	</g>
	<g id="Regular-M" transform="matrix(1 0 0 1 1391.3 1126)">
		<path d="M59-85.5C31.7-85.5,9.5-63.3,9.5-36S31.7,13.5,59,13.5S108.5-8.7,108.5-36S86.3-85.5,59-85.5z M42.8-13.4
			c0,1.8-1.5,3.4-3.4,3.4S36-11.5,36-13.4v-10.9c0-1.9,1.5-3.4,3.4-3.4s3.4,1.5,3.4,3.4V-13.4z M62.4-13.4c0,1.8-1.5,3.4-3.4,3.4
			s-3.4-1.5-3.4-3.4v-28c0-1.9,1.5-3.4,3.4-3.4s3.4,1.5,3.4,3.4V-13.4z M82-13.4c0,1.8-1.5,3.4-3.4,3.4s-3.4-1.5-3.4-3.4v-46
			c0-1.9,1.5-3.4,3.4-3.4s3.4,1.5,3.4,3.4V-13.4z"/>
	</g>
	<g id="Light-M" transform="matrix(1 0 0 1 1095.42 1126)">
		<path d="M57.6-85c-27.1,0-49,21.9-49,49s21.9,49,49,49s49-21.9,49-49S84.7-85,57.6-85z M41.2-13.4c0,1.7-1.4,3.2-3.2,3.2
			s-3.2-1.5-3.2-3.2v-10.9c0-1.8,1.5-3.2,3.2-3.2s3.2,1.5,3.2,3.2V-13.4z M60.8-13.4c0,1.7-1.4,3.2-3.2,3.2s-3.2-1.5-3.2-3.2v-28
			c0-1.8,1.5-3.2,3.2-3.2s3.2,1.5,3.2,3.2V-13.4z M80.3-13.4c0.1,1.7-1.4,3.2-3.2,3.2s-3.2-1.5-3.2-3.2v-46c0-1.8,1.5-3.2,3.2-3.2
			s3.2,1.5,3.2,3.2V-13.4z"/>
	</g>
	<g id="Thin-M" transform="matrix(1 0 0 1 799.806 1126)">
		<path d="M56.8-83.8C30.4-83.8,9-62.4,9-36s21.4,47.8,47.8,47.8c26.4,0,47.8-21.4,47.8-47.8S83.2-83.8,56.8-83.8z M39.2-13.5
			c0,1.1-0.9,2-2,2c-1.1,0-2-0.9-2-2v-10.9c0-1.1,0.9-2,2-2c1.1,0,2,0.9,2,2V-13.5z M58.8-13.5c0,1.1-0.9,2-2,2c-1.1,0-2-0.9-2-2
			v-28c0-1.1,0.9-2,2-2c1.1,0,2,0.9,2,2V-13.5z M78.4-13.5c0,1.1-0.9,2-2,2c-1.1,0-2-0.9-2-2v-46c0-1.1,0.9-2,2-2c1.1,0,2,0.9,2,2
			V-13.5z"/>
	</g>
	<g id="Ultralight-M" transform="matrix(1 0 0 1 503.656 1126)">
		<path d="M56.1-83c-26,0-47,21-47,47s21,47,47,47c26,0,47-21,47-47S82.1-83,56.1-83z M37.7-13.5c0,0.7-0.5,1.2-1.2,1.2
			s-1.2-0.5-1.2-1.2v-10.9c0-0.7,0.5-1.2,1.2-1.2s1.2,0.5,1.2,1.2V-13.5z M57.3-13.5c0,0.7-0.5,1.2-1.2,1.2c-0.7,0-1.2-0.5-1.2-1.2
			v-28c0-0.7,0.5-1.2,1.2-1.2c0.7,0,1.2,0.5,1.2,1.2V-13.5z M76.9-13.5c0,0.7-0.6,1.2-1.2,1.2c-0.7,0-1.2-0.5-1.2-1.2v-46
			c0-0.7,0.5-1.2,1.2-1.2s1.2,0.5,1.2,1.2V-13.5z"/>
	</g>
	<g id="Black-S" transform="matrix(1 0 0 1 2884.57 696)">
		<path d="M49.2-77.9c-23.7,0-43,19.3-43,43c0,23.7,19.3,43,43,43c23.7,0,43-19.3,43-43C92.2-58.6,72.9-77.9,49.2-77.9z M39.4-17.4
			c-0.1,3.1-2.5,5.5-5.5,5.5s-5.5-2.4-5.5-5.5v-8.5c0-3,2.4-5.5,5.5-5.5c3.1,0,5.5,2.4,5.5,5.5V-17.4z M54.7-17.4
			c0,3.1-2.5,5.5-5.5,5.5s-5.5-2.4-5.5-5.5v-22c0-3,2.4-5.5,5.5-5.5s5.5,2.4,5.5,5.5V-17.4z M70-17.4c0,3.1-2.4,5.5-5.5,5.5
			c-3,0-5.5-2.4-5.5-5.5v-36c0-3,2.4-5.5,5.5-5.5s5.5,2.4,5.5,5.5V-17.4z"/>
	</g>
	<g id="Heavy-S" transform="matrix(1 0 0 1 2588.47 696)">
		<path d="M48.8-77.1C25.5-77.1,6.7-58.3,6.7-35S25.5,7.1,48.8,7.1S90.9-11.7,90.9-35S72.1-77.1,48.8-77.1z M38.7-17.4
			c0,3-2.3,5.3-5.2,5.3s-5.2-2.4-5.2-5.3v-8.5c0-2.9,2.4-5.2,5.2-5.2s5.2,2.4,5.2,5.2V-17.4z M54-17.4c0.1,3-2.3,5.3-5.2,5.3
			s-5.2-2.4-5.2-5.3v-22c0-2.9,2.4-5.2,5.2-5.2c2.8,0,5.2,2.4,5.2,5.2V-17.4z M69.4-17.4c0,3-2.3,5.3-5.2,5.3S59-14.5,59-17.4v-36
			c0-2.9,2.4-5.2,5.2-5.2c2.8,0,5.2,2.4,5.2,5.2V-17.4z"/>
	</g>
	<g id="Bold-S" transform="matrix(1 0 0 1 2292.44 696)">
		<path d="M47.1-76.6c-23,0-41.6,18.7-41.6,41.6S24.1,6.7,47.1,6.7S88.7-12,88.7-35S70-76.6,47.1-76.6z M36.7-17.3c0,2.7-2.2,5-5,5
			s-5-2.2-5-5v-8.5c0-2.8,2.2-5,5-5s5,2.2,5,5V-17.3z M52.1-17.3c0,2.7-2.3,5-5,5c-2.8,0-5-2.2-5-5v-22c0-2.8,2.2-5,5-5
			c2.8,0,5,2.2,5,5V-17.3z M67.4-17.3c0,2.7-2.2,5-5,5c-2.8,0-5-2.2-5-5v-36c0-2.8,2.2-5,5-5c2.8,0,5,2.2,5,5V-17.3z"/>
	</g>
	<g id="Semibold-S" transform="matrix(1 0 0 1 1996.2 696)">
		<path d="M47.7-76C25.3-76,7.1-57.8,7.1-35.4S25.3,5.2,47.7,5.2S88.3-13,88.3-35.4S70.1-76,47.7-76z M37.2-17.8
			c0,2.7-2.2,4.8-4.8,4.8s-4.8-2.1-4.8-4.8v-8.5c0-2.6,2.1-4.8,4.8-4.8c2.7,0,4.8,2.1,4.8,4.8V-17.8z M52.5-17.8
			c0,2.7-2.1,4.8-4.8,4.8c-2.6,0-4.8-2.1-4.8-4.8v-22c0-2.6,2.1-4.8,4.8-4.8c2.7,0,4.8,2.1,4.8,4.8V-17.8z M67.9-17.8
			c-0.1,2.7-2.2,4.8-4.8,4.8c-2.6,0-4.8-2.1-4.8-4.8v-36c0-2.6,2.1-4.8,4.8-4.8c2.7,0,4.8,2.1,4.8,4.8V-17.8z"/>
	</g>
	<g id="Medium-S" transform="matrix(1 0 0 1 1699.83 696)">
		<path d="M48.5-75.2c-22.2,0-40.2,18-40.2,40.2s18,40.2,40.2,40.2s40.2-18,40.2-40.2S70.7-75.2,48.5-75.2z M37.6-17.3
			c0,2.4-2,4.4-4.4,4.4c-2.4,0-4.4-2-4.4-4.4v-8.5c0-2.4,2-4.4,4.4-4.4c2.4,0,4.4,2,4.4,4.4V-17.3z M52.9-17.3
			c0,2.4-1.9,4.4-4.4,4.4c-2.4,0-4.4-2-4.4-4.4v-22c0-2.4,2-4.4,4.4-4.4s4.4,2,4.4,4.4V-17.3z M68.3-17.3c0,2.4-2,4.4-4.4,4.4
			c-2.4,0-4.4-2-4.4-4.4v-36c0-2.4,2-4.4,4.4-4.4c2.4,0,4.4,2,4.4,4.4V-17.3z"/>
	</g>
	<g id="Regular-S" transform="matrix(1 0 0 1 1403.58 696)">
		<path d="M46.8-74.9c-21.9,0-39.6,17.7-39.6,39.6c0,21.9,17.7,39.6,39.6,39.6c21.9,0,39.6-17.7,39.6-39.6
			C86.4-57.2,68.7-74.9,46.8-74.9z M35.3-17.7c-0.1,2.1-1.8,3.8-3.8,3.8c-2.1,0-3.8-1.7-3.8-3.8v-8.5c0-2.1,1.7-3.8,3.8-3.8
			s3.8,1.7,3.8,3.8V-17.7z M50.6-17.7c-0.1,2.1-1.7,3.8-3.8,3.8c-2.1,0-3.8-1.7-3.8-3.8v-22c0-2.1,1.7-3.8,3.8-3.8
			c2.1,0,3.8,1.7,3.8,3.8V-17.7z M65.9-17.7c0,2.1-1.7,3.8-3.8,3.8c-2.1,0-3.8-1.7-3.8-3.8v-36c0-2.1,1.7-3.8,3.8-3.8
			c2.1,0,3.8,1.7,3.8,3.8V-17.7z"/>
	</g>
	<g id="Light-S" transform="matrix(1 0 0 1 1107.6 696)">
		<path d="M74.3-62.5c-15.2-15.2-39.8-15.2-55,0c-15.2,15.2-15.2,39.8,0,55s39.8,15.2,55,0C89.5-22.7,89.5-47.3,74.3-62.5z
			 M34.5-17.3c0,1.6-1.4,3-3,3c-1.7,0-3-1.3-3-3v-8.5c0-1.7,1.3-3,3-3s3,1.3,3,3V-17.3z M49.8-17.3c0,1.6-1.4,3-3,3
			c-1.7,0-3-1.3-3-3v-22c0-1.7,1.3-3,3-3c1.7,0,3,1.3,3,3V-17.3z M65.1-17.3c0,1.6-1.3,3-3,3s-3-1.3-3-3v-36c0-1.7,1.3-3,3-3
			s3,1.3,3,3V-17.3z"/>
	</g>
	<g id="Thin-S" transform="matrix(1 0 0 1 811.867 696)">
		<path d="M71.7-61.5c-14.7-14.7-38.5-14.7-53.2,0C3.8-46.9,3.8-23.1,18.5-8.4C33.2,6.3,57,6.3,71.7-8.4S86.4-46.9,71.7-61.5z
			 M31.6-17.4c0,1.1-0.8,1.8-1.8,1.8S28-16.4,28-17.4v-8.5c0-1,0.8-1.8,1.8-1.8s1.8,0.8,1.8,1.8V-17.4z M46.9-17.4
			c0,1.1-0.8,1.8-1.8,1.8s-1.8-0.8-1.8-1.8v-22c0-1,0.8-1.8,1.8-1.8s1.8,0.8,1.8,1.8V-17.4z M62.3-17.4c-0.1,1.1-0.9,1.8-1.8,1.8
			c-1,0-1.8-0.8-1.8-1.8v-36c0-1,0.8-1.8,1.8-1.8s1.8,0.8,1.8,1.8V-17.4z"/>
	</g>
	<g id="Ultralight-S" transform="matrix(1 0 0 1 515.644 696)">
		<path d="M44.5-72c-20.4,0-37,16.6-37,37s16.6,37,37,37c20.4,0,37-16.6,37-37S64.9-72,44.5-72z M30.3-17.3c0,0.6-0.5,1.1-1.1,1.1
			c-0.6,0-1.1-0.5-1.1-1.1v-8.5c0-0.6,0.5-1.1,1.1-1.1c0.6,0,1.1,0.5,1.1,1.1V-17.3z M45.6-17.3c0,0.6-0.5,1.1-1.1,1.1
			s-1.1-0.5-1.1-1.1v-22c0-0.6,0.5-1.1,1.1-1.1s1.1,0.5,1.1,1.1V-17.3z M61-17.3c0,0.6-0.5,1.1-1.1,1.1c-0.6,0-1.1-0.5-1.1-1.1v-36
			c0-0.6,0.5-1.1,1.1-1.1c0.6,0,1.1,0.5,1.1,1.1V-17.3z"/>
	</g>
</g>
</svg>
